<svg width="201" height="108" viewBox="0 0 201 108" fill="none" xmlns="http://www.w3.org/2000/svg">
<path d="M147.985 9.00787C137.509 6.08378 127.053 3.08115 116.617 0C106.455 3.06268 96.2919 6.0653 86.1291 9.00787C76.2436 6.0653 66.3788 3.06268 56.5348 0C45.7993 3.08115 35.0453 6.08378 24.2728 9.00787L0.013916 107.45C14.0154 104.498 28.0053 101.496 41.9837 98.4421C55.0705 101.5 68.1735 104.503 81.2926 107.45C94.6889 104.512 108.085 101.509 121.482 98.4421C135.16 101.514 148.854 104.517 162.564 107.45C175.383 104.498 188.188 101.496 200.979 98.4421L176.707 0C167.149 3.06268 157.575 6.0653 147.985 9.00787Z" fill="#2C2E70"/>
<path opacity="0.8" d="M147.985 9.00787C137.509 6.08378 127.053 3.08115 116.617 0C106.455 3.06268 96.2919 6.0653 86.1291 9.00787C76.2436 6.0653 66.3788 3.06268 56.5348 0C45.7993 3.08115 35.0453 6.08378 24.2728 9.00787L0.013916 107.45C14.0154 104.498 28.0053 101.496 41.9837 98.4421C55.0705 101.5 68.1735 104.503 81.2926 107.45C94.6889 104.512 108.085 101.509 121.482 98.4421C135.16 101.514 148.854 104.517 162.564 107.45C175.383 104.498 188.188 101.496 200.979 98.4421L176.707 0C167.149 3.06268 157.575 6.0653 147.985 9.00787Z" fill="white"/>
<path d="M81.5627 101.734C94.7835 98.7956 107.993 95.7929 121.19 92.7256C134.684 95.7975 148.191 98.8002 161.712 101.734C172.397 99.2483 183.074 96.7076 193.745 94.1115C187.038 65.1061 180.34 36.1031 173.651 7.10238C165.405 9.69387 157.139 12.2346 148.851 14.7244C138.19 11.8003 127.547 8.79771 116.922 5.71655C106.584 8.76999 96.234 11.7726 85.8726 14.7244C75.8023 11.7819 65.7504 8.77923 55.717 5.71655C46.5429 8.29881 37.3572 10.8395 28.1599 13.3386C21.4525 42.3393 14.7543 71.34 8.06543 100.341C19.674 97.837 31.2711 95.2963 42.8566 92.7187C55.7309 95.7721 68.6329 98.7771 81.5627 101.734Z" fill="#2C2E70"/>
<path opacity="0.4" d="M81.5627 101.734C94.7835 98.7956 107.993 95.7929 121.19 92.7256C134.684 95.7975 148.191 98.8002 161.712 101.734C172.397 99.2483 183.074 96.7076 193.745 94.1115C187.038 65.1061 180.34 36.1031 173.651 7.10238C165.405 9.69387 157.139 12.2346 148.851 14.7244C138.19 11.8003 127.547 8.79771 116.922 5.71655C106.584 8.76999 96.234 11.7726 85.8726 14.7244C75.8023 11.7819 65.7504 8.77923 55.717 5.71655C46.5429 8.29881 37.3572 10.8395 28.1599 13.3386C21.4525 42.3393 14.7543 71.34 8.06543 100.341C19.674 97.837 31.2711 95.2963 42.8566 92.7187C55.7309 95.7721 68.6329 98.7771 81.5627 101.734Z" fill="white"/>
<path d="M111.524 75.8254C111.005 70.2821 110.582 65.2447 108.406 62.3344C103.556 55.8973 91.9496 57.2692 84.6602 58.5996C83.8495 57.2138 81.7707 53.3543 79.491 44.0485C77.3153 35.1653 67.2542 30.8831 59.4936 28.3817C57.304 27.6888 54.5947 26.7603 54.1443 26.1228C53.4999 23.1918 50.6797 23.0532 47.9081 22.9285C45.6838 22.8245 43.1478 22.7067 41.1245 21.3625C39.316 20.1568 41.3947 14.468 44.104 8.98706L41.8243 9.61068C41.6303 10.0334 41.4293 10.456 41.2353 10.8856C38.0133 18.0781 36.3503 22.6652 39.0526 24.4113C41.755 26.1574 44.7415 26.2752 47.2082 26.393C49.675 26.5108 50.853 26.6425 51.0054 27.4185C51.4073 29.4973 53.978 30.4189 58.177 31.7077C65.3348 33.9042 74.0378 37.251 76.2344 45.1433C79.9068 58.3086 82.1726 61.4267 82.6022 61.8217L83.2466 62.4176L84.1405 62.2305C90.6608 60.9902 101.255 59.5073 105.475 64.2538C107.131 66.1177 107.554 71.1067 107.88 76.068C108.247 82.2418 108.025 89.2333 109.903 95.3587L115.377 94.0975C112.654 87.8405 112.044 81.341 111.524 75.8254Z" fill="#2C2E70"/>
<path opacity="0.2" d="M111.524 75.8254C111.005 70.2821 110.582 65.2447 108.406 62.3344C103.556 55.8973 91.9496 57.2692 84.6602 58.5996C83.8495 57.2138 81.7707 53.3543 79.491 44.0485C77.3153 35.1653 67.2542 30.8831 59.4936 28.3817C57.304 27.6888 54.5947 26.7603 54.1443 26.1228C53.4999 23.1918 50.6797 23.0532 47.9081 22.9285C45.6838 22.8245 43.1478 22.7067 41.1245 21.3625C39.316 20.1568 41.3947 14.468 44.104 8.98706L41.8243 9.61068C41.6303 10.0334 41.4293 10.456 41.2353 10.8856C38.0133 18.0781 36.3503 22.6652 39.0526 24.4113C41.755 26.1574 44.7415 26.2752 47.2082 26.393C49.675 26.5108 50.853 26.6425 51.0054 27.4185C51.4073 29.4973 53.978 30.4189 58.177 31.7077C65.3348 33.9042 74.0378 37.251 76.2344 45.1433C79.9068 58.3086 82.1726 61.4267 82.6022 61.8217L83.2466 62.4176L84.1405 62.2305C90.6608 60.9902 101.255 59.5073 105.475 64.2538C107.131 66.1177 107.554 71.1067 107.88 76.068C108.247 82.2418 108.025 89.2333 109.903 95.3587L115.377 94.0975C112.654 87.8405 112.044 81.341 111.524 75.8254Z" fill="white"/>
<g opacity="0.5">
<path opacity="0.5" d="M122.161 41.3462L145.214 43.2863C145.872 48.5248 146.198 51.1509 146.856 56.3893L131.411 54.9204L130.822 47.8804L122.507 46.8341C122.355 44.6445 122.285 43.5427 122.161 41.3462Z" fill="white"/>
<path opacity="0.5" d="M121.274 48.8643L129.02 49.9175L129.609 57.5395L121.724 56.9298L121.274 48.8643Z" fill="white"/>
</g>
<path opacity="0.5" d="M158.691 25.7556C156.224 26.7326 154.984 27.2177 152.455 28.1947L153.529 35.2208C156.113 34.4101 157.395 34.0082 159.952 33.1906C159.467 30.218 159.211 28.7282 158.691 25.7556Z" fill="white"/>
<path opacity="0.5" d="M43.2238 69.8663C38.3735 71.3838 35.9136 72.1391 30.9593 73.6496C30.1486 78.0011 29.7398 80.1838 28.9221 84.5353C33.9665 83.2742 36.4679 82.6506 41.4292 81.3895C42.1429 76.7816 42.5032 74.4742 43.2238 69.8663Z" fill="white"/>
<path d="M118.502 38.5883C129.824 39.5122 141.142 40.4361 152.455 41.36H152.676C161.74 38.9117 170.789 36.4195 179.825 33.8834L179.132 31.0217C170.105 33.5901 161.063 36.1031 152.004 38.5606L139.663 37.5559C136.287 28.2293 133.053 18.8657 129.963 9.46518L126.498 8.48124C129.584 18.1266 132.804 27.7234 136.157 37.2718L117.996 35.782C113.146 37.542 110.686 38.4289 105.711 40.1889H84.6947C74.1532 38.5259 63.6163 36.8422 53.084 35.1376C57.1168 26.3099 61.0063 17.4244 64.7527 8.48124L62.4868 7.78833C58.5927 16.9302 54.5553 26.0027 50.3747 35.0059C40.9788 36.3918 31.5783 37.7522 22.1732 39.0872C21.9168 40.2097 21.7851 40.771 21.5288 41.8588C31.1048 40.473 40.6832 39.0872 50.2639 37.7014C53.9294 46.5429 57.9829 55.1766 62.1889 63.7757L46.8409 62.5423C36.1931 65.374 25.5269 68.1457 14.8422 70.8573C14.4403 72.5826 14.2393 73.4487 13.8444 75.1741C24.7878 72.4394 35.715 69.6493 46.6261 66.8037L64.0875 68.1895C67.2472 78.9297 70.684 89.5867 74.4812 100.112L78.1328 100.944C74.1555 90.2588 70.5593 79.387 67.2264 68.4529L82.9763 69.7278C95.5734 73.0676 108.201 76.3405 120.858 79.5464C129.838 76.6592 138.797 73.7028 147.736 70.6771C151.388 76.1442 153.279 78.8743 157.146 84.3413C164.805 88.776 172.521 93.1159 180.296 97.3612L186.019 95.9753C177.358 91.2404 168.75 86.4155 160.195 81.5004C156.73 76.65 155.025 74.1971 151.727 69.3259L156.723 67.6144C166.604 65.8267 176.483 64.0182 186.359 62.1889C185.964 60.4982 185.77 59.6529 185.382 57.9622C175.275 59.8561 165.165 61.727 155.053 63.5747C143.565 67.5428 132.048 71.4185 120.504 75.2018C113.52 73.4187 106.542 71.6102 99.5715 69.7763C102.246 60.7823 104.743 51.7398 107.062 42.6488C111.677 41.062 113.963 40.2166 118.502 38.5883ZM96.8207 69.0418C91.6446 67.656 89.0739 66.9631 83.9949 65.6188L65.6535 64.1152C61.3782 55.53 57.2415 46.9033 53.4998 38.0686C63.7641 39.7131 74.0285 41.3299 84.2928 42.919H104.228C101.904 51.682 99.4237 60.3897 96.786 69.0418H96.8207Z" fill="white"/>
<path opacity="0.1" d="M41.9697 98.4421C27.9914 101.5 14.0015 104.503 0 107.45L24.2519 9.00787C35.0244 6.07916 45.7784 3.07653 56.514 0L41.9697 98.4421Z" fill="black"/>
<path opacity="0.1" d="M121.474 98.4421C108.078 101.514 94.6818 104.517 81.2855 107.45C82.9023 74.6521 84.5191 41.8381 86.1359 9.00787C96.2986 6.0653 106.461 3.06268 116.624 0C118.236 32.8164 119.853 65.6304 121.474 98.4421Z" fill="black"/>
<path opacity="0.1" d="M200.959 98.4421C188.167 101.5 175.362 104.503 162.543 107.45L147.992 9.00787C157.582 6.0653 167.151 3.06268 176.7 0L200.959 98.4421Z" fill="black"/>
<path opacity="0.1" d="M161.074 33.8349C161.074 34.6041 159.148 35.2207 156.778 35.2207C154.409 35.2207 152.489 34.6041 152.489 33.8349C152.489 33.0658 154.409 32.4491 156.778 32.4491C159.148 32.4491 161.074 33.0727 161.074 33.8349Z" fill="black"/>
<path d="M157.139 33.3706C159.308 33.3706 161.075 29.1161 161.075 26.9473C161.075 25.9029 160.66 24.9011 159.922 24.1619C159.184 23.4227 158.183 23.0065 157.139 23.0046H156.446C155.928 23.0046 155.416 23.1067 154.938 23.3049C154.46 23.5031 154.026 23.7936 153.66 24.1598C153.295 24.526 153.005 24.9607 152.808 25.439C152.61 25.9173 152.509 26.4299 152.51 26.9473C152.51 29.1161 154.27 33.3706 156.446 33.3706H157.139ZM155.566 26.9473C155.618 26.7183 155.734 26.5086 155.9 26.3425C156.066 26.1764 156.276 26.0606 156.505 26.0084C156.734 25.9562 156.973 25.9698 157.195 26.0476C157.417 26.1254 157.612 26.2642 157.758 26.448C157.904 26.6319 157.996 26.8533 158.022 27.0868C158.048 27.3204 158.007 27.5564 157.905 27.7679C157.802 27.9794 157.642 28.1576 157.443 28.2821C157.244 28.4067 157.013 28.4724 156.778 28.4717C156.435 28.3908 156.128 28.1964 155.908 27.9198C155.688 27.6433 155.567 27.3007 155.566 26.9473Z" fill="#263238"/>
<path d="M156.425 23.0046C155.908 23.0046 155.395 23.1067 154.917 23.3049C154.439 23.5031 154.005 23.7936 153.64 24.1598C153.274 24.526 152.984 24.9607 152.787 25.439C152.589 25.9173 152.488 26.4299 152.489 26.9473C152.489 29.1161 154.249 33.3706 156.425 33.3706C158.601 33.3706 160.361 29.1161 160.361 26.9473C160.362 26.4299 160.261 25.9173 160.063 25.439C159.866 24.9607 159.576 24.526 159.21 24.1598C158.845 23.7936 158.411 23.5031 157.933 23.3049C157.455 23.1067 156.942 23.0046 156.425 23.0046ZM156.425 28.5133C156.114 28.5133 155.809 28.4209 155.55 28.2477C155.292 28.0746 155.09 27.8285 154.971 27.5407C154.852 27.2529 154.822 26.9363 154.883 26.631C154.944 26.3257 155.095 26.0454 155.315 25.8257C155.536 25.606 155.817 25.4568 156.122 25.3969C156.428 25.337 156.744 25.3691 157.032 25.4892C157.319 25.6093 157.564 25.812 157.736 26.0716C157.908 26.3311 157.999 26.6359 157.998 26.9473C157.998 27.1535 157.957 27.3577 157.878 27.5482C157.799 27.7386 157.683 27.9116 157.537 28.0571C157.391 28.2026 157.217 28.3178 157.026 28.3961C156.836 28.4744 156.631 28.5142 156.425 28.5133Z" fill="#2C2E70"/>
<path opacity="0.3" d="M156.425 23.0046C155.908 23.0046 155.395 23.1067 154.917 23.3049C154.439 23.5031 154.005 23.7936 153.64 24.1598C153.274 24.526 152.984 24.9607 152.787 25.439C152.589 25.9173 152.488 26.4299 152.489 26.9473C152.489 29.1161 154.249 33.3706 156.425 33.3706C158.601 33.3706 160.361 29.1161 160.361 26.9473C160.362 26.4299 160.261 25.9173 160.063 25.439C159.866 24.9607 159.576 24.526 159.21 24.1598C158.845 23.7936 158.411 23.5031 157.933 23.3049C157.455 23.1067 156.942 23.0046 156.425 23.0046ZM156.425 28.5133C156.114 28.5133 155.809 28.4209 155.55 28.2477C155.292 28.0746 155.09 27.8285 154.971 27.5407C154.852 27.2529 154.822 26.9363 154.883 26.631C154.944 26.3257 155.095 26.0454 155.315 25.8257C155.536 25.606 155.817 25.4568 156.122 25.3969C156.428 25.337 156.744 25.3691 157.032 25.4892C157.319 25.6093 157.564 25.812 157.736 26.0716C157.908 26.3311 157.999 26.6359 157.998 26.9473C157.998 27.1535 157.957 27.3577 157.878 27.5482C157.799 27.7386 157.683 27.9116 157.537 28.0571C157.391 28.2026 157.217 28.3178 157.026 28.3961C156.836 28.4744 156.631 28.5142 156.425 28.5133Z" fill="black"/>
<path opacity="0.1" d="M129.706 69.6099C129.706 70.3722 127.787 70.9958 125.417 70.9958C123.048 70.9958 121.121 70.3722 121.121 69.6099C121.121 68.8477 123.048 68.2241 125.417 68.2241C127.787 68.2241 129.706 68.8408 129.706 69.6099Z" fill="black"/>
<path d="M125.771 69.1388C127.946 69.1388 129.706 64.8913 129.706 62.7155C129.706 61.6717 129.292 60.6706 128.554 59.9325C127.816 59.1944 126.814 58.7798 125.771 58.7798H125.078C124.56 58.7789 124.048 58.88 123.569 59.0774C123.091 59.2748 122.656 59.5645 122.29 59.9301C121.924 60.2956 121.633 60.7298 121.435 61.2078C121.237 61.6857 121.135 62.1981 121.135 62.7155C121.135 64.8913 122.902 69.1388 125.078 69.1388H125.771ZM124.205 62.7155C124.257 62.4865 124.373 62.2768 124.539 62.1107C124.705 61.9446 124.915 61.8288 125.144 61.7766C125.373 61.7244 125.612 61.738 125.834 61.8158C126.055 61.8936 126.251 62.0324 126.397 62.2163C126.543 62.4001 126.634 62.6216 126.66 62.8551C126.686 63.0886 126.646 63.3246 126.543 63.5361C126.441 63.7476 126.281 63.9258 126.082 64.0504C125.882 64.1749 125.652 64.2406 125.417 64.2399C125.072 64.1613 124.764 63.9675 124.544 63.6904C124.323 63.4134 124.204 63.0695 124.205 62.7155Z" fill="#263238"/>
<path d="M125.064 58.7798C124.546 58.7789 124.034 58.88 123.556 59.0774C123.077 59.2748 122.643 59.5645 122.276 59.9301C121.91 60.2956 121.62 60.7298 121.421 61.2078C121.223 61.6857 121.121 62.1981 121.121 62.7155C121.121 64.8913 122.888 69.1388 125.064 69.1388C127.24 69.1388 129 64.8913 129 62.7155C129 62.1987 128.898 61.6869 128.7 61.2094C128.502 60.7319 128.212 60.298 127.847 59.9325C127.481 59.5671 127.048 59.2772 126.57 59.0794C126.093 58.8816 125.581 58.7798 125.064 58.7798ZM125.064 64.3231C124.753 64.3245 124.448 64.2334 124.188 64.0614C123.929 63.8894 123.726 63.6442 123.606 63.3569C123.486 63.0696 123.454 62.7532 123.513 62.4476C123.573 62.142 123.723 61.8611 123.942 61.6404C124.162 61.4198 124.442 61.2693 124.748 61.208C125.053 61.1468 125.369 61.1775 125.657 61.2963C125.945 61.4152 126.191 61.6168 126.364 61.8756C126.537 62.1344 126.63 62.4388 126.63 62.7502C126.621 63.1601 126.452 63.5503 126.16 63.8376C125.867 64.125 125.474 64.2867 125.064 64.2884V64.3231Z" fill="#2C2E70"/>
<path opacity="0.3" d="M125.064 58.7798C124.546 58.7789 124.034 58.88 123.556 59.0774C123.077 59.2748 122.643 59.5645 122.276 59.9301C121.91 60.2956 121.62 60.7298 121.421 61.2078C121.223 61.6857 121.121 62.1981 121.121 62.7155C121.121 64.8913 122.888 69.1388 125.064 69.1388C127.24 69.1388 129 64.8913 129 62.7155C129 62.1987 128.898 61.6869 128.7 61.2094C128.502 60.7319 128.212 60.298 127.847 59.9325C127.481 59.5671 127.048 59.2772 126.57 59.0794C126.093 58.8816 125.581 58.7798 125.064 58.7798ZM125.064 64.3231C124.753 64.3245 124.448 64.2334 124.188 64.0614C123.929 63.8894 123.726 63.6442 123.606 63.3569C123.486 63.0696 123.454 62.7532 123.513 62.4476C123.573 62.142 123.723 61.8611 123.942 61.6404C124.162 61.4198 124.442 61.2693 124.748 61.208C125.053 61.1468 125.369 61.1775 125.657 61.2963C125.945 61.4152 126.191 61.6168 126.364 61.8756C126.537 62.1344 126.63 62.4388 126.63 62.7502C126.621 63.1601 126.452 63.5503 126.16 63.8376C125.867 64.125 125.474 64.2867 125.064 64.2884V64.3231Z" fill="black"/>
<path opacity="0.1" d="M64.0945 72.936C64.0945 73.7051 62.1682 74.3218 59.7984 74.3218C57.4286 74.3218 55.5093 73.7051 55.5093 72.936C55.5093 72.1669 57.4286 71.5502 59.7984 71.5502C62.1682 71.5502 64.0945 72.1807 64.0945 72.936Z" fill="black"/>
<path d="M60.1587 72.4786C62.3275 72.4786 64.0944 68.2242 64.0944 66.0553C64.0944 65.0109 63.68 64.0091 62.9421 63.2699C62.2042 62.5307 61.2032 62.1145 60.1587 62.1127H59.4658C58.9484 62.1127 58.436 62.2147 57.958 62.4129C57.4801 62.6111 57.0459 62.9017 56.6803 63.2679C56.3148 63.6341 56.025 64.0688 55.8276 64.5471C55.6303 65.0254 55.5291 65.5379 55.53 66.0553C55.53 68.2242 57.29 72.4786 59.4658 72.4786H60.1587ZM58.5858 66.0553C58.638 65.8263 58.7538 65.6166 58.92 65.4505C59.0861 65.2844 59.2958 65.1686 59.5249 65.1164C59.7539 65.0642 59.9931 65.0778 60.2148 65.1556C60.4365 65.2334 60.6317 65.3722 60.7779 65.5561C60.9242 65.7399 61.0155 65.9614 61.0415 66.1949C61.0674 66.4284 61.0268 66.6645 60.9245 66.8759C60.8221 67.0874 60.6621 67.2656 60.4629 67.3902C60.2637 67.5147 60.0333 67.5804 59.7984 67.5798C59.4544 67.4988 59.1477 67.3044 58.9277 67.0278C58.7077 66.7513 58.5873 66.4087 58.5858 66.0553Z" fill="#263238"/>
<path d="M59.445 62.1127C58.9276 62.1127 58.4152 62.2147 57.9373 62.4129C57.4593 62.6111 57.0251 62.9017 56.6596 63.2679C56.294 63.6341 56.0043 64.0688 55.8069 64.5471C55.6095 65.0254 55.5084 65.5379 55.5093 66.0553C55.5093 68.2242 57.2693 72.4786 59.445 72.4786C61.6208 72.4786 63.3808 68.2242 63.3808 66.0553C63.3817 65.5379 63.2806 65.0254 63.0832 64.5471C62.8858 64.0688 62.596 63.6341 62.2305 63.2679C61.8649 62.9017 61.4307 62.6111 60.9528 62.4129C60.4748 62.2147 59.9625 62.1127 59.445 62.1127ZM59.445 67.656C59.1334 67.6573 58.8283 67.5661 58.5686 67.3938C58.3089 67.2215 58.1062 66.9759 57.9863 66.6882C57.8664 66.4005 57.8346 66.0837 57.8951 65.7779C57.9556 65.4722 58.1055 65.1912 58.3259 64.9709C58.5463 64.7505 58.8272 64.6005 59.133 64.54C59.4387 64.4796 59.7555 64.5113 60.0432 64.6312C60.3309 64.7511 60.5765 64.9538 60.7488 65.2135C60.9211 65.4732 61.0124 65.7783 61.011 66.09C61.002 66.4993 60.833 66.8887 60.5403 67.175C60.2476 67.4612 59.8544 67.6214 59.445 67.6213V67.656Z" fill="#2C2E70"/>
<path opacity="0.3" d="M59.445 62.1127C58.9276 62.1127 58.4152 62.2147 57.9373 62.4129C57.4593 62.6111 57.0251 62.9017 56.6596 63.2679C56.294 63.6341 56.0043 64.0688 55.8069 64.5471C55.6095 65.0254 55.5084 65.5379 55.5093 66.0553C55.5093 68.2242 57.2693 72.4786 59.445 72.4786C61.6208 72.4786 63.3808 68.2242 63.3808 66.0553C63.3817 65.5379 63.2806 65.0254 63.0832 64.5471C62.8858 64.0688 62.596 63.6341 62.2305 63.2679C61.8649 62.9017 61.4307 62.6111 60.9528 62.4129C60.4748 62.2147 59.9625 62.1127 59.445 62.1127ZM59.445 67.656C59.1334 67.6573 58.8283 67.5661 58.5686 67.3938C58.3089 67.2215 58.1062 66.9759 57.9863 66.6882C57.8664 66.4005 57.8346 66.0837 57.8951 65.7779C57.9556 65.4722 58.1055 65.1912 58.3259 64.9709C58.5463 64.7505 58.8272 64.6005 59.133 64.54C59.4387 64.4796 59.7555 64.5113 60.0432 64.6312C60.3309 64.7511 60.5765 64.9538 60.7488 65.2135C60.9211 65.4732 61.0124 65.7783 61.011 66.09C61.002 66.4993 60.833 66.8887 60.5403 67.175C60.2476 67.4612 59.8544 67.6214 59.445 67.6213V67.656Z" fill="black"/>
<path opacity="0.1" d="M50.0006 32.9065C50.0006 33.6756 48.0812 34.2923 45.7115 34.2923C43.3417 34.2923 41.4154 33.6756 41.4154 32.9065C41.4154 32.1373 43.3417 31.5206 45.7115 31.5206C48.0812 31.5206 50.0006 32.1443 50.0006 32.9065Z" fill="black"/>
<path d="M46.0649 32.4421C48.2407 32.4421 50.0007 28.1877 50.0007 26.0188C50.0016 25.5014 49.9004 24.9889 49.7031 24.5106C49.5057 24.0323 49.2159 23.5976 48.8503 23.2314C48.4848 22.8652 48.0506 22.5746 47.5727 22.3764C47.0947 22.1782 46.5823 22.0762 46.0649 22.0762H45.372C44.3263 22.0762 43.3235 22.4916 42.5841 23.2309C41.8447 23.9703 41.4293 24.9732 41.4293 26.0188C41.4293 28.1877 43.1963 32.4421 45.372 32.4421H46.0649ZM44.4989 26.0188C44.5511 25.7898 44.667 25.5801 44.8331 25.414C44.9993 25.2479 45.2089 25.1321 45.438 25.0799C45.6671 25.0277 45.9062 25.0413 46.1279 25.1191C46.3496 25.1969 46.5448 25.3357 46.6911 25.5196C46.8373 25.7034 46.9287 25.9249 46.9546 26.1584C46.9805 26.3919 46.94 26.628 46.8376 26.8394C46.7353 27.0509 46.5753 27.2292 46.376 27.3537C46.1768 27.4782 45.9465 27.5439 45.7115 27.5433C45.3664 27.4646 45.0582 27.2708 44.8378 26.9937C44.6175 26.7167 44.4979 26.3729 44.4989 26.0188Z" fill="#263238"/>
<path d="M45.3581 22.0762C44.3124 22.0762 43.3096 22.4916 42.5702 23.2309C41.8308 23.9703 41.4154 24.9732 41.4154 26.0188C41.4154 28.1877 43.1823 32.4421 45.3581 32.4421C47.5338 32.4421 49.2938 28.1877 49.2938 26.0188C49.2938 24.9744 48.8794 23.9726 48.1415 23.2334C47.4036 22.4942 46.4025 22.078 45.3581 22.0762ZM45.3581 27.6195C45.0464 27.6208 44.7413 27.5296 44.4816 27.3573C44.2219 27.185 44.0192 26.9394 43.8993 26.6517C43.7794 26.364 43.7477 26.0472 43.8081 25.7414C43.8686 25.4357 44.0186 25.1547 44.2389 24.9344C44.4593 24.714 44.7402 24.564 45.046 24.5035C45.3518 24.4431 45.6686 24.4748 45.9563 24.5947C46.244 24.7146 46.4896 24.9173 46.6619 25.177C46.8342 25.4367 46.9254 25.7418 46.9241 26.0535C46.9133 26.4622 46.7437 26.8507 46.4514 27.1365C46.1591 27.4224 45.7669 27.5832 45.3581 27.5848V27.6195Z" fill="#2C2E70"/>
<path opacity="0.3" d="M45.3581 22.0762C44.3124 22.0762 43.3096 22.4916 42.5702 23.2309C41.8308 23.9703 41.4154 24.9732 41.4154 26.0188C41.4154 28.1877 43.1823 32.4421 45.3581 32.4421C47.5338 32.4421 49.2938 28.1877 49.2938 26.0188C49.2938 24.9744 48.8794 23.9726 48.1415 23.2334C47.4036 22.4942 46.4025 22.078 45.3581 22.0762ZM45.3581 27.6195C45.0464 27.6208 44.7413 27.5296 44.4816 27.3573C44.2219 27.185 44.0192 26.9394 43.8993 26.6517C43.7794 26.364 43.7477 26.0472 43.8081 25.7414C43.8686 25.4357 44.0186 25.1547 44.2389 24.9344C44.4593 24.714 44.7402 24.564 45.046 24.5035C45.3518 24.4431 45.6686 24.4748 45.9563 24.5947C46.244 24.7146 46.4896 24.9173 46.6619 25.177C46.8342 25.4367 46.9254 25.7418 46.9241 26.0535C46.9133 26.4622 46.7437 26.8507 46.4514 27.1365C46.1591 27.4224 45.7669 27.5832 45.3581 27.5848V27.6195Z" fill="black"/>
<path opacity="0.1" d="M117.213 35.2138C117.213 35.976 115.294 36.5997 112.924 36.5997C110.554 36.5997 108.628 35.976 108.628 35.2138C108.628 34.4516 110.554 33.828 112.924 33.828C115.294 33.828 117.213 34.4447 117.213 35.2138Z" fill="black"/>
<path d="M113.277 34.7427C115.453 34.7427 117.213 30.4951 117.213 28.3194C117.214 27.802 117.113 27.2894 116.916 26.8111C116.718 26.3328 116.428 25.8981 116.063 25.5319C115.697 25.1657 115.263 24.8752 114.785 24.677C114.307 24.4787 113.795 24.3767 113.277 24.3767H112.585C111.539 24.3767 110.536 24.7921 109.797 25.5315C109.057 26.2709 108.642 27.2737 108.642 28.3194C108.642 30.4951 110.409 34.7427 112.585 34.7427H113.277ZM111.711 28.3194C111.764 28.0903 111.88 27.8807 112.046 27.7145C112.212 27.5484 112.421 27.4326 112.651 27.3804C112.88 27.3283 113.119 27.3419 113.34 27.4197C113.562 27.4974 113.757 27.6363 113.904 27.8201C114.05 28.004 114.141 28.2254 114.167 28.4589C114.193 28.6924 114.153 28.9285 114.05 29.14C113.948 29.3514 113.788 29.5297 113.589 29.6542C113.389 29.7787 113.159 29.8444 112.924 29.8438C112.579 29.7651 112.271 29.5713 112.05 29.2943C111.83 29.0172 111.71 28.6734 111.711 28.3194Z" fill="#263238"/>
<path d="M112.571 24.3767C111.525 24.3767 110.522 24.7921 109.783 25.5315C109.043 26.2709 108.628 27.2737 108.628 28.3194C108.628 30.4951 110.395 34.7427 112.571 34.7427C114.746 34.7427 116.506 30.4951 116.506 28.3194C116.506 27.2749 116.092 26.2731 115.354 25.5339C114.616 24.7947 113.615 24.3785 112.571 24.3767ZM112.571 29.92C112.259 29.9214 111.954 29.8301 111.694 29.6578C111.434 29.4855 111.232 29.2399 111.112 28.9522C110.992 28.6645 110.96 28.3477 111.021 28.0419C111.081 27.7362 111.231 27.4553 111.451 27.2349C111.672 27.0145 111.953 26.8646 112.259 26.8041C112.564 26.7436 112.881 26.7754 113.169 26.8953C113.456 27.0152 113.702 27.2178 113.874 27.4776C114.047 27.7373 114.138 28.0424 114.137 28.354C114.126 28.7628 113.956 29.1512 113.664 29.4371C113.372 29.7229 112.979 29.8837 112.571 29.8854V29.92Z" fill="#2C2E70"/>
<path opacity="0.3" d="M112.571 24.3767C111.525 24.3767 110.522 24.7921 109.783 25.5315C109.043 26.2709 108.628 27.2737 108.628 28.3194C108.628 30.4951 110.395 34.7427 112.571 34.7427C114.746 34.7427 116.506 30.4951 116.506 28.3194C116.506 27.2749 116.092 26.2731 115.354 25.5339C114.616 24.7947 113.615 24.3785 112.571 24.3767ZM112.571 29.92C112.259 29.9214 111.954 29.8301 111.694 29.6578C111.434 29.4855 111.232 29.2399 111.112 28.9522C110.992 28.6645 110.96 28.3477 111.021 28.0419C111.081 27.7362 111.231 27.4553 111.451 27.2349C111.672 27.0145 111.953 26.8646 112.259 26.8041C112.564 26.7436 112.881 26.7754 113.169 26.8953C113.456 27.0152 113.702 27.2178 113.874 27.4776C114.047 27.7373 114.138 28.0424 114.137 28.354C114.126 28.7628 113.956 29.1512 113.664 29.4371C113.372 29.7229 112.979 29.8837 112.571 29.8854V29.92Z" fill="black"/>
</svg>
