<svg width="172" height="156" viewBox="0 0 172 156" fill="none" xmlns="http://www.w3.org/2000/svg">
<path d="M121.469 98.4039H116.055V155.039H121.469V98.4039Z" fill="#263238"/>
<path opacity="0.2" d="M121.469 98.4039H116.055V155.039H121.469V98.4039Z" fill="black"/>
<path d="M160.234 98.4039H154.819V155.039H160.234V98.4039Z" fill="#263238"/>
<path opacity="0.2" d="M160.234 98.4039H154.819V155.039H160.234V98.4039Z" fill="black"/>
<path d="M69.7813 98.4039H64.3667V155.039H69.7813V98.4039Z" fill="#263238"/>
<path d="M31.0172 98.4039H25.6025V155.039H31.0172V98.4039Z" fill="#263238"/>
<path d="M171.33 96.3095V100.499C171.331 100.659 171.3 100.818 171.24 100.967C171.179 101.116 171.089 101.251 170.976 101.365C170.863 101.479 170.728 101.569 170.58 101.631C170.432 101.692 170.273 101.724 170.112 101.724H20.4777C20.1527 101.724 19.841 101.595 19.6112 101.365C19.3813 101.135 19.2522 100.824 19.2522 100.499V96.3095C19.2522 95.9845 19.3813 95.6728 19.6112 95.4429C19.841 95.2131 20.1527 95.084 20.4777 95.084H170.112C170.273 95.084 170.432 95.1157 170.58 95.1774C170.728 95.2391 170.863 95.3295 170.976 95.4434C171.089 95.5573 171.179 95.6925 171.24 95.8411C171.3 95.9898 171.331 96.1489 171.33 96.3095Z" fill="#263238"/>
<path opacity="0.1" d="M171.33 96.3095V100.499C171.331 100.659 171.3 100.818 171.24 100.967C171.179 101.116 171.089 101.251 170.976 101.365C170.863 101.479 170.728 101.569 170.58 101.631C170.432 101.692 170.273 101.724 170.112 101.724H20.4777C20.1527 101.724 19.841 101.595 19.6112 101.365C19.3813 101.135 19.2522 100.824 19.2522 100.499V96.3095C19.2522 95.9845 19.3813 95.6728 19.6112 95.4429C19.841 95.2131 20.1527 95.084 20.4777 95.084H170.112C170.273 95.084 170.432 95.1157 170.58 95.1774C170.728 95.2391 170.863 95.3295 170.976 95.4434C171.089 95.5573 171.179 95.6925 171.24 95.8411C171.3 95.9898 171.331 96.1489 171.33 96.3095Z" fill="white"/>
<path opacity="0.2" d="M61.4924 96.3095V100.499C61.4934 100.659 61.4626 100.818 61.4018 100.967C61.341 101.116 61.2515 101.251 61.1383 101.365C61.025 101.479 60.8904 101.569 60.7422 101.631C60.5939 101.692 60.4349 101.724 60.2743 101.724H20.4777C20.1527 101.724 19.841 101.595 19.6112 101.365C19.3813 101.135 19.2522 100.824 19.2522 100.499V96.3095C19.2522 95.9845 19.3813 95.6728 19.6112 95.4429C19.841 95.2131 20.1527 95.084 20.4777 95.084H60.2743C60.4349 95.084 60.5939 95.1157 60.7422 95.1774C60.8904 95.2391 61.025 95.3295 61.1383 95.4434C61.2515 95.5573 61.341 95.6925 61.4018 95.8411C61.4626 95.9898 61.4934 96.1489 61.4924 96.3095Z" fill="white"/>
<path d="M103.086 30.9103C103.086 30.9103 105.864 31.4748 105.857 31.9798C105.849 32.4849 104.772 36.5032 104.275 36.9934C103.757 37.4163 103.194 37.78 102.596 38.0778L103.339 44.562L99.5432 45.5425L99.4912 38.6349C99.4912 38.6349 98.1543 36.5997 99.1124 34.6092C100.071 32.6186 103.086 30.9103 103.086 30.9103Z" fill="#EBB376"/>
<path opacity="0.2" d="M103.086 30.9103C103.086 30.9103 105.864 31.4748 105.857 31.9798C105.849 32.4849 104.772 36.5032 104.275 36.9934C103.757 37.4163 103.194 37.78 102.596 38.0778L103.339 44.562L99.5432 45.5425L99.4912 38.6349C99.4912 38.6349 98.1543 36.5997 99.1124 34.6092C100.071 32.6186 103.086 30.9103 103.086 30.9103Z" fill="black"/>
<path d="M92.9996 31.6531C95.5101 33.4505 96.4608 43.3811 97.4561 44.822C98.4514 46.263 98.8376 42.0813 98.8376 42.0813L103.896 41.8362C103.896 41.8362 104.587 47.7782 101.668 51.945C98.7485 56.1118 93.371 53.0294 90.3183 46.2853C87.2656 39.5411 92.9996 31.6531 92.9996 31.6531Z" fill="#2C2E70"/>
<path opacity="0.2" d="M101.667 51.9599C101.135 52.8001 100.322 53.4239 99.3724 53.7202C96.4459 54.5595 92.6876 51.4919 90.3257 46.2927C89.6165 44.6747 89.318 42.9066 89.4567 41.1454C89.7835 36.0947 92.9996 31.6605 92.9996 31.6605C95.5027 33.458 96.4608 43.3885 97.4561 44.8295C98.4514 46.2704 98.8376 42.0887 98.8376 42.0887L103.896 41.8436C103.896 41.8436 104.586 47.7559 101.667 51.9599Z" fill="white"/>
<path d="M126.007 148.755L131.021 147.381L130.122 135.163L125.124 136.537L126.007 148.755Z" fill="#EBB376"/>
<path d="M131.326 146.72L125.51 147.121C125.461 147.122 125.414 147.133 125.369 147.152C125.325 147.172 125.285 147.2 125.252 147.235C125.219 147.271 125.193 147.312 125.176 147.358C125.159 147.403 125.151 147.451 125.153 147.5L125.191 152.12C125.206 152.361 125.316 152.586 125.497 152.746C125.678 152.906 125.915 152.988 126.156 152.974C128.184 152.796 129.127 152.61 131.697 152.417C133.978 152.353 136.252 152.125 138.501 151.733C140.617 151.243 140.075 149.164 139.132 149.178C136.904 149.223 133.777 147.99 132.232 146.95C131.965 146.772 131.645 146.691 131.326 146.72Z" fill="#263238"/>
<path d="M133.22 147.47C132.752 147.493 132.284 147.463 131.823 147.381C131.801 147.378 131.78 147.368 131.763 147.354C131.746 147.34 131.733 147.321 131.727 147.299C131.723 147.276 131.725 147.252 131.731 147.228C131.737 147.205 131.749 147.184 131.764 147.166C131.92 147.039 133.324 145.94 133.992 146.141C134.065 146.165 134.131 146.208 134.183 146.265C134.235 146.323 134.272 146.392 134.289 146.467C134.34 146.579 134.358 146.702 134.341 146.823C134.324 146.944 134.272 147.058 134.193 147.151C133.92 147.377 133.573 147.491 133.22 147.47ZM133.903 146.393C133.554 146.289 132.729 146.779 132.15 147.203C133.086 147.322 133.769 147.247 134 146.987C134.044 146.926 134.072 146.854 134.081 146.779C134.091 146.703 134.08 146.627 134.052 146.557C134.043 146.519 134.025 146.484 133.999 146.455C133.973 146.426 133.94 146.405 133.903 146.393Z" fill="#2C2E70"/>
<path d="M131.853 147.381H131.801C131.765 147.359 131.738 147.325 131.727 147.284C131.727 147.24 131.504 145.747 131.987 145.205C132.05 145.135 132.128 145.08 132.216 145.044C132.303 145.008 132.397 144.992 132.492 144.997C132.594 144.994 132.695 145.025 132.779 145.086C132.862 145.146 132.923 145.232 132.952 145.331C133.108 145.888 132.41 147.024 131.92 147.366L131.853 147.381ZM132.425 145.271C132.376 145.274 132.329 145.286 132.285 145.308C132.242 145.33 132.203 145.36 132.172 145.398C131.918 145.913 131.839 146.498 131.949 147.062C132.385 146.627 132.649 146.049 132.692 145.435C132.692 145.361 132.625 145.279 132.455 145.271H132.425Z" fill="#2C2E70"/>
<path opacity="0.2" d="M125.124 136.537L130.122 135.17L130.635 142.152L125.606 143.274L125.124 136.537Z" fill="black"/>
<path d="M119.464 148.577L114.733 150.731L113.529 145.658L111.91 138.817L116.627 136.656L118.246 143.489L119.464 148.577Z" fill="#EBB376"/>
<path opacity="0.2" d="M118.246 143.489L113.529 145.658L111.91 138.817L116.627 136.656L118.246 143.489Z" fill="black"/>
<path d="M119.657 147.879L113.982 149.201C113.886 149.219 113.801 149.274 113.745 149.355C113.689 149.436 113.668 149.535 113.685 149.632L114.428 154.192C114.484 154.426 114.63 154.63 114.834 154.758C115.038 154.887 115.284 154.932 115.52 154.883C117.495 154.385 118.409 154.051 120.905 153.449C123.143 153.018 125.35 152.432 127.508 151.696C129.528 150.872 128.659 148.896 127.73 149.067C125.286 149.324 122.816 148.943 120.563 147.96C120.277 147.839 119.96 147.81 119.657 147.879Z" fill="#263238"/>
<path d="M121.647 148.317C121.191 148.413 120.725 148.458 120.259 148.451C120.235 148.451 120.213 148.446 120.193 148.434C120.173 148.422 120.157 148.404 120.147 148.384C120.138 148.363 120.133 148.34 120.133 148.317C120.133 148.294 120.138 148.271 120.147 148.25C120.288 148.101 121.491 146.764 122.167 146.883C122.245 146.895 122.317 146.926 122.379 146.974C122.44 147.022 122.487 147.086 122.516 147.158C122.582 147.261 122.617 147.381 122.617 147.504C122.617 147.626 122.582 147.746 122.516 147.849C122.295 148.108 121.985 148.275 121.647 148.317ZM122.153 147.143C121.789 147.091 121.053 147.715 120.548 148.22C121.499 148.22 122.153 148.005 122.338 147.715C122.377 147.649 122.397 147.573 122.397 147.496C122.397 147.419 122.377 147.344 122.338 147.277C122.322 147.243 122.298 147.213 122.268 147.19C122.239 147.167 122.204 147.151 122.167 147.143H122.153Z" fill="#2C2E70"/>
<path d="M120.281 148.443C120.274 148.446 120.267 148.448 120.259 148.448C120.251 148.448 120.243 148.446 120.237 148.443C120.199 148.429 120.168 148.403 120.147 148.369C120.147 148.324 119.679 146.883 120.073 146.267C120.124 146.188 120.192 146.122 120.271 146.073C120.351 146.024 120.441 145.994 120.534 145.984C120.635 145.961 120.741 145.974 120.835 146.02C120.928 146.066 121.003 146.142 121.046 146.237C121.291 146.764 120.786 147.997 120.348 148.413C120.341 148.424 120.331 148.433 120.319 148.438C120.307 148.443 120.294 148.445 120.281 148.443ZM120.511 146.274C120.416 146.296 120.333 146.355 120.281 146.438C120.118 146.988 120.134 147.575 120.326 148.116C120.701 147.621 120.88 147.005 120.831 146.386C120.831 146.319 120.742 146.244 120.571 146.267L120.511 146.274Z" fill="#2C2E70"/>
<path d="M84.3985 79.1891L82.8684 62.3064L54.6439 62.9675C54.6439 62.9675 51.309 86.4978 53.7378 90.8206C58.068 98.5378 86.4931 94.1555 93.1407 94.8166C95.8591 96.2649 110.387 144.41 110.387 144.41L118.52 141.127C118.52 141.127 109.771 100.491 107.78 92.8483C105.032 82.1601 93.7349 82.3532 84.3985 79.1891Z" fill="#2C2E70"/>
<path opacity="0.6" d="M84.3985 79.1891L82.8684 62.3064L54.6439 62.9675C54.6439 62.9675 51.309 86.4978 53.7378 90.8206C58.068 98.5378 86.4931 94.1555 93.1407 94.8166C95.8591 96.2649 110.387 144.41 110.387 144.41L118.52 141.127C118.52 141.127 109.771 100.491 107.78 92.8483C105.032 82.1601 93.7349 82.3532 84.3985 79.1891Z" fill="white"/>
<path d="M131.132 140.273L123.957 140.941C123.957 140.941 115.148 96.1312 114.473 95.9455C113.247 95.5964 109.682 95.2028 107.788 94.6903C94.4554 91.229 61.6704 84.8563 61.6704 84.8563L73.755 73.2471C73.755 73.2471 128.577 79.8278 129.795 92.6923C130.375 98.8422 131.132 140.273 131.132 140.273Z" fill="#2C2E70"/>
<path opacity="0.6" d="M131.132 140.273L123.957 140.941C123.957 140.941 115.148 96.1312 114.473 95.9455C113.247 95.5964 109.682 95.2028 107.788 94.6903C94.4554 91.229 61.6704 84.8563 61.6704 84.8563L73.755 73.2471C73.755 73.2471 128.577 79.8278 129.795 92.6923C130.375 98.8422 131.132 140.273 131.132 140.273Z" fill="white"/>
<path opacity="0.2" d="M112.534 95.9752C111.308 95.6261 109.682 95.1953 107.766 94.6902C108.3 94.9724 106.755 88.0054 105.218 86.1931C102.173 82.5982 89.9247 80.6522 85.5276 79.9466C81.8585 79.3598 69.5288 78.268 69.5288 78.268C69.5288 78.268 91.2914 76.3888 107.691 80.8899C115.795 83.1182 114.354 91.073 112.534 95.9752Z" fill="black"/>
<path d="M83.5147 65.7305C85.1636 56.2679 87.9712 43.604 93.0739 31.7571C90.3738 30.614 87.5934 29.6707 84.7551 28.9347C80.6005 27.8112 76.3846 26.9284 72.1284 26.2905C69.1955 25.9787 66.2427 25.8968 63.2971 26.0454C63.2971 26.0454 56.9391 37.9294 53.7156 65.7305H83.5147Z" fill="#2C2E70"/>
<path d="M97.6565 33.1385C97.6387 33.1983 97.6343 33.2613 97.6437 33.323C97.6531 33.3847 97.676 33.4435 97.7108 33.4954C97.7455 33.5472 97.7913 33.5907 97.8449 33.6227C97.8984 33.6547 97.9584 33.6745 98.0205 33.6807L102.811 34.3566C102.945 34.3722 103.079 34.3396 103.191 34.2647C103.303 34.1898 103.384 34.0776 103.42 33.9481L105.812 24.6414C105.831 24.5785 105.837 24.5124 105.829 24.4471C105.822 24.3818 105.801 24.3187 105.769 24.2617C105.736 24.2047 105.692 24.1549 105.639 24.1155C105.587 24.076 105.527 24.0478 105.463 24.0324L100.672 23.3639C100.529 23.3598 100.39 23.4048 100.276 23.4913C100.163 23.5778 100.082 23.7006 100.048 23.8393L97.6565 33.1385Z" fill="#263238"/>
<path opacity="0.5" d="M100.591 23.8245L98.1694 33.2203C98.1468 33.2739 98.1372 33.332 98.1417 33.39C98.1461 33.4479 98.1644 33.504 98.1949 33.5534C98.2255 33.6029 98.2674 33.6443 98.3172 33.6742C98.3671 33.7042 98.4234 33.7217 98.4814 33.7254L102.544 34.2973C102.819 34.3345 103.339 34.2528 103.406 33.9854L105.835 24.5599C105.901 24.2925 105.463 24.0177 105.196 23.9731L101.133 23.4086C101.007 23.3974 100.881 23.4339 100.781 23.511C100.68 23.588 100.613 23.6999 100.591 23.8245Z" fill="white"/>
<path d="M74.3342 34.3047C74.3342 34.3047 66.9067 28.3998 66.0005 24.9089C65.0943 21.4179 69.4172 19.0634 75.5077 20.4078C81.5983 21.7522 87.2283 25.6071 85.4308 30.0636C83.6334 34.5201 80.4841 35.6045 80.4841 35.6045C80.4841 35.6045 79.1769 33.0494 74.3342 34.3047Z" fill="#2C2E70"/>
<path d="M89.7317 38.219L94.0099 35.4114C94.0099 35.4114 95.8297 29.93 96.2382 29.3952C96.6467 28.8604 101.163 30.0859 101.66 30.1379C102.158 30.1899 100.836 35.7828 100.234 36.2656C99.6325 36.7484 97.6643 36.8153 97.6643 36.8153L92.7993 41.1009L89.7317 38.219Z" fill="#EBB376"/>
<path opacity="0.2" d="M74.3342 34.3047C74.3342 34.3047 66.9067 28.3998 66.0005 24.9089C65.0943 21.4179 69.4172 19.0634 75.5077 20.4078C81.5983 21.7522 87.2283 25.6071 85.4308 30.0636C83.6334 34.5201 80.4841 35.6045 80.4841 35.6045C80.4841 35.6045 79.1769 33.0494 74.3342 34.3047Z" fill="white"/>
<path d="M79.177 15.6765C78.0555 19.7394 75.3816 26.8772 71.5564 28.0582C71.5564 28.0582 74.3714 32.6632 78.5902 33.0494C81.2716 33.2945 82.7571 30.2715 82.7571 30.2715C80.0237 29.759 81.071 27.7536 83.225 25.2357L79.177 15.6765Z" fill="#EBB376"/>
<path opacity="0.2" d="M80.826 19.576L83.2176 25.2358C82.7049 25.815 82.245 26.4389 81.8435 27.1001C79.1548 27.3006 77.2236 23.0373 77.8847 21.3067C78.1223 20.5936 80.3506 20.1554 80.826 19.576Z" fill="black"/>
<path d="M88.4688 9.19233C85.9064 10.247 86.3966 13.0472 90.6451 18.1499C93.267 15.9217 94.6857 10.7595 93.3116 9.11063C91.9375 7.46173 90.7045 8.27132 88.4688 9.19233Z" fill="#263238"/>
<path d="M77.9293 11.376C77.038 16.9243 76.2358 20.1256 78.3675 23.5571C81.5688 28.7118 88.8848 27.7239 91.4251 22.5544C93.6904 17.9048 94.7749 9.61567 89.9396 6.21388C88.8697 5.46635 87.6269 5.00409 86.3285 4.87081C85.0302 4.73752 83.7194 4.93762 82.52 5.45219C81.3206 5.96676 80.2722 6.77877 79.4741 7.81144C78.676 8.84412 78.1545 10.0633 77.959 11.3537L77.9293 11.376Z" fill="#EBB376"/>
<path d="M85.7651 14.711C85.6611 15.1566 85.8171 15.5726 86.1142 15.6394C86.4113 15.7063 86.7159 15.3943 86.8124 14.9487C86.909 14.503 86.7604 14.0945 86.4782 14.0277C86.1959 13.9608 85.8914 14.2802 85.7651 14.711Z" fill="#263238"/>
<path d="M90.823 15.8548C90.7265 16.3004 90.8824 16.7164 91.1721 16.7832C91.4618 16.8501 91.7812 16.5456 91.9149 16.0925C92.0486 15.6394 91.8554 15.2309 91.5658 15.1715C91.2761 15.112 90.9196 15.4166 90.823 15.8548Z" fill="#263238"/>
<path d="M89.1521 15.6989C89.3796 17.1792 89.8094 18.6213 90.4297 19.9845C90.075 20.135 89.6915 20.2057 89.3065 20.1916C88.9214 20.1774 88.5442 20.0789 88.2014 19.9028L89.1521 15.6989Z" fill="#D58745"/>
<path d="M84.7402 12.8096C84.6818 12.8017 84.6272 12.7757 84.5843 12.7353C84.5593 12.7105 84.5396 12.6809 84.5261 12.6484C84.5126 12.6159 84.5056 12.5811 84.5056 12.5459C84.5056 12.5107 84.5126 12.4759 84.5261 12.4434C84.5396 12.4109 84.5593 12.3813 84.5843 12.3565C84.9021 12.0712 85.2845 11.8674 85.6985 11.7626C86.1125 11.6578 86.5458 11.6552 86.9611 11.7549C87.0256 11.774 87.0805 11.8167 87.115 11.8745C87.1494 11.9323 87.1607 12.001 87.1468 12.0668C87.1231 12.1327 87.0757 12.1874 87.014 12.2203C86.9522 12.2533 86.8804 12.2621 86.8125 12.2451C86.4852 12.1721 86.1452 12.1786 85.8209 12.2639C85.4965 12.3492 85.1973 12.5108 84.9482 12.7353C84.9206 12.7614 84.8878 12.7815 84.852 12.7942C84.8162 12.807 84.7782 12.8122 84.7402 12.8096Z" fill="#263238"/>
<path d="M93.512 14.6663C93.4621 14.6555 93.4163 14.631 93.3795 14.5956C93.3428 14.5602 93.3167 14.5152 93.304 14.4658C93.2341 14.1412 93.0887 13.8375 92.8797 13.5795C92.6706 13.3214 92.4038 13.1162 92.1008 12.9803C92.0676 12.9686 92.0371 12.9505 92.0109 12.927C91.9848 12.9035 91.9635 12.875 91.9483 12.8433C91.9331 12.8116 91.9244 12.7772 91.9225 12.7421C91.9206 12.7069 91.9257 12.6718 91.9374 12.6386C91.9491 12.6055 91.9672 12.5749 91.9907 12.5488C92.0142 12.5226 92.0426 12.5013 92.0744 12.4862C92.1061 12.471 92.1405 12.4622 92.1756 12.4603C92.2107 12.4585 92.2459 12.4635 92.2791 12.4752C92.6702 12.6451 93.0147 12.9065 93.2835 13.2374C93.5524 13.5683 93.7378 13.9591 93.824 14.3767C93.8398 14.4446 93.8284 14.516 93.7924 14.5756C93.7563 14.6353 93.6983 14.6785 93.6309 14.6961H93.512V14.6663Z" fill="#263238"/>
<path d="M81.1973 7.0236C83.5592 8.47197 82.6233 11.1607 77.6172 15.5058C75.389 12.8616 74.8096 7.56582 76.4288 6.16945C78.048 4.77308 79.1324 5.7535 81.1973 7.0236Z" fill="#263238"/>
<path d="M74.3419 15.1714C74.3819 15.8697 74.5594 16.5532 74.864 17.1829C75.1686 17.8125 75.5944 18.3758 76.117 18.8406C77.5283 20.0736 79.036 19.004 79.3183 17.2586C79.5708 15.6839 79.1475 13.1363 77.4094 12.5793C77.0272 12.4611 76.6215 12.441 76.2295 12.5209C75.8375 12.6007 75.4719 12.7778 75.1664 13.036C74.8608 13.2942 74.6252 13.6251 74.4811 13.9983C74.337 14.3715 74.2891 14.7749 74.3419 15.1714Z" fill="#EBB376"/>
<path d="M76.8447 5.86478C76.8447 5.86478 76.3471 3.68853 80.254 1.62368C84.1608 -0.441162 90.4816 1.30429 94.589 4.28272C98.6964 7.26115 93.6977 10.9675 91.6997 11.0715L92.2568 10.3807C90.1167 10.4841 87.9798 10.1191 85.9954 9.31114L87.2655 8.8952C87.2655 8.8952 79.3107 7.43941 76.8447 5.86478Z" fill="#263238"/>
<path d="M87.2505 21.106C86.8713 21.6622 86.5337 22.2456 86.2404 22.8515C86.1245 22.8237 86.0104 22.789 85.8987 22.7475C84.3612 22.2721 83.8041 21.5368 83.6704 20.8758C83.5896 20.3663 83.6784 19.8444 83.923 19.3903C84.7405 20.109 85.7031 20.6435 86.7454 20.9575C87.0499 21.054 87.2505 21.106 87.2505 21.106Z" fill="#263238"/>
<path d="M86.7309 20.9351L86.4189 21.4402C84.9705 20.9871 84.0124 20.4746 83.7004 19.8953C83.7459 19.711 83.8158 19.5336 83.9084 19.3679C84.726 20.0867 85.6886 20.6211 86.7309 20.9351Z" fill="white"/>
<path d="M85.8989 22.74C84.3614 22.2647 83.8043 21.5293 83.6707 20.8683C84.2525 21.0611 84.7956 21.3553 85.275 21.7373C85.5833 21.9975 85.8017 22.3484 85.8989 22.74Z" fill="#A24E3F"/>
<path d="M83.2103 50.5636C83.1859 50.5626 83.162 50.5569 83.1398 50.5466C83.1176 50.5364 83.0977 50.5219 83.0812 50.504C83.0646 50.486 83.0517 50.465 83.0433 50.4421C83.0349 50.4192 83.0311 50.3949 83.0321 50.3705C83.656 41.2643 80.6107 35.3298 80.581 35.2703C80.5692 35.2489 80.5618 35.2253 80.5592 35.201C80.5566 35.1767 80.5588 35.1521 80.5657 35.1286C80.5726 35.1052 80.584 35.0833 80.5994 35.0643C80.6148 35.0453 80.6338 35.0295 80.6553 35.0178C80.6998 34.9966 80.7508 34.9932 80.7978 35.0084C80.8448 35.0236 80.8841 35.0562 80.9078 35.0995C80.9078 35.1589 84.0348 41.1826 83.4034 50.3927C83.3996 50.4407 83.3774 50.4853 83.3414 50.5171C83.3053 50.549 83.2584 50.5656 83.2103 50.5636Z" fill="white"/>
<path d="M71.9651 47.325C71.9333 47.3318 71.9004 47.3318 71.8685 47.325C71.8276 47.299 71.7985 47.258 71.7874 47.2108C71.7763 47.1636 71.7841 47.114 71.8091 47.0725C75.1441 41.3979 74.1636 33.703 74.1562 33.6435C74.152 33.6195 74.1528 33.5949 74.1584 33.5713C74.1641 33.5476 74.1746 33.5253 74.1892 33.5058C74.2038 33.4863 74.2222 33.47 74.2434 33.4579C74.2646 33.4459 74.288 33.4383 74.3122 33.4356C74.3604 33.4292 74.4091 33.4419 74.448 33.4711C74.4869 33.5003 74.5128 33.5435 74.5202 33.5916C74.5202 33.6733 75.5303 41.4796 72.1285 47.2582C72.109 47.282 72.0838 47.3006 72.0553 47.3122C72.0267 47.3239 71.9957 47.3283 71.9651 47.325Z" fill="white"/>
<path d="M83.0766 50.2219C83.0766 50.2219 83.6708 50.2219 83.5668 51.2172L82.6978 51.1355C82.6978 51.1355 82.6012 50.3556 83.0766 50.2219Z" fill="white"/>
<path d="M72.0245 46.7978C72.0245 46.7978 72.5147 47.132 71.9354 47.9045L71.2297 47.3845C71.2297 47.3845 71.5566 46.6418 72.0245 46.7978Z" fill="white"/>
<path d="M64.0324 26.0527C66.892 26.7137 73.7475 38.568 77.4019 40.7517C81.0562 42.9354 91.2022 35.909 91.2022 35.909L94.6708 40.2244C94.6708 40.2244 86.4634 47.4662 79.281 47.6519C72.0987 47.8375 61.9155 37.6693 60.4003 33.9407C58.8851 30.2121 60.5637 25.2505 64.0324 26.0527Z" fill="#2C2E70"/>
<path opacity="0.2" d="M64.0324 26.0527C66.892 26.7137 73.7475 38.568 77.4019 40.7517C81.0562 42.9354 91.2022 35.909 91.2022 35.909L94.6708 40.2244C94.6708 40.2244 86.4634 47.4662 79.281 47.6519C72.0987 47.8375 61.9155 37.6693 60.4003 33.9407C58.8851 30.2121 60.5637 25.2505 64.0324 26.0527Z" fill="white"/>
<path d="M56.9985 56.7581C56.9985 56.7581 62.7623 61.066 64.8197 70.7663C66.8771 80.4667 74.6388 101.902 56.9985 93.4351L57.459 91.4296C57.459 91.4296 63.0817 96.2278 65.1316 92.9968C67.1816 89.7659 66.1195 72.4301 57.8378 63.22L56.9985 56.7581Z" fill="#263238"/>
<path d="M45.1221 52.7471C45.1221 52.7471 47.2092 48.5282 50.3213 48.4317C53.4334 48.3351 54.4881 49.219 54.2876 52.2568L52.8987 52.3534C52.8987 52.3534 54.3099 49.8132 50.9601 49.7092C50.0123 49.6916 49.0835 49.9766 48.3088 50.5229C47.5341 51.0692 46.9537 51.8483 46.6521 52.7471H45.1221Z" fill="#263238"/>
<path d="M28.3136 95.0839C28.3136 95.0839 25.6026 78.3052 32.6587 73.2174C32.6587 73.2174 31.5372 69.6967 37.2192 58.1321C39.5737 53.334 41.5717 52.0119 43.5549 51.9227L57.3106 51.3582C58.0084 51.3278 58.6925 51.5593 59.2284 52.0073C59.7643 52.4553 60.1135 53.0874 60.2073 53.7796C61.1729 60.9546 63.5051 81.7516 60.2742 95.0839H28.3136Z" fill="#263238"/>
<path opacity="0.1" d="M28.3136 95.0839C28.3136 95.0839 25.6026 78.3052 32.6587 73.2174C32.6587 73.2174 31.5372 69.6967 37.2192 58.1321C39.5737 53.334 41.5717 52.0119 43.5549 51.9227L57.3106 51.3582C58.0084 51.3278 58.6925 51.5593 59.2284 52.0073C59.7643 52.4553 60.1135 53.0874 60.2073 53.7796C61.1729 60.9546 63.5051 81.7516 60.2742 95.0839H28.3136Z" fill="white"/>
<path d="M50.4105 69.6969C50.7278 69.7092 51.0436 69.6484 51.3337 69.5192C51.6238 69.39 51.8803 69.1959 52.0834 68.9518C52.2865 68.7078 52.4309 68.4203 52.5053 68.1117C52.5797 67.803 52.5821 67.4813 52.5125 67.1715C51.8737 64.4382 50.0911 60.4422 45.1221 59.6995C39.7817 58.8973 36.4096 63.7252 34.8424 66.7556C34.7128 67.0043 34.6484 67.2818 34.6553 67.5622C34.6622 67.8426 34.7402 68.1167 34.882 68.3587C35.0238 68.6007 35.2247 68.8027 35.4659 68.9458C35.7071 69.0889 35.9807 69.1685 36.2611 69.1769L50.4105 69.6969Z" fill="#263238"/>
<path d="M30.5567 77.4288C30.9057 76.2181 48.6798 76.9386 49.8682 77.4288C51.0566 77.919 49.623 90.2561 48.5683 91.4297C47.5136 92.6032 30.1778 91.8233 28.8558 91.4297C27.5337 91.036 27.7193 87.3148 30.5567 77.4288Z" fill="#263238"/>
<path opacity="0.2" d="M50.4105 69.6969C50.7278 69.7092 51.0436 69.6484 51.3337 69.5192C51.6238 69.39 51.8803 69.1959 52.0834 68.9518C52.2865 68.7078 52.4309 68.4203 52.5053 68.1117C52.5797 67.803 52.5821 67.4813 52.5125 67.1715C51.8737 64.4382 50.0911 60.4422 45.1221 59.6995C39.7817 58.8973 36.4096 63.7252 34.8424 66.7556C34.7128 67.0043 34.6484 67.2818 34.6553 67.5622C34.6622 67.8426 34.7402 68.1167 34.882 68.3587C35.0238 68.6007 35.2247 68.8027 35.4659 68.9458C35.7071 69.0889 35.9807 69.1685 36.2611 69.1769L50.4105 69.6969Z" fill="white"/>
<path opacity="0.2" d="M30.5567 77.4288C30.9057 76.2181 48.6798 76.9386 49.8682 77.4288C51.0566 77.919 49.623 90.2561 48.5683 91.4297C47.5136 92.6032 30.1778 91.8233 28.8558 91.4297C27.5337 91.036 27.7193 87.3148 30.5567 77.4288Z" fill="white"/>
<path d="M59.0561 81.9074H59.0115C58.914 81.8945 58.8257 81.8434 58.7658 81.7655C58.706 81.6875 58.6795 81.589 58.6921 81.4915C59.6428 74.3314 58.1276 56.9213 57.8157 55.6735C57.7262 55.1263 57.4459 54.6285 57.0244 54.2682C56.603 53.9079 56.0676 53.7085 55.5131 53.7052C53.9831 53.6087 41.75 53.7052 41.6311 53.7052C41.5332 53.7033 41.4399 53.6636 41.3706 53.5943C41.3014 53.5251 41.2617 53.4317 41.2598 53.3338C41.2598 53.2354 41.2989 53.1409 41.3685 53.0712C41.4382 53.0016 41.5326 52.9625 41.6311 52.9625C42.1362 52.9625 54.0054 52.8659 55.5651 52.9625C56.275 52.9823 56.9568 53.2443 57.4972 53.7051C58.0376 54.1658 58.4042 54.7975 58.5361 55.4953C58.8332 56.6762 60.4301 74.064 59.4274 81.5881C59.4148 81.6773 59.3702 81.7589 59.3019 81.8177C59.2335 81.8764 59.1462 81.9083 59.0561 81.9074Z" fill="#263238"/>
<path d="M47.833 80.1471H47.7588C43.4805 79.2855 31.1583 79.7608 31.032 79.7608C30.9335 79.7608 30.8391 79.7217 30.7694 79.6521C30.6998 79.5824 30.6606 79.488 30.6606 79.3895C30.6606 79.291 30.6998 79.1965 30.7694 79.1269C30.8391 79.0572 30.9335 79.0181 31.032 79.0181C31.5371 79.0181 43.5622 78.5427 47.9296 79.4192C48.0252 79.4406 48.1087 79.4982 48.1627 79.5799C48.2167 79.6617 48.237 79.7611 48.2193 79.8574C48.2 79.9438 48.1505 80.0205 48.0796 80.0736C48.0088 80.1267 47.9214 80.1528 47.833 80.1471Z" fill="#263238"/>
<path d="M51.3242 67.0228C51.2445 67.0245 51.1665 67 51.1021 66.9531C51.0377 66.9061 50.9904 66.8393 50.9677 66.7629C50.1507 64.2598 48.1155 60.0781 43.6442 60.4569C39.0614 60.8283 37.0931 65.8122 37.0708 65.8642C37.0306 65.9488 36.9599 66.0151 36.8728 66.0498C36.7857 66.0845 36.6887 66.0849 36.6013 66.0511C36.5139 66.0173 36.4425 65.9516 36.4015 65.8674C36.3605 65.7831 36.3528 65.6865 36.3801 65.5968C36.4692 65.374 38.5415 60.1227 43.5847 59.7216C48.628 59.3205 50.7894 63.8216 51.6733 66.5401C51.7037 66.6336 51.6958 66.7355 51.6513 66.8232C51.6067 66.9109 51.5291 66.9774 51.4356 67.008L51.3242 67.0228Z" fill="#263238"/>
<path d="M26.0556 115.643H6.85547V129.065H26.0556V115.643Z" fill="#263238"/>
<path d="M0.68335 112.613V155.046H27.1772V112.613H0.68335ZM24.2879 125.151H15.8652V120.04C15.8652 119.473 16.0905 118.929 16.4917 118.528C16.8929 118.127 17.437 117.901 18.0043 117.901H22.1488C22.7162 117.901 23.2603 118.127 23.6614 118.528C24.0626 118.929 24.2879 119.473 24.2879 120.04V125.151Z" fill="#2C2E70"/>
<path opacity="0.6" d="M0.68335 112.613V155.046H27.1772V112.613H0.68335ZM24.2879 125.151H15.8652V120.04C15.8652 119.473 16.0905 118.929 16.4917 118.528C16.8929 118.127 17.437 117.901 18.0043 117.901H22.1488C22.7162 117.901 23.2603 118.127 23.6614 118.528C24.0626 118.929 24.2879 119.473 24.2879 120.04V125.151Z" fill="white"/>
<path opacity="0.4" d="M12.0474 112.605H0.68335V155.039H12.0474V112.605Z" fill="white"/>
<path d="M27.8011 110.362H0V114.462H27.8011V110.362Z" fill="#2C2E70"/>
<path opacity="0.2" d="M12.8273 110.362H0V114.462H12.8273V110.362Z" fill="white"/>
</svg>
