<svg width="194" height="138" viewBox="0 0 194 138" fill="none" xmlns="http://www.w3.org/2000/svg">
<path d="M191.837 116.434H86.9723V83.7476H179.406L188.033 90.7586C189.225 91.7263 190.186 92.9487 190.844 94.3361C191.502 95.7235 191.842 97.2408 191.837 98.7764V116.434Z" fill="#2C2E70"/>
<path opacity="0.5" d="M191.837 116.434H86.9723V83.7476H179.406L188.033 90.7586C189.225 91.7263 190.186 92.9487 190.844 94.3361C191.502 95.7235 191.842 97.2408 191.837 98.7764V116.434Z" fill="black"/>
<path d="M86.3695 113.486C86.3695 101.556 91.7951 91.886 98.4263 91.886H85.634C78.9605 91.886 73.5771 101.531 73.5771 113.486C73.5771 125.44 79.0027 135.092 85.634 135.092H98.4505C91.7649 135.092 86.3695 125.416 86.3695 113.486Z" fill="#263238"/>
<path d="M98.4504 135.086C105.122 135.086 110.531 125.415 110.531 113.486C110.531 101.557 105.122 91.886 98.4504 91.886C91.7782 91.886 86.3694 101.557 86.3694 113.486C86.3694 125.415 91.7782 135.086 98.4504 135.086Z" fill="#263238"/>
<path d="M99.421 130.329C104.152 130.329 107.987 122.788 107.987 113.486C107.987 104.184 104.152 96.6425 99.421 96.6425C94.6899 96.6425 90.8546 104.184 90.8546 113.486C90.8546 122.788 94.6899 130.329 99.421 130.329Z" fill="white"/>
<path d="M16.7351 113.486C16.7351 101.556 22.1607 91.886 28.7919 91.886H15.9996C9.32614 91.886 3.94275 101.531 3.94275 113.486C3.94275 125.44 9.36834 135.092 15.9996 135.092H28.8161C22.1426 135.092 16.7351 125.416 16.7351 113.486Z" fill="#263238"/>
<path d="M28.816 135.086C35.4881 135.086 40.8969 125.415 40.8969 113.486C40.8969 101.557 35.4881 91.886 28.816 91.886C22.1438 91.886 16.735 101.557 16.735 113.486C16.735 125.415 22.1438 135.086 28.816 135.086Z" fill="#263238"/>
<path d="M169.158 113.486C169.158 101.556 174.583 91.886 181.215 91.886H168.422C161.755 91.886 156.365 101.531 156.365 113.486C156.365 125.44 161.791 135.092 168.422 135.092H181.239C174.571 135.092 169.158 125.416 169.158 113.486Z" fill="#263238"/>
<path d="M181.239 135.086C187.911 135.086 193.32 125.415 193.32 113.486C193.32 101.557 187.911 91.886 181.239 91.886C174.567 91.886 169.158 101.557 169.158 113.486C169.158 125.415 174.567 135.086 181.239 135.086Z" fill="#263238"/>
<path d="M182.215 130.329C186.947 130.329 190.782 122.788 190.782 113.486C190.782 104.184 186.947 96.6425 182.215 96.6425C177.484 96.6425 173.649 104.184 173.649 113.486C173.649 122.788 177.484 130.329 182.215 130.329Z" fill="white"/>
<path d="M72.0941 119.514H56.595L55.7269 118.67C54.8353 117.777 53.6254 117.274 52.3631 117.272H13.6244C12.362 117.274 11.1521 117.777 10.2605 118.67L9.72999 119.195H8.31934C7.22329 119.195 6.13803 118.978 5.12593 118.558C4.11384 118.137 3.19485 117.52 2.42179 116.743C1.64872 115.966 1.03681 115.044 0.621219 114.03C0.205628 113.016 -0.00545267 111.929 0.000107036 110.833V98.0833H87.9067L80.9137 113.287C80.2687 115.11 79.074 116.688 77.4943 117.803C75.9147 118.919 74.0279 119.517 72.0941 119.514Z" fill="#2C2E70"/>
<path opacity="0.2" d="M72.0941 119.514H56.595L55.7269 118.67C54.8353 117.777 53.6254 117.274 52.3631 117.272H13.6244C12.362 117.274 11.1521 117.777 10.2605 118.67L9.72999 119.195H8.31934C7.22329 119.195 6.13803 118.978 5.12593 118.558C4.11384 118.137 3.19485 117.52 2.42179 116.743C1.64872 115.966 1.03681 115.044 0.621219 114.03C0.205628 113.016 -0.00545267 111.929 0.000107036 110.833V98.0833H87.9067L80.9137 113.287C80.2687 115.11 79.074 116.688 77.4943 117.803C75.9147 118.919 74.0279 119.517 72.0941 119.514Z" fill="black"/>
<path d="M163.6 43.7249C163.546 43.7259 163.494 43.7112 163.449 43.6827C163.414 43.6633 163.384 43.6372 163.36 43.606C163.336 43.5747 163.318 43.5389 163.308 43.5006C163.298 43.4624 163.295 43.4226 163.301 43.3834C163.307 43.3443 163.32 43.3066 163.34 43.2727L167.56 36.0386C167.578 36.0002 167.603 35.9658 167.634 35.9378C167.666 35.9097 167.703 35.8885 167.743 35.8757C167.783 35.8628 167.826 35.8585 167.868 35.8631C167.91 35.8677 167.95 35.881 167.986 35.9022C168.023 35.9234 168.055 35.952 168.079 35.9862C168.104 36.0203 168.121 36.0593 168.13 36.1006C168.139 36.1419 168.139 36.1845 168.13 36.2257C168.121 36.267 168.104 36.3059 168.079 36.34L163.859 43.5741C163.833 43.6197 163.795 43.6576 163.749 43.684C163.704 43.7105 163.652 43.7245 163.6 43.7249Z" fill="#263238"/>
<path d="M185.857 79.7145V71.4917C185.857 67.1694 179.575 46.7752 170.936 42.9532C162.297 39.1311 141.397 37.4311 128.231 38.1304C115.065 38.8297 97.4858 66.3676 97.4858 66.3676L99.3969 90.0473C102.073 90.0473 110.598 89.2395 111.846 112.666C111.929 114.318 112.645 115.874 113.845 117.012C115.045 118.15 116.636 118.782 118.29 118.779H164.383C165.932 118.778 167.428 118.217 168.595 117.2C169.763 116.183 170.524 114.778 170.737 113.245C171.943 104.895 175.09 90.0292 182.68 90.0292C188.003 90.0292 191.819 94.5867 191.819 99.8133C191.82 94.0713 190.426 88.415 187.756 83.3316L185.857 79.7145Z" fill="#2C2E70"/>
<path d="M80.0034 38.1304C56.0284 38.1304 28.8643 66.3675 28.8643 66.3675H97.51C97.51 66.3675 115.071 38.8357 128.255 38.1304H80.0034Z" fill="#2C2E70"/>
<path opacity="0.4" d="M81.4743 38.1304C61.2791 38.1304 40.0952 58.1689 33.916 64.4806C33.7625 64.6368 33.6586 64.8349 33.6175 65.05C33.5764 65.2651 33.5999 65.4876 33.6849 65.6894C33.77 65.8911 33.913 66.0632 34.0957 66.1839C34.2784 66.3046 34.4928 66.3685 34.7118 66.3675H90.089C92.3179 66.3738 94.5168 65.8541 96.5071 64.8506C98.4973 63.8471 100.223 62.3881 101.543 60.5923C107.499 52.478 118.971 38.6307 128.255 38.1304H81.4743Z" fill="white"/>
<path d="M97.51 66.3676L72.1544 86.3759L3.9186 86.1589C3.9186 86.1589 0.00012207 91.8558 0.00012207 98.0831H87.9067C89.3475 94.2671 94.3993 90.0472 99.421 90.0472C99.421 82.9457 97.51 66.3676 97.51 66.3676Z" fill="#2C2E70"/>
<path opacity="0.2" d="M80.9137 80.4801C80.8416 80.4794 80.7722 80.4529 80.718 80.4053C80.6638 80.3577 80.6284 80.2923 80.6183 80.2209C80.608 80.1427 80.6287 80.0636 80.676 80.0004C80.7233 79.9373 80.7935 79.8953 80.8715 79.8833C86.9581 78.8966 92.6536 76.247 97.3292 72.2272C98.2535 71.4497 98.8552 70.3558 99.0168 69.1588C99.1784 67.9618 98.8884 66.7475 98.2033 65.7527C98.1782 65.7204 98.16 65.6833 98.1497 65.6437C98.1395 65.6041 98.1374 65.5628 98.1436 65.5224C98.1497 65.482 98.1641 65.4432 98.1858 65.4085C98.2074 65.3738 98.2359 65.3439 98.2695 65.3205C98.303 65.2972 98.341 65.2809 98.3811 65.2727C98.4212 65.2645 98.4625 65.2646 98.5026 65.2729C98.5426 65.2811 98.5806 65.2975 98.6141 65.3209C98.6476 65.3443 98.676 65.3743 98.6976 65.4091C99.466 66.5276 99.7909 67.8919 99.6093 69.2367C99.4277 70.5815 98.7525 71.8107 97.715 72.6854C92.9576 76.7798 87.1587 79.4758 80.962 80.4741L80.9137 80.4801Z" fill="black"/>
<path d="M3.91858 86.1589C3.91858 86.1589 15.9031 72.191 28.8642 66.3676H97.51L72.1544 86.3759L3.91858 86.1589Z" fill="#2C2E70"/>
<path d="M56.9989 86.1589H11.9846V87.4671H56.9989V86.1589Z" fill="#263238"/>
<path d="M56.0645 83.5426L58.4759 81.1312C59.0181 80.5897 59.7044 80.2151 60.4532 80.0521L78.6651 76.0854C79.3052 75.9454 79.9701 75.9661 80.6002 76.1457L81.5768 76.417C82.227 76.6002 82.8203 76.9449 83.3014 77.419C83.7825 77.8932 84.1357 78.4814 84.3283 79.1289C84.5209 79.7763 84.5464 80.462 84.4026 81.122C84.2588 81.782 83.9504 82.3949 83.5059 82.9036L79.5875 87.3827C78.9119 88.1533 77.9672 88.6364 76.947 88.7331L59.2656 90.3366C58.6816 90.3923 58.0925 90.3185 57.5402 90.1206C56.988 89.9226 56.4862 89.6053 56.0705 89.1912C55.3228 88.4419 54.9024 87.4268 54.9012 86.3682C54.9001 85.3095 55.3184 84.2936 56.0645 83.5426Z" fill="white"/>
<path d="M13.2566 84.8207L11.2612 81.0891C10.9803 80.5665 10.5638 80.1292 10.0555 79.8231C9.57275 79.5335 9.02355 79.3731 8.46079 79.3573C7.89804 79.3414 7.34068 79.4707 6.84238 79.7327L5.32924 80.5285C4.5861 80.9215 4.02112 81.5835 3.74979 82.3792L2.82744 85.1101C2.67406 85.5597 2.62001 86.0372 2.66902 86.5098C2.71803 86.9823 2.86894 87.4386 3.11134 87.8472C3.35374 88.2558 3.68186 88.6069 4.07308 88.8764C4.46431 89.146 4.90933 89.3274 5.37747 89.4083L9.54312 90.1257C10.2226 90.2433 10.9218 90.1442 11.5417 89.8423C12.1617 89.5404 12.671 89.0512 12.9974 88.4438L13.2747 87.9314C13.53 87.4521 13.6619 86.9168 13.6588 86.3737C13.6556 85.8307 13.5174 85.297 13.2566 84.8207Z" fill="white"/>
<path opacity="0.4" d="M111.532 67.1694H175C175.538 67.1697 176.068 67.0441 176.549 66.8026C177.03 66.5611 177.447 66.2104 177.769 65.7787C178.09 65.3469 178.305 64.846 178.398 64.316C178.491 63.786 178.458 63.2416 178.303 62.7265C176.856 57.9037 174.083 50.3621 169.918 46.516C169.454 46.0923 168.886 45.8008 168.272 45.672C160.79 44.0866 148.764 43.0316 139.842 42.4167C135.798 42.14 131.742 42.7424 127.953 44.1827C124.163 45.623 120.731 47.8669 117.892 50.76C114.497 54.1893 111.432 57.9292 108.735 61.9307C108.397 62.4377 108.203 63.0269 108.173 63.6355C108.144 64.2441 108.28 64.8493 108.567 65.3868C108.854 65.9243 109.281 66.3739 109.803 66.6878C110.325 67.0017 110.923 67.1681 111.532 67.1694Z" fill="white"/>
<path d="M70.4966 105.149C70.4966 107.126 68.4711 108.735 65.9753 108.735C63.4795 108.735 61.454 107.126 61.454 105.149C61.454 103.171 63.4735 101.568 65.9753 101.568C68.4771 101.568 70.4966 103.171 70.4966 105.149Z" fill="#263238"/>
<path d="M34.0668 83.422C35.5498 83.422 36.2732 84.9412 35.6825 86.81C35.0917 88.6788 33.4158 90.204 31.9267 90.204C30.4377 90.204 29.7203 88.6848 30.3111 86.81C30.9019 84.9351 32.5838 83.422 34.0668 83.422Z" fill="#263238"/>
<path d="M3.64732 105.149C3.64732 107.126 3.04447 108.735 2.37532 108.735C1.70616 108.735 1.09729 107.126 1.09729 105.149C1.09729 103.171 1.70013 101.568 2.37532 101.568C3.0505 101.568 3.64732 103.171 3.64732 105.149Z" fill="#263238"/>
<path d="M109.579 66.5967V64.5651C109.578 63.9821 109.708 63.4063 109.958 62.8797C110.208 62.353 110.572 61.8888 111.024 61.5209C111.477 61.153 112.005 60.8906 112.572 60.7529C113.138 60.6153 113.728 60.6057 114.299 60.725L122.028 62.3346C122.91 62.5187 123.702 63.001 124.271 63.7003C124.839 64.3996 125.15 65.2734 125.15 66.1747V66.5967C125.15 67.6365 124.738 68.6338 124.003 69.3696C123.268 70.1054 122.272 70.5196 121.232 70.5212H113.503C112.463 70.5212 111.464 70.1077 110.728 69.3717C109.992 68.6357 109.579 67.6375 109.579 66.5967Z" fill="#263238"/>
<path d="M150.241 43.2607C150.241 43.2607 149.21 43.1582 147.413 43.0015C155.359 59.2782 153.333 67.1694 153.333 67.1694H159.398C159.458 57.2587 150.241 43.2607 150.241 43.2607Z" fill="#263238"/>
<path opacity="0.2" d="M83.2287 59.881C83.1058 61.1602 82.5112 62.3479 81.5606 63.2127C80.61 64.0775 79.3715 64.5574 78.0864 64.559H46.841C44.5623 64.559 43.7364 62.015 45.3882 60.1221C48.3687 56.7281 51.6055 53.568 55.0699 50.6695C60.9536 45.7142 68.2601 43.14 75.0903 43.6163L77.6704 43.8031C78.7841 43.89 79.8398 44.3342 80.6806 45.0696C81.5214 45.805 82.1021 46.7922 82.3365 47.8844C83.2482 51.8137 83.5492 55.86 83.2287 59.881Z" fill="#2C2E70"/>
<path opacity="0.2" d="M154.057 114.493C153.977 114.493 153.9 114.461 153.844 114.404C153.787 114.348 153.755 114.271 153.755 114.191C153.755 108.09 156.866 82.9338 157.68 79.166C158.469 75.5067 158.469 71.4194 157.68 68.7609C157.657 68.6842 157.666 68.6017 157.705 68.5316C157.743 68.4615 157.808 68.4095 157.885 68.3871C157.961 68.3664 158.043 68.3761 158.113 68.4143C158.183 68.4526 158.235 68.5163 158.258 68.5921C159.072 71.3411 159.072 75.5429 158.258 79.2926C157.445 83.0423 154.346 108.115 154.346 114.191C154.346 114.269 154.316 114.344 154.262 114.4C154.208 114.456 154.135 114.489 154.057 114.493Z" fill="black"/>
<path opacity="0.2" d="M153.255 79.4855H145.906C145.767 79.4901 145.628 79.4625 145.501 79.4049C145.374 79.3474 145.262 79.2614 145.173 79.1536C145.085 79.0458 145.022 78.9191 144.99 78.7833C144.959 78.6475 144.958 78.5062 144.99 78.3703L145.141 77.5203C145.201 77.2143 145.364 76.9378 145.601 76.7355C145.838 76.5331 146.137 76.4167 146.449 76.405H153.797C153.937 76.4005 154.075 76.4281 154.203 76.4856C154.33 76.5432 154.442 76.6292 154.53 76.7369C154.619 76.8447 154.681 76.9714 154.713 77.1072C154.745 77.2431 154.745 77.3844 154.714 77.5203L154.563 78.3703C154.502 78.6762 154.34 78.9527 154.103 79.1551C153.865 79.3575 153.567 79.4739 153.255 79.4855Z" fill="black"/>
<path d="M133.343 134.176L136.984 134.115L138.033 125.675L134.398 125.736L133.343 134.176Z" fill="#B55B52"/>
<path d="M150.723 133.904L154.256 132.825L152.061 124.825L148.529 125.911L150.723 133.904Z" fill="#B55B52"/>
<path d="M154.147 131.764L150.205 133.796C150.141 133.83 150.09 133.885 150.062 133.952C150.033 134.019 150.028 134.093 150.048 134.163L150.892 137.365C150.912 137.442 150.95 137.514 151.002 137.575C151.055 137.636 151.12 137.684 151.194 137.716C151.268 137.748 151.348 137.763 151.428 137.76C151.508 137.756 151.587 137.734 151.657 137.696C152.917 137.021 153.804 136.49 155.401 135.64C156.384 135.134 159.398 133.711 160.754 133.006C162.111 132.301 161.598 130.872 160.983 131.041C158.21 131.782 155.944 131.999 154.774 131.692C154.563 131.636 154.34 131.662 154.147 131.764Z" fill="#263238"/>
<path d="M137.057 133.693L133.084 133.759C133.012 133.761 132.943 133.787 132.888 133.833C132.834 133.879 132.796 133.942 132.782 134.013L132.113 137.256C132.096 137.334 132.096 137.415 132.115 137.493C132.134 137.571 132.17 137.644 132.221 137.706C132.273 137.768 132.337 137.817 132.411 137.849C132.484 137.882 132.564 137.898 132.644 137.895C134.078 137.847 136.146 137.732 137.949 137.702C140.053 137.672 140.668 137.756 143.139 137.702C144.628 137.702 145.02 136.159 144.393 136.032C141.536 135.429 140.42 135.429 137.943 133.946C137.674 133.787 137.369 133.7 137.057 133.693Z" fill="#263238"/>
<path d="M142.585 23.4513C143.411 25.1091 144.345 26.8634 145.279 28.5333C146.214 30.2031 147.202 31.867 148.257 33.4283C148.529 33.8142 148.782 34.2181 149.059 34.5858L149.74 35.5142C149.879 35.695 149.957 35.7794 149.982 35.8216C150.006 35.8638 150.018 35.9241 150.193 35.9362C150.833 35.8204 151.428 35.5281 151.911 35.0922C152.242 34.839 152.58 34.5496 152.911 34.2422C153.243 33.9347 153.575 33.5791 153.864 33.2957L156.269 34.634C156.069 35.1664 155.831 35.6841 155.558 36.1833C155.289 36.6941 154.978 37.1821 154.629 37.6422C154.259 38.1449 153.834 38.6058 153.363 39.0167C152.804 39.5141 152.156 39.9007 151.452 40.1561C150.571 40.4776 149.615 40.5301 148.704 40.3068C147.85 40.0974 147.059 39.6837 146.401 39.1011C146.255 38.9782 146.116 38.8474 145.985 38.7092L145.792 38.5103L145.653 38.3536L145.123 37.7507C144.767 37.3468 144.441 36.9309 144.104 36.545C142.816 34.8892 141.628 33.158 140.547 31.3606C140.017 30.4684 139.492 29.5521 139.01 28.6538C138.528 27.7556 138.057 26.8453 137.611 25.8265L142.585 23.4513Z" fill="#B55B52"/>
<path d="M136.062 23.4754C135.079 26.8151 141.982 35.912 141.982 35.912L148.945 31.4329C147.634 28.5395 146.018 25.7949 144.122 23.2463C141.27 19.6112 137.135 19.8041 136.062 23.4754Z" fill="#2C2E70"/>
<g opacity="0.2">
<path opacity="0.2" d="M136.062 23.4754C135.079 26.8151 141.982 35.912 141.982 35.912L148.945 31.4329C147.634 28.5395 146.018 25.7949 144.122 23.2463C141.27 19.6112 137.135 19.8041 136.062 23.4754Z" fill="black"/>
</g>
<path opacity="0.2" d="M140.306 27.3939C141.735 27.9967 143.845 31.4571 144.942 34.0252L141.988 35.9241C140.335 33.7176 138.85 31.3901 137.545 28.9613C138.479 27.9244 139.546 27.0744 140.306 27.3939Z" fill="black"/>
<path d="M153.448 33.9468L155.968 29.8716L158.168 33.3862C157.639 34.3239 156.779 35.0309 155.757 35.3695L153.448 33.9468Z" fill="#B55B52"/>
<path d="M159.482 29.9138V31.1737C159.482 31.5672 159.346 31.9486 159.096 32.2528L158.18 33.3861L155.98 29.8716L158.252 29.0457C158.391 28.9965 158.54 28.9814 158.686 29.0016C158.832 29.0218 158.971 29.0767 159.092 29.1617C159.212 29.2468 159.311 29.3594 159.379 29.4903C159.446 29.6211 159.482 29.7663 159.482 29.9138Z" fill="#B55B52"/>
<path d="M157.023 35.1223L153.056 35.062L155.25 26.8452L159.217 26.9055L157.023 35.1223Z" fill="#2C2E70"/>
<path d="M157.427 35.1223L153.46 35.062L155.654 26.8452L159.621 26.9055L157.427 35.1223Z" fill="#263238"/>
<path opacity="0.2" d="M138.033 125.681L137.491 130.028L133.849 130.088L134.392 125.736L138.033 125.681Z" fill="black"/>
<path opacity="0.2" d="M148.529 125.911L152.067 124.825L153.195 128.949L149.656 130.034L148.529 125.911Z" fill="black"/>
<path d="M120.701 25.2297C123.673 38.022 123.028 50.7118 123.354 53.4488L142.759 52.0019C144.622 31.2099 140.209 20.6541 140.209 20.6541C140.209 20.6541 138.962 20.413 137.268 20.2381C136.737 20.1839 136.158 20.1356 135.561 20.1055C135.23 20.1055 134.898 20.0754 134.555 20.0693C131.797 20.1122 129.043 20.3135 126.308 20.6722C125.789 20.7385 125.265 20.8108 124.753 20.8952L123.378 21.1484H123.324C122.88 21.2367 122.458 21.4136 122.084 21.6685C121.709 21.9234 121.39 22.2511 121.146 22.632C120.901 23.0129 120.735 23.4393 120.659 23.8856C120.583 24.3319 120.597 24.789 120.701 25.2297Z" fill="#2C2E70"/>
<g opacity="0.2">
<path opacity="0.2" d="M120.701 25.2297C123.673 38.022 123.028 50.7118 123.354 53.4488L142.759 52.0019C144.622 31.2099 140.209 20.6541 140.209 20.6541C140.209 20.6541 138.962 20.413 137.268 20.2381C136.737 20.1839 136.158 20.1356 135.561 20.1055C135.23 20.1055 134.898 20.0754 134.555 20.0693C131.797 20.1122 129.043 20.3135 126.308 20.6722C125.789 20.7385 125.265 20.8108 124.753 20.8952L123.378 21.1484H123.324C122.88 21.2367 122.458 21.4136 122.084 21.6685C121.709 21.9234 121.39 22.2511 121.146 22.632C120.901 23.0129 120.735 23.4393 120.659 23.8856C120.583 24.3319 120.597 24.789 120.701 25.2297Z" fill="black"/>
</g>
<path opacity="0.2" d="M123.987 27.9304L121.756 30.7939C121.759 30.83 121.759 30.8663 121.756 30.9024C122.07 32.8436 122.311 34.7426 122.492 36.5752C124.632 33.9408 124.318 29.1843 123.987 27.9304Z" fill="black"/>
<path d="M127.242 15.0175C127.706 16.9707 127.676 19.1409 126.278 20.6963C127.827 22.0225 129.834 23.5357 132.993 23.4151C136.152 23.2945 135.447 21.1605 134.525 20.0814C131.83 19.6473 131.824 17.8931 131.8 15.964C131.799 15.7687 131.735 15.5789 131.62 15.4218C131.504 15.2648 131.341 15.1485 131.155 15.0898L128.189 14.1373C128.063 14.0973 127.93 14.0913 127.801 14.12C127.673 14.1487 127.554 14.2111 127.458 14.3007C127.362 14.3903 127.291 14.5039 127.253 14.6298C127.215 14.7558 127.211 14.8896 127.242 15.0175Z" fill="#B55B52"/>
<path d="M135.772 35.8819C134.145 35.8819 132.644 33.9287 132.348 31.4329C132.233 30.772 132.253 30.0946 132.407 29.4417C132.562 28.7888 132.847 28.1741 133.247 27.635C133.435 27.4076 133.671 27.224 133.937 27.097C134.204 26.97 134.495 26.9026 134.79 26.8995C136.411 26.8995 137.919 28.8527 138.208 31.3485C138.324 32.009 138.305 32.6862 138.151 33.339C137.998 33.9918 137.714 34.6067 137.316 35.1464C137.126 35.3723 136.89 35.5548 136.624 35.6817C136.358 35.8085 136.067 35.8768 135.772 35.8819ZM134.796 27.5024C134.586 27.506 134.379 27.556 134.19 27.6488C134.002 27.7415 133.836 27.8747 133.705 28.0389C133.365 28.5149 133.124 29.0539 132.996 29.6243C132.867 30.1947 132.854 30.785 132.957 31.3606C133.204 33.4886 134.494 35.2791 135.778 35.2791C135.99 35.2763 136.198 35.2267 136.387 35.1339C136.577 35.0412 136.744 34.9075 136.876 34.7425C137.214 34.2659 137.454 33.7269 137.583 33.1567C137.711 32.5865 137.725 31.9964 137.623 31.4209C137.388 29.2928 136.098 27.5024 134.82 27.5024H134.796Z" fill="#2C2E70"/>
<path opacity="0.2" d="M131.806 16.0725L128.822 16.4583C128.888 16.591 128.972 16.7176 129.051 16.8441C129.617 17.7484 130.859 18.3452 132.149 18.5623C131.87 17.7635 131.753 16.917 131.806 16.0725Z" fill="black"/>
<path d="M135.676 8.35004C137.334 8.62735 140.432 6.74647 139.709 4.23865C138.781 5.40213 135.676 5.0103 135.676 5.0103V8.35004Z" fill="#263238"/>
<path d="M129.201 11.0025C129.382 12.6784 127.315 15.6625 124.855 14.7884C126.061 13.9323 125.868 10.8036 125.868 10.8036L129.201 11.0025Z" fill="#263238"/>
<path d="M126.772 7.74723C126.326 11.3281 125.88 13.4079 127.333 15.5842C129.509 18.8215 134.187 17.9956 135.694 14.6377C137.051 11.6235 137.551 6.25218 134.344 4.19046C133.641 3.73481 132.834 3.46577 131.999 3.40877C131.163 3.35176 130.327 3.50868 129.569 3.86469C128.812 4.22069 128.157 4.76403 127.668 5.44338C127.178 6.12273 126.87 6.91564 126.772 7.74723Z" fill="#B55B52"/>
<path d="M126.278 11.3642C127.152 12.2866 129.557 8.5188 129.117 7.14432C130.021 7.5422 131.758 6.78261 131.649 5.28756C134.356 6.73439 138.28 7.87979 138.341 5.28756C138.401 2.69534 135.929 0.736097 133.518 0.53113C133.807 1.3088 133.042 1.64037 131.468 1.3088C129.895 0.977239 123.83 -1.81393 124.499 3.76237C122.233 3.89499 121.937 6.76453 126.278 11.3642Z" fill="#263238"/>
<path d="M124.505 9.97168C124.631 10.8711 125.108 11.6841 125.832 12.2323C126.796 12.9497 127.399 12.1901 127.489 11.0568C127.574 10.032 127.489 8.4284 126.338 8.15712C126.088 8.10252 125.827 8.11139 125.581 8.18292C125.335 8.25445 125.111 8.38639 124.929 8.56671C124.747 8.74703 124.613 8.97002 124.539 9.2154C124.465 9.46078 124.453 9.72075 124.505 9.97168Z" fill="#B55B52"/>
<path d="M129.973 52.9604L142.729 52.0139C142.729 52.0139 144.381 78.1954 144.255 89.2937C144.128 100.844 138.829 129.16 138.829 129.16L132.668 129.256C132.668 129.256 133.156 101.791 133.156 90.4512C133.156 75.1812 129.955 52.9604 129.955 52.9604" fill="#263238"/>
<path opacity="0.2" d="M134.904 80.1788C135.073 80.9324 139.818 102.158 141.349 114.541C142.163 109.393 143.001 103.611 143.567 98.5053L134.904 80.1788Z" fill="black"/>
<path d="M135.845 52.5325C135.845 52.5325 145.557 76.3207 147.745 86.7559C150.156 98.1797 153.984 127.074 153.984 127.074L147.395 128.099C147.395 128.099 142.41 106.499 139.619 95.467C136.448 82.8916 123.872 62.9797 123.342 53.4608L135.845 52.5325Z" fill="#263238"/>
<path d="M154.81 127.635L146.624 129.552L145.593 126.399L154.533 124.868L154.81 127.635Z" fill="#2C2E70"/>
<path d="M139.625 129.298L132.282 129.413L132.246 127.044L140.445 126.791L139.625 129.298Z" fill="#2C2E70"/>
<path d="M131.764 9.60402C131.709 9.89339 131.818 10.1526 132.005 10.2069C132.192 10.2611 132.391 10.0381 132.445 9.74871C132.499 9.45934 132.391 9.20012 132.198 9.14587C132.005 9.09161 131.818 9.31466 131.764 9.60402Z" fill="#263238"/>
<path d="M135.332 10.3636C135.278 10.6469 135.387 10.9122 135.573 10.9664C135.76 11.0207 135.959 10.7976 136.014 10.5083C136.068 10.2189 135.959 9.95364 135.772 9.90541C135.586 9.85718 135.387 10.0742 135.332 10.3636Z" fill="#263238"/>
<path d="M134.157 10.2913C134.336 11.2373 134.644 12.1542 135.073 13.0161C134.849 13.1198 134.605 13.1735 134.359 13.1735C134.112 13.1735 133.868 13.1198 133.644 13.0161L134.157 10.2913Z" fill="#A02724"/>
<path d="M133.036 13.9022C132.713 13.8352 132.407 13.7028 132.138 13.513C131.868 13.3233 131.64 13.0802 131.468 12.799C131.457 12.7781 131.455 12.7539 131.462 12.7314C131.469 12.7089 131.484 12.6899 131.504 12.6784C131.525 12.6694 131.547 12.6681 131.568 12.6747C131.59 12.6814 131.608 12.6956 131.619 12.7146C131.815 13.0225 132.081 13.2801 132.395 13.4664C132.709 13.6528 133.063 13.7628 133.427 13.7876C133.447 13.7928 133.464 13.8041 133.476 13.8199C133.488 13.8357 133.495 13.8551 133.495 13.8751C133.495 13.895 133.488 13.9144 133.476 13.9302C133.464 13.946 133.447 13.9574 133.427 13.9625C133.295 13.9536 133.164 13.9335 133.036 13.9022Z" fill="#263238"/>
<path d="M131.408 8.3139C131.38 8.30141 131.353 8.28519 131.33 8.26567C131.299 8.23154 131.283 8.18759 131.283 8.14209C131.283 8.09658 131.299 8.05264 131.33 8.0185C131.529 7.83059 131.77 7.69271 132.033 7.6162C132.296 7.53969 132.574 7.52675 132.843 7.57843C132.886 7.5911 132.923 7.62019 132.946 7.65955C132.968 7.69892 132.974 7.74549 132.963 7.78943C132.952 7.8325 132.924 7.86935 132.886 7.89193C132.847 7.91451 132.801 7.92101 132.758 7.91C132.543 7.87117 132.321 7.88427 132.111 7.94822C131.901 8.01216 131.71 8.12512 131.553 8.27773C131.533 8.29406 131.509 8.30576 131.484 8.31201C131.459 8.31827 131.433 8.31891 131.408 8.3139Z" fill="#263238"/>
<path d="M137.255 9.4653C137.228 9.4563 137.203 9.44055 137.183 9.4195C137.163 9.39845 137.149 9.37275 137.141 9.34472C137.092 9.13444 136.993 8.93909 136.853 8.77533C136.712 8.61157 136.534 8.48427 136.333 8.40429C136.289 8.39041 136.253 8.35987 136.231 8.31926C136.21 8.27865 136.205 8.23124 136.219 8.18727C136.232 8.1435 136.263 8.10695 136.304 8.08552C136.344 8.06409 136.392 8.05949 136.436 8.07273C136.693 8.17439 136.922 8.3373 137.103 8.54738C137.284 8.75745 137.411 9.00835 137.473 9.27841C137.48 9.30017 137.482 9.32323 137.48 9.34607C137.478 9.36891 137.471 9.39101 137.46 9.41094C137.448 9.43086 137.433 9.44815 137.414 9.46168C137.396 9.4752 137.374 9.48465 137.352 9.48941C137.318 9.49418 137.283 9.48554 137.255 9.4653Z" fill="#263238"/>
<path d="M155.51 131.776C155.221 131.917 154.918 132.024 154.605 132.096C154.592 132.106 154.577 132.112 154.56 132.112C154.544 132.112 154.528 132.106 154.515 132.096C154.505 132.082 154.5 132.065 154.5 132.047C154.5 132.03 154.505 132.013 154.515 131.999C154.593 131.867 155.305 130.685 155.757 130.685C155.808 130.685 155.858 130.699 155.902 130.726C155.945 130.752 155.981 130.79 156.004 130.836C156.051 130.907 156.08 130.989 156.089 131.074C156.097 131.159 156.085 131.245 156.052 131.324C155.925 131.529 155.734 131.688 155.51 131.776ZM154.768 131.873C155.21 131.807 155.611 131.577 155.889 131.228C155.911 131.173 155.918 131.114 155.91 131.056C155.903 130.999 155.881 130.943 155.847 130.896C155.811 130.836 155.781 130.83 155.751 130.83C155.516 130.83 155.063 131.414 154.768 131.873Z" fill="#2C2E70"/>
<path d="M154.623 132.09H154.575C154.56 132.087 154.545 132.081 154.532 132.071C154.52 132.062 154.51 132.05 154.503 132.035C154.284 131.563 154.212 131.036 154.298 130.522C154.323 130.46 154.361 130.405 154.408 130.358C154.456 130.311 154.513 130.275 154.575 130.251C154.633 130.222 154.698 130.214 154.761 130.229C154.824 130.243 154.879 130.278 154.919 130.329C155.178 130.655 154.919 131.698 154.654 132.053C154.651 132.061 154.647 132.068 154.642 132.075C154.637 132.081 154.631 132.086 154.623 132.09ZM154.623 130.444C154.558 130.477 154.507 130.533 154.479 130.601C154.407 131.008 154.457 131.428 154.623 131.806C154.822 131.378 154.961 130.631 154.81 130.444C154.81 130.444 154.762 130.384 154.66 130.444H154.623Z" fill="#2C2E70"/>
<path d="M137.424 134.193C137.409 134.187 137.395 134.176 137.386 134.162C137.376 134.148 137.371 134.132 137.371 134.115C137.371 134.098 137.376 134.082 137.386 134.068C137.395 134.054 137.409 134.043 137.424 134.037C137.587 133.946 139.04 133.181 139.486 133.434C139.527 133.457 139.562 133.491 139.587 133.53C139.612 133.57 139.627 133.616 139.631 133.663C139.64 133.741 139.63 133.819 139.603 133.893C139.576 133.966 139.532 134.032 139.474 134.085C139.082 134.441 138.039 134.314 137.448 134.206L137.424 134.193ZM139.39 133.561C138.81 133.594 138.247 133.768 137.75 134.067C138.29 134.221 138.866 134.178 139.378 133.946C139.416 133.911 139.445 133.866 139.462 133.817C139.479 133.767 139.483 133.715 139.474 133.663C139.475 133.644 139.47 133.626 139.46 133.61C139.451 133.594 139.437 133.581 139.42 133.573L139.39 133.561Z" fill="#2C2E70"/>
<path d="M137.424 134.194C137.413 134.184 137.403 134.172 137.397 134.159C137.391 134.145 137.388 134.13 137.388 134.115C137.42 133.6 137.609 133.108 137.931 132.705C138.063 132.592 138.234 132.536 138.407 132.548C138.648 132.548 138.714 132.692 138.732 132.789C138.805 133.199 137.949 133.995 137.527 134.2C137.511 134.21 137.493 134.215 137.475 134.214C137.456 134.213 137.438 134.206 137.424 134.194ZM138.455 132.729C138.428 132.721 138.398 132.721 138.371 132.729C138.308 132.721 138.244 132.728 138.183 132.748C138.123 132.767 138.068 132.8 138.021 132.843C137.754 133.162 137.591 133.556 137.557 133.97C138.003 133.699 138.582 133.066 138.54 132.825C138.54 132.789 138.527 132.753 138.455 132.729Z" fill="#2C2E70"/>
<path d="M126.495 26.3631C125.289 28.5032 124.083 30.7879 122.998 33.0365C121.905 35.2345 120.968 37.5069 120.195 39.8366C120.105 40.1199 120.038 40.3972 119.954 40.6745C119.924 40.8011 119.869 40.982 119.851 41.0664C119.832 41.1359 119.816 41.2063 119.803 41.2774C119.751 41.6563 119.761 42.0411 119.833 42.4168C120.076 43.4487 120.472 44.4384 121.009 45.3526C122.26 47.4596 123.718 49.4366 125.361 51.2545L123.613 53.3523C121.282 51.8107 119.21 49.9081 117.476 47.7158C116.51 46.4945 115.762 45.1159 115.264 43.6405C114.977 42.7598 114.848 41.8353 114.884 40.9097C114.884 40.6625 114.932 40.4033 114.962 40.1561C114.992 39.9089 115.029 39.7823 115.065 39.5894C115.137 39.2398 115.203 38.872 115.282 38.5284C115.957 35.851 116.873 33.2401 118.019 30.7276C119.118 28.2588 120.366 25.8591 121.756 23.5417L126.495 26.3631Z" fill="#B55B52"/>
<path d="M122.709 21.4258C119.351 22.3482 116.078 31.7826 116.078 31.7826L124.162 34.0252C125.578 32.0389 126.708 29.8635 127.52 27.5627C129.22 22.9751 126.772 20.3166 122.709 21.4258Z" fill="#2C2E70"/>
<g opacity="0.2">
<path opacity="0.2" d="M122.709 21.4258C119.351 22.3482 116.078 31.7826 116.078 31.7826L124.162 34.0252C125.578 32.0389 126.708 29.8635 127.52 27.5627C129.22 22.9751 126.772 20.3166 122.709 21.4258Z" fill="black"/>
</g>
<path d="M123.812 50.6335L127.501 51.6041L126.037 55.0705C126.037 55.0705 122.727 54.3712 122.745 52.5687L123.812 50.6335Z" fill="#B55B52"/>
<path d="M128.918 53.9552L127.827 56.6982L126.037 55.0705L127.502 51.6041L128.918 53.9552Z" fill="#B55B52"/>
</svg>
