<svg width="341" height="254" viewBox="0 0 341 254" fill="none" xmlns="http://www.w3.org/2000/svg">
<path d="M340.133 222.719H0V222.889H340.133V222.719Z" fill="#EBEBEB"/>
<path d="M306.052 233.665H283.521V233.835H306.052V233.665Z" fill="#EBEBEB"/>
<path d="M225.318 235.515H219.406V235.685H225.318V235.515Z" fill="#EBEBEB"/>
<path d="M282.841 227.352H269.787V227.522H282.841V227.352Z" fill="#EBEBEB"/>
<path d="M65.0675 228.495H35.6868V228.665H65.0675V228.495Z" fill="#EBEBEB"/>
<path d="M75.4347 228.495H71.1287V228.665H75.4347V228.495Z" fill="#EBEBEB"/>
<path d="M153.162 231.365H89.4346V231.535H153.162V231.365Z" fill="#EBEBEB"/>
<path d="M161.223 192.379H29.8704C28.8414 192.377 27.8552 191.967 27.1282 191.239C26.4012 190.511 25.9929 189.524 25.9929 188.495V3.85031C26.0019 2.8272 26.4141 1.84895 27.1402 1.12803C27.8662 0.407111 28.8473 0.00175263 29.8704 0H161.223C162.253 0 163.241 0.40924 163.97 1.13769C164.698 1.86614 165.107 2.85413 165.107 3.88432V188.495C165.107 189.525 164.698 190.513 163.97 191.242C163.241 191.97 162.253 192.379 161.223 192.379ZM29.8704 0.136054C28.8865 0.137856 27.9435 0.529972 27.2485 1.22633C26.5534 1.9227 26.163 2.8664 26.163 3.85031V188.495C26.163 189.479 26.5534 190.423 27.2485 191.119C27.9435 191.815 28.8865 192.207 29.8704 192.209H161.223C162.208 192.207 163.151 191.815 163.847 191.119C164.544 190.423 164.935 189.479 164.937 188.495V3.85031C164.935 2.86578 164.544 1.92209 163.847 1.22592C163.151 0.529751 162.208 0.137852 161.223 0.136054H29.8704Z" fill="#EBEBEB"/>
<path d="M308.371 192.379H177.012C175.982 192.377 174.995 191.968 174.267 191.24C173.539 190.512 173.129 189.525 173.128 188.495V3.85031C173.138 2.82658 173.552 1.84834 174.279 1.1276C175.006 0.406873 175.988 0.00173352 177.012 0H308.371C309.393 0.00354044 310.373 0.40969 311.097 1.13042C311.822 1.85114 312.233 2.82838 312.242 3.85031V188.495C312.242 189.523 311.835 190.509 311.109 191.237C310.384 191.965 309.399 192.376 308.371 192.379ZM177.012 0.136054C176.027 0.137852 175.084 0.529751 174.388 1.22592C173.691 1.92209 173.3 2.86578 173.298 3.85031V188.495C173.3 189.479 173.691 190.423 174.388 191.119C175.084 191.815 176.027 192.207 177.012 192.209H308.371C309.356 192.207 310.3 191.815 310.996 191.119C311.692 190.423 312.084 189.479 312.086 188.495V3.85031C312.084 2.86578 311.692 1.92209 310.996 1.22592C310.3 0.529751 309.356 0.137852 308.371 0.136054H177.012Z" fill="#EBEBEB"/>
<path opacity="0.4" d="M145.101 107.618C144.631 107.924 144.236 108.331 143.943 108.809C143.65 109.286 143.467 109.823 143.407 110.38C143.444 111.064 143.521 111.746 143.638 112.421C143.691 112.763 143.649 113.113 143.516 113.432C143.382 113.751 143.163 114.028 142.883 114.23C142.114 114.652 141.182 114.128 140.468 113.618C139.831 113.274 139.345 112.704 139.108 112.019C139.077 111.501 139.077 110.98 139.108 110.462C139.019 109.428 138.108 108.707 137.38 107.972C136.652 107.237 136.019 106.081 136.604 105.251C136.985 104.686 137.754 104.489 138.155 103.938C139.142 102.577 137.359 100.741 138.155 99.523C139.128 98.0876 141.556 98.8427 142.863 99.523C144.169 100.203 145.189 101.625 146.155 102.781C148.937 106.047 147.985 105.55 145.101 107.618Z" fill="#2C2E70"/>
<path d="M145.101 107.618C144.631 107.924 144.236 108.331 143.943 108.809C143.65 109.286 143.467 109.823 143.407 110.38C143.444 111.064 143.521 111.746 143.638 112.421C143.691 112.763 143.649 113.113 143.516 113.432C143.382 113.751 143.163 114.028 142.883 114.23C142.114 114.652 141.182 114.128 140.468 113.618C139.831 113.274 139.345 112.704 139.108 112.019C139.077 111.501 139.077 110.98 139.108 110.462C139.019 109.428 138.108 108.707 137.38 107.972C136.652 107.237 136.019 106.081 136.604 105.251C136.985 104.686 137.754 104.489 138.155 103.938C139.142 102.577 137.359 100.741 138.155 99.523C139.128 98.0876 141.556 98.8427 142.863 99.523C144.169 100.203 145.189 101.625 146.155 102.781C148.937 106.047 147.985 105.55 145.101 107.618Z" fill="#F0F0F0"/>
<path d="M202.27 141.577C202.272 140.716 202.072 139.866 201.686 139.096C201.3 138.326 200.739 137.657 200.048 137.143C199.357 136.629 198.555 136.284 197.706 136.136C196.857 135.988 195.986 136.041 195.162 136.291C195.403 134.631 195.285 132.938 194.815 131.327C194.346 129.716 193.535 128.225 192.438 126.956C191.341 125.686 189.984 124.667 188.458 123.968C186.933 123.269 185.275 122.906 183.597 122.904C182.874 122.904 182.152 122.97 181.441 123.101C180.296 121.194 178.559 119.713 176.495 118.884C174.431 118.055 172.152 117.923 170.007 118.509C167.861 119.094 165.965 120.365 164.608 122.127C163.25 123.889 162.506 126.047 162.488 128.271H162.318C159.82 128.271 157.423 129.264 155.656 131.031C153.889 132.797 152.897 135.194 152.897 137.693C152.897 140.191 153.889 142.588 155.656 144.355C157.423 146.122 159.82 147.114 162.318 147.114H196.91C198.349 147.072 199.714 146.469 200.715 145.435C201.717 144.401 202.274 143.016 202.27 141.577Z" fill="#FAFAFA"/>
<path d="M287.535 192.876C287.533 191.861 287.129 190.889 286.411 190.172C285.693 189.455 284.72 189.053 283.705 189.053C283.332 189.052 282.961 189.105 282.603 189.209C282.66 188.822 282.689 188.431 282.691 188.039C282.691 185.889 281.837 183.826 280.316 182.305C278.796 180.785 276.733 179.93 274.583 179.93C274.083 179.931 273.584 179.976 273.093 180.066C272.292 178.751 271.086 177.733 269.655 177.164C268.224 176.596 266.647 176.509 265.163 176.916C263.678 177.324 262.366 178.203 261.426 179.422C260.486 180.641 259.967 182.133 259.95 183.672H259.862C259.004 183.672 258.155 183.841 257.362 184.169C256.57 184.497 255.85 184.978 255.244 185.585C254.637 186.191 254.156 186.911 253.828 187.703C253.5 188.496 253.331 189.345 253.331 190.202C253.331 191.06 253.5 191.909 253.828 192.702C254.156 193.494 254.637 194.214 255.244 194.82C255.85 195.427 256.57 195.908 257.362 196.236C258.155 196.564 259.004 196.733 259.862 196.733H283.841C284.838 196.699 285.783 196.277 286.473 195.556C287.163 194.836 287.544 193.874 287.535 192.876Z" fill="#FAFAFA"/>
<path d="M81.1626 195.645C81.1638 195.086 81.0343 194.535 80.7845 194.036C80.5346 193.536 80.1714 193.103 79.7238 192.769C79.2762 192.435 78.7568 192.21 78.2069 192.113C77.657 192.016 77.092 192.049 76.5572 192.209C76.6065 191.846 76.6315 191.48 76.632 191.114C76.632 189.102 75.8329 187.173 74.4104 185.751C72.9879 184.328 71.0587 183.529 69.047 183.529C68.5906 183.533 68.1354 183.576 67.6865 183.658C66.9374 182.432 65.8102 181.481 64.4744 180.951C63.1387 180.42 61.6667 180.338 60.2801 180.716C58.8935 181.095 57.6673 181.913 56.7861 183.048C55.9049 184.184 55.4164 185.575 55.3941 187.012H55.2852C53.6615 187.012 52.1042 187.657 50.9561 188.805C49.8079 189.953 49.1628 191.511 49.1628 193.134C49.1628 194.758 49.8079 196.315 50.9561 197.464C52.1042 198.612 53.6615 199.257 55.2852 199.257H77.734C78.6628 199.218 79.5399 198.819 80.1798 198.145C80.8198 197.471 81.1722 196.574 81.1626 195.645Z" fill="#FAFAFA"/>
<path d="M170.067 253.44C242.911 253.44 301.963 249.992 301.963 245.739C301.963 241.486 242.911 238.039 170.067 238.039C97.222 238.039 38.1698 241.486 38.1698 245.739C38.1698 249.992 97.222 253.44 170.067 253.44Z" fill="#F5F5F5"/>
<path d="M237.474 246.018C237.474 246.018 242.916 235.467 241.556 234.454C240.195 233.44 237.474 243.297 237.474 242.501C237.474 241.705 237.624 228.318 235.127 228.848C232.631 229.379 235.127 241.739 235.127 241.739C235.127 241.739 231.767 235.427 230.447 235.903C229.127 236.379 234.331 243.889 234.331 243.889C234.331 243.889 231.223 242.005 230.447 242.154C229.672 242.304 234.331 246.039 234.331 246.039L237.474 246.018Z" fill="#2C2E70"/>
<path d="M60.1288 246.018C60.1288 246.018 54.6867 235.467 56.0472 234.454C57.4077 233.44 60.1288 243.297 60.1288 242.501C60.1288 241.705 59.9792 228.318 62.4757 228.848C64.9723 229.379 62.4757 241.739 62.4757 241.739C62.4757 241.739 65.8362 235.427 67.156 235.903C68.4757 236.379 63.2648 243.869 63.2648 243.869C63.2648 243.869 66.3669 241.984 67.1492 242.134C67.9315 242.284 63.2648 246.018 63.2648 246.018H60.1288Z" fill="#2C2E70"/>
<path d="M94.557 246.018C94.557 246.018 88.4346 240.61 90.251 239.692C92.0673 238.773 94.3326 243.773 94.557 243.032C94.7815 242.29 93.3598 235.406 96.7747 235.882C100.19 236.358 96.7747 243.032 96.7747 243.032C96.7747 243.032 99.2985 240.311 100.176 240.719C101.054 241.127 97.489 246.018 97.489 246.018H94.557Z" fill="#2C2E70"/>
<path d="M289.011 246.018C289.011 246.018 295.134 240.61 293.317 239.692C291.501 238.773 289.236 243.773 289.011 243.032C288.787 242.29 290.215 235.406 286.8 235.882C283.385 236.358 286.8 243.032 286.8 243.032C286.8 243.032 284.27 240.311 283.399 240.719C282.528 241.127 286.12 246.018 286.12 246.018H289.011Z" fill="#2C2E70"/>
<g opacity="0.4">
<path opacity="0.4" d="M237.474 246.018C237.474 246.018 242.916 235.467 241.556 234.454C240.195 233.44 237.474 243.297 237.474 242.501C237.474 241.705 237.624 228.318 235.127 228.848C232.631 229.379 235.127 241.739 235.127 241.739C235.127 241.739 231.767 235.427 230.447 235.903C229.127 236.379 234.331 243.889 234.331 243.889C234.331 243.889 231.222 242.005 230.447 242.154C229.671 242.304 234.331 246.039 234.331 246.039L237.474 246.018Z" fill="white"/>
<path opacity="0.4" d="M60.1288 246.018C60.1288 246.018 54.6867 235.467 56.0472 234.454C57.4077 233.44 60.1288 243.297 60.1288 242.501C60.1288 241.705 59.9792 228.318 62.4757 228.848C64.9723 229.379 62.4757 241.739 62.4757 241.739C62.4757 241.739 65.8362 235.427 67.156 235.903C68.4757 236.379 63.2648 243.869 63.2648 243.869C63.2648 243.869 66.3669 241.984 67.1492 242.134C67.9315 242.284 63.2648 246.018 63.2648 246.018H60.1288Z" fill="white"/>
<path opacity="0.4" d="M94.557 246.018C94.557 246.018 88.4346 240.61 90.251 239.692C92.0673 238.773 94.3326 243.773 94.557 243.032C94.7815 242.29 93.3598 235.406 96.7747 235.882C100.19 236.358 96.7747 243.032 96.7747 243.032C96.7747 243.032 99.2985 240.311 100.176 240.719C101.054 241.127 97.489 246.018 97.489 246.018H94.557Z" fill="white"/>
<path opacity="0.4" d="M289.011 246.018C289.011 246.018 295.134 240.61 293.317 239.692C291.501 238.773 289.236 243.773 289.011 243.032C288.787 242.29 290.215 235.406 286.8 235.882C283.385 236.358 286.8 243.032 286.8 243.032C286.8 243.032 284.27 240.311 283.399 240.719C282.528 241.127 286.12 246.018 286.12 246.018H289.011Z" fill="white"/>
</g>
<path d="M48.3806 245.984H60.1288C60.1288 245.984 57.3601 242.535 54.2581 242.018C51.1561 241.501 48.3806 245.984 48.3806 245.984Z" fill="#263238"/>
<path d="M111.401 245.984H116.802C116.802 245.984 115.088 243.665 113.503 243.569C111.918 243.474 111.401 245.984 111.401 245.984Z" fill="#263238"/>
<path d="M263.297 245.984H271.739C271.739 245.984 269.862 242.032 267.521 241.903C265.181 241.773 263.297 245.984 263.297 245.984Z" fill="#263238"/>
<path opacity="0.4" d="M48.3806 245.984H60.1288C60.1288 245.984 57.3601 242.535 54.2581 242.018C51.1561 241.501 48.3806 245.984 48.3806 245.984Z" fill="white"/>
<path opacity="0.4" d="M111.401 245.984H116.802C116.802 245.984 115.088 243.665 113.503 243.569C111.918 243.474 111.401 245.984 111.401 245.984Z" fill="white"/>
<path opacity="0.4" d="M263.297 245.984H271.739C271.739 245.984 269.862 242.032 267.521 241.903C265.181 241.773 263.297 245.984 263.297 245.984Z" fill="white"/>
<path d="M250.923 92.1829L251.46 88.9856C251.201 88.5179 250.9 88.074 250.562 87.6591C250.209 87.285 249.311 80.8565 249.311 80.8565L255.134 79.6116C255.134 79.6116 255.678 85.9449 255.678 86.5639C255.678 87.1829 254.243 88.8836 254.243 88.8836L253.617 92.7407L250.923 92.1829Z" fill="#E4897B"/>
<path d="M235.141 94.3189C238.052 94.4142 247.202 104.217 247.202 104.217L250.562 90.9312L255.141 91.9312C255.141 91.9312 253.78 108.468 251.1 110.795C248.42 113.121 234.318 104.849 234.318 104.849L235.141 94.3189Z" fill="#2C2E70"/>
<path opacity="0.2" d="M255.134 91.9312C255.134 91.9312 253.773 108.468 251.1 110.795C249.61 112.081 244.624 110.115 240.467 108.115C238.093 106.965 235.984 105.802 234.964 105.224L234.284 104.849L234.61 100.768L234.739 99.074L235.113 94.3462C238.018 94.4414 247.168 104.244 247.168 104.244L250.535 90.9584L255.134 91.9312Z" fill="black"/>
<path opacity="0.2" d="M240.467 108.115C238.093 106.965 235.984 105.802 234.964 105.224C234.737 103.74 234.627 102.241 234.637 100.741C234.638 100.174 234.681 99.6074 234.767 99.0468C234.767 99.0468 239.413 102.469 240.467 108.115Z" fill="black"/>
<path d="M214.753 240.767H208.774C208.676 240.768 208.582 240.802 208.506 240.864C208.431 240.926 208.379 241.011 208.359 241.107L207.386 245.488C207.366 245.581 207.365 245.678 207.383 245.771C207.4 245.865 207.436 245.955 207.489 246.034C207.542 246.114 207.609 246.183 207.689 246.236C207.768 246.289 207.857 246.326 207.951 246.345C208.002 246.352 208.055 246.352 208.107 246.345C210.039 246.311 211.447 246.195 213.876 246.195C215.372 246.195 219.882 246.352 221.95 246.352C224.018 246.352 224.284 244.311 223.44 244.12C219.644 243.297 216.794 242.148 215.576 241.059C215.349 240.86 215.055 240.756 214.753 240.767Z" fill="#263238"/>
<path d="M240.134 240.61H234.154C234.057 240.611 233.963 240.645 233.887 240.707C233.812 240.769 233.76 240.855 233.739 240.95L232.767 245.331C232.747 245.424 232.745 245.52 232.763 245.614C232.78 245.707 232.815 245.796 232.867 245.876C232.919 245.955 232.986 246.024 233.065 246.078C233.143 246.131 233.231 246.169 233.324 246.188C233.379 246.195 233.434 246.195 233.488 246.188C235.42 246.154 236.828 246.039 239.256 246.039C240.753 246.039 245.263 246.195 247.331 246.195C249.399 246.195 249.664 244.154 248.821 243.964C245.025 243.141 242.175 241.991 240.957 240.903C240.73 240.704 240.436 240.599 240.134 240.61Z" fill="#263238"/>
<path d="M211.563 129.985H237.671C240.161 143.543 247.93 198.59 242.352 241.338H233.508C233.508 241.338 234.352 176.42 226.529 155.441C225.631 166.665 216.502 241.29 216.502 241.29H207.529C207.529 241.29 208.889 213.223 210.216 186.706C211.066 170.005 211.563 133.414 211.563 129.985Z" fill="#2C2E70"/>
<path opacity="0.6" d="M211.563 129.985H237.671C240.161 143.543 247.93 198.59 242.352 241.338H233.508C233.508 241.338 234.352 176.42 226.529 155.441C225.631 166.665 216.502 241.29 216.502 241.29H207.529C207.529 241.29 208.889 213.223 210.216 186.706C211.066 170.005 211.563 133.414 211.563 129.985Z" fill="white"/>
<path opacity="0.2" d="M226.529 155.441C227.813 159.12 228.789 162.899 229.447 166.74C230.175 156.747 227.256 146.148 227.256 146.148L226.529 155.441Z" fill="black"/>
<path d="M233.379 133.162L221.018 133.312V130.298H233.379V133.162Z" fill="black"/>
<path d="M220.08 130.298V133.325L211.631 133.427V130.298H220.08Z" fill="black"/>
<path d="M234.318 130.298H237.916L238.25 133.101L234.318 133.149V130.298Z" fill="black"/>
<path d="M225.93 133.251H230.794V129.747H225.93V133.251Z" fill="white"/>
<path d="M207.549 94.319C207.74 95.904 207.944 97.7203 208.175 99.6523C208.318 100.89 208.474 102.196 208.631 103.557C208.883 105.673 209.141 107.917 209.413 110.271C209.481 110.883 209.556 111.489 209.624 112.115C210.304 117.877 210.985 124.121 211.665 130.291H237.943C237.943 130.291 239.95 111.407 235.175 94.319H207.549Z" fill="#2C2E70"/>
<path d="M224.168 98.5434C224.168 98.5434 212.889 97.5502 211.005 94.6114C209.121 91.6727 219.359 87.9721 225.937 89.1081C232.515 90.2441 238.379 94.7271 224.168 98.5434Z" fill="#2C2E70"/>
<path opacity="0.2" d="M224.168 98.5434C224.168 98.5434 212.889 97.5502 211.005 94.6114C209.121 91.6727 219.359 87.9721 225.937 89.1081C232.515 90.2441 238.379 94.7271 224.168 98.5434Z" fill="black"/>
<path d="M222.535 108.938H222.461C222.42 108.917 222.388 108.882 222.373 108.839C222.358 108.796 222.36 108.748 222.379 108.707C225.168 102.958 221.386 98.0808 221.345 98.0332C221.321 97.9977 221.312 97.9547 221.319 97.9126C221.325 97.8705 221.347 97.8324 221.381 97.8059C221.414 97.7794 221.456 97.7664 221.499 97.7694C221.541 97.7725 221.581 97.7913 221.61 97.8223C221.651 97.8699 225.569 102.911 222.685 108.856C222.67 108.882 222.648 108.904 222.622 108.918C222.595 108.933 222.565 108.939 222.535 108.938Z" fill="white"/>
<path d="M222.631 108.564C222.46 108.565 222.293 108.618 222.153 108.716C222.013 108.815 221.907 108.954 221.848 109.115L222.529 109.516C222.64 109.386 222.71 109.226 222.728 109.056C222.746 108.886 222.712 108.714 222.631 108.564Z" fill="white"/>
<path d="M230.685 104.081C230.736 104.244 230.836 104.387 230.971 104.492C231.106 104.596 231.27 104.657 231.44 104.666L231.631 103.897C231.473 103.828 231.298 103.808 231.129 103.841C230.96 103.874 230.805 103.957 230.685 104.081Z" fill="white"/>
<path d="M230.869 104.237C225.719 103.999 225.658 97.972 225.658 97.9107C225.658 97.8656 225.676 97.8224 225.708 97.7905C225.74 97.7586 225.783 97.7407 225.828 97.7407C225.873 97.7407 225.916 97.7586 225.948 97.7905C225.98 97.8224 225.998 97.8656 225.998 97.9107C225.998 98.1488 226.059 103.673 230.882 103.897C230.928 103.901 230.971 103.922 231.001 103.956C231.031 103.99 231.047 104.035 231.046 104.081C231.042 104.125 231.022 104.165 230.989 104.195C230.956 104.224 230.913 104.239 230.869 104.237Z" fill="white"/>
<path d="M217.848 93.1965C217.761 93.7871 217.492 94.3361 217.08 94.7679L224.168 98.523L227.386 95.0673C226.191 93.9994 225.224 92.7014 224.542 91.251C223.693 89.5445 223.15 87.7027 222.937 85.8088L216.44 90.2034C216.44 90.2034 218.059 91.5367 217.848 93.1965Z" fill="#E4897B"/>
<path opacity="0.2" d="M217.848 93.1965C219.035 93.5168 220.287 93.5047 221.468 93.1616C222.648 92.8185 223.712 92.1576 224.542 91.251C223.693 89.5445 223.15 87.7027 222.937 85.8088L216.44 90.2034C216.44 90.2034 218.059 91.5367 217.848 93.1965Z" fill="black"/>
<path d="M209.202 77.8429C209.202 77.8429 209.202 84.4074 212.985 86.3598C216.767 88.3122 214.964 76.3667 214.964 76.3667L209.202 77.8429Z" fill="#263238"/>
<path d="M223.651 89.9584C223.097 91.1235 222.176 92.0746 221.03 92.6657C219.883 93.2568 218.574 93.4552 217.304 93.2305C215.656 92.9723 214.167 92.0967 213.141 90.7815C212.998 90.5979 212.869 90.4074 212.74 90.2101C210.467 86.5435 208.889 79.7612 212.644 76.564C213.471 75.8524 214.465 75.3639 215.533 75.145C216.602 74.9262 217.708 74.9841 218.748 75.3133C219.787 75.6426 220.725 76.2322 221.473 77.0262C222.22 77.8202 222.752 78.7921 223.018 79.8497C224.222 84.353 225.168 86.9516 223.651 89.9584Z" fill="#E4897B"/>
<path d="M216.706 83.3191C216.781 83.4531 216.801 83.6112 216.761 83.7597C216.722 83.9082 216.626 84.0356 216.495 84.115C216.25 84.1898 215.971 83.9585 215.848 83.598C215.726 83.2374 215.848 82.9177 216.059 82.8089C216.27 82.7 216.583 82.9925 216.706 83.3191Z" fill="#263238"/>
<path d="M212.624 84.6728C212.767 85.0197 212.624 85.3871 212.413 85.4619C212.202 85.5367 211.889 85.3122 211.767 84.9517C211.644 84.5912 211.767 84.2714 211.985 84.1558C212.202 84.0401 212.515 84.3531 212.624 84.6728Z" fill="#263238"/>
<path d="M213.978 84.4211C213.922 85.6645 213.693 86.8941 213.297 88.0741C213.604 88.1696 213.929 88.1965 214.247 88.153C214.566 88.1095 214.871 87.9967 215.141 87.8224L213.978 84.4211Z" fill="#DE5753"/>
<path d="M210.583 83.4892C210.623 83.4947 210.664 83.4894 210.701 83.4738C210.738 83.4582 210.77 83.433 210.794 83.4007C210.952 83.1695 211.161 82.978 211.406 82.8411C211.65 82.7042 211.922 82.6257 212.202 82.6116C212.231 82.6135 212.26 82.6094 212.288 82.5997C212.316 82.59 212.341 82.5749 212.362 82.5552C212.384 82.5355 212.401 82.5117 212.414 82.4852C212.426 82.4586 212.433 82.4299 212.433 82.4007C212.435 82.3716 212.431 82.3424 212.422 82.3148C212.412 82.2873 212.397 82.2619 212.377 82.2404C212.357 82.2188 212.334 82.2014 212.307 82.1892C212.28 82.177 212.252 82.1703 212.223 82.1694C211.869 82.1772 211.523 82.2689 211.212 82.4368C210.901 82.6047 210.634 82.8442 210.433 83.1354C210.398 83.1825 210.382 83.2417 210.39 83.3003C210.397 83.3588 210.428 83.412 210.474 83.4483C210.508 83.4685 210.545 83.4823 210.583 83.4892Z" fill="#263238"/>
<path d="M217.005 81.4347C217.044 81.4153 217.079 81.3874 217.107 81.353C217.119 81.3263 217.126 81.2974 217.127 81.268C217.128 81.2387 217.122 81.2094 217.112 81.1821C217.101 81.1548 217.085 81.1299 217.064 81.109C217.043 81.0881 217.018 81.0716 216.991 81.0605C216.667 80.9147 216.312 80.8491 215.957 80.8692C215.602 80.8893 215.256 80.9946 214.95 81.1762C214.902 81.2105 214.869 81.2622 214.857 81.3204C214.846 81.3786 214.857 81.439 214.889 81.4891C214.923 81.5359 214.974 81.5677 215.031 81.5779C215.088 81.588 215.147 81.5757 215.195 81.5435C215.441 81.4087 215.714 81.3324 215.994 81.3206C216.273 81.3088 216.552 81.3618 216.808 81.4755C216.841 81.4835 216.877 81.484 216.911 81.477C216.945 81.4699 216.977 81.4555 217.005 81.4347Z" fill="#263238"/>
<path d="M217.937 75.4076L217.78 76.3667C219.399 76.4348 219.59 78.2443 219.508 79.0878C219.331 80.9313 220.998 83.251 222.569 83.9245C222.569 83.9245 222.406 83.1898 223.059 83.1898C223.712 83.1898 224.597 86.9993 223.91 89.1217C223.91 89.1217 225.27 86.9993 225.168 82.7681C225.086 78.8565 224.352 75.7817 223.209 74.6049L217.937 75.4076Z" fill="#263238"/>
<path d="M226.155 82.8429C225.992 84.0064 225.379 85.0594 224.447 85.7748C223.202 86.7068 222.012 85.7272 221.882 84.2578C221.78 82.9517 222.284 80.8565 223.767 80.5096C224.091 80.4339 224.429 80.4411 224.749 80.5306C225.07 80.6201 225.362 80.7889 225.6 81.0215C225.838 81.254 226.014 81.5428 226.111 81.8612C226.208 82.1796 226.223 82.5172 226.155 82.8429Z" fill="#E4897B"/>
<path d="M215.753 89.1557C216.308 89.5404 216.833 89.9656 217.325 90.4278L217.61 90.2101C218.876 89.2169 219.141 88.3326 219.039 87.6591C218.986 87.3315 218.855 87.0213 218.658 86.7544C218.55 86.5973 218.42 86.4574 218.27 86.3394C217.762 87.3049 217.05 88.1477 216.182 88.8088C215.93 89.0265 215.753 89.1557 215.753 89.1557Z" fill="#263238"/>
<path d="M216.182 88.8088L216.658 89.1693C217.848 88.2306 218.563 87.4074 218.658 86.7544C218.55 86.5973 218.42 86.4574 218.27 86.3394C217.762 87.3049 217.05 88.1477 216.182 88.8088Z" fill="white"/>
<path d="M217.61 90.2101C218.876 89.2169 219.141 88.3326 219.039 87.6591C218.566 88.0397 218.163 88.5002 217.848 89.0197C217.645 89.3811 217.561 89.7981 217.61 90.2101Z" fill="#DE5753"/>
<path d="M224.61 77.1286C224.61 77.1286 225.134 72.8498 219.556 71.2307C213.978 69.6117 209.522 73.5504 209.161 75.5096C209.161 75.5096 206.379 77.6864 209.406 80.0334L210.678 77.4348C210.678 77.4348 216.474 81.1762 224.61 77.1286Z" fill="#263238"/>
<path d="M195.298 240.848H201.182C201.278 240.85 201.371 240.884 201.446 240.944C201.521 241.004 201.574 241.088 201.597 241.182L202.549 245.501C202.573 245.593 202.578 245.689 202.562 245.783C202.547 245.876 202.512 245.966 202.46 246.045C202.409 246.125 202.341 246.192 202.261 246.244C202.181 246.295 202.092 246.33 201.998 246.345C201.946 246.352 201.894 246.352 201.842 246.345C199.937 246.311 198.549 246.195 196.155 246.195C194.685 246.195 190.236 246.352 188.202 246.352C186.168 246.352 185.903 244.311 186.74 244.154C190.474 243.338 193.284 242.209 194.481 241.141C194.707 240.944 194.998 240.84 195.298 240.848Z" fill="#263238"/>
<path d="M170.325 240.699H176.189C176.286 240.697 176.381 240.729 176.457 240.79C176.533 240.851 176.585 240.937 176.604 241.032L177.563 245.345C177.601 245.532 177.564 245.726 177.46 245.885C177.355 246.044 177.192 246.156 177.005 246.195H176.849C174.944 246.161 173.556 246.046 171.169 246.046C169.692 246.046 165.25 246.202 163.209 246.202C161.169 246.202 160.91 244.161 161.747 244.005C165.482 243.195 168.291 242.066 169.488 240.991C169.718 240.788 170.019 240.683 170.325 240.699Z" fill="#263238"/>
<path opacity="0.6" d="M195.298 240.848H201.182C201.278 240.85 201.371 240.884 201.446 240.944C201.521 241.004 201.574 241.088 201.597 241.182L202.549 245.501C202.573 245.593 202.578 245.689 202.562 245.783C202.547 245.876 202.512 245.966 202.46 246.045C202.409 246.125 202.341 246.192 202.261 246.244C202.181 246.295 202.092 246.33 201.998 246.345C201.946 246.352 201.894 246.352 201.842 246.345C199.937 246.311 198.549 246.195 196.155 246.195C194.685 246.195 190.236 246.352 188.202 246.352C186.168 246.352 185.903 244.311 186.74 244.154C190.474 243.338 193.284 242.209 194.481 241.141C194.707 240.944 194.998 240.84 195.298 240.848Z" fill="white"/>
<path opacity="0.6" d="M170.325 240.699H176.189C176.286 240.697 176.381 240.729 176.457 240.79C176.533 240.851 176.585 240.937 176.604 241.032L177.563 245.345C177.601 245.532 177.564 245.726 177.46 245.885C177.355 246.044 177.192 246.156 177.005 246.195H176.849C174.944 246.161 173.556 246.046 171.169 246.046C169.692 246.046 165.25 246.202 163.209 246.202C161.169 246.202 160.91 244.161 161.747 244.005C165.482 243.195 168.291 242.066 169.488 240.991C169.718 240.788 170.019 240.683 170.325 240.699Z" fill="white"/>
<path d="M172.107 77.6864L173.393 73.7681C174.022 73.1859 174.565 72.517 175.005 71.7817C175.393 70.945 175.788 64.5913 175.788 64.5913L170.345 65.1287C170.345 65.1287 169.06 71.4076 170.611 72.5708L169.298 76.5436L172.107 77.6864Z" fill="#EEC1BB"/>
<path d="M212.066 127.441L210.1 131.135C209.367 131.61 208.705 132.187 208.134 132.849C207.604 133.618 206.093 139.91 206.093 139.91L211.644 140.319C211.644 140.319 214.025 134.257 212.678 132.836L214.685 129.087L212.066 127.441Z" fill="#EEC1BB"/>
<path d="M178.951 107.169C178.445 107.364 177.885 107.364 177.379 107.169C175.556 106.632 173.128 105.19 170.815 103.468C167.305 100.856 164.053 97.5978 163.563 95.8903C162.754 93.0536 168.271 73.5436 168.271 73.5436L174.012 75.8497C174.012 75.8497 169.216 91.591 170.155 93.625C171.094 95.659 176.842 98.1556 179.951 99.0195C179.951 99.0468 181.42 106.04 178.951 107.169Z" fill="#2C2E70"/>
<path opacity="0.6" d="M170.148 91.3666L163.692 92.8564C163.48 93.8626 163.437 94.897 163.563 95.9176C163.819 96.6003 164.192 97.2334 164.665 97.7883L170.046 93.1081C170.03 92.5257 170.064 91.9431 170.148 91.3666Z" fill="white"/>
<path opacity="0.6" d="M173.801 76.5912L168.08 74.2715C167.896 74.9518 167.597 76.0266 167.23 77.4007L172.937 79.5572C173.298 78.2851 173.604 77.2374 173.801 76.5912Z" fill="white"/>
<path opacity="0.6" d="M171.536 84.7884L165.699 83.3463C165.427 84.4415 165.162 85.5639 164.91 86.6591L171.032 86.8768C171.182 86.1898 171.359 85.4891 171.536 84.7884Z" fill="white"/>
<path opacity="0.6" d="M170.672 94.3734L165.55 98.8291C166.443 99.7909 167.393 100.699 168.393 101.55L171.971 95.4278C171.503 95.1217 171.068 94.7684 170.672 94.3734Z" fill="white"/>
<path opacity="0.6" d="M173.121 96.1761L169.454 102.435C170.522 103.298 171.645 104.122 172.754 104.849L176.461 97.8087C175.315 97.3331 174.2 96.7879 173.121 96.1761Z" fill="white"/>
<path opacity="0.6" d="M179.951 99.0468C179.304 98.87 178.543 98.6115 177.733 98.3121L173.91 105.571C174.997 106.25 176.162 106.796 177.379 107.196C181.957 108.543 179.951 99.0468 179.951 99.0468Z" fill="white"/>
<path opacity="0.6" d="M170.379 89.9176C170.481 89.387 170.597 88.8156 170.72 88.2238L164.597 88.0129C164.339 89.2169 164.101 90.3666 163.917 91.4142L170.379 89.9176Z" fill="white"/>
<path opacity="0.6" d="M171.869 83.4687C172.107 82.5708 172.345 81.6932 172.55 80.8701L166.856 78.7205C166.59 79.7477 166.298 80.8633 166.005 82.0266L171.869 83.4687Z" fill="white"/>
<path opacity="0.2" d="M178.951 107.169C178.445 107.364 177.885 107.364 177.379 107.169C175.556 106.632 173.128 105.19 170.815 103.469C173.767 102.428 178.842 103.768 178.842 103.768C179.048 104.89 179.085 106.036 178.951 107.169Z" fill="black"/>
<path d="M198.42 131.7H172.692C170.243 145.06 162.59 199.298 168.08 241.413H176.794C176.794 241.413 175.985 177.468 183.672 156.781C184.556 167.842 193.549 241.365 193.549 241.365H202.393C202.393 241.365 201.073 213.712 199.746 187.583C198.93 171.135 198.454 135.081 198.42 131.7Z" fill="#263238"/>
<path opacity="0.2" d="M183.672 156.781C182.407 160.404 181.446 164.127 180.801 167.91C180.08 158.067 182.992 147.618 182.992 147.618L183.672 156.781Z" fill="black"/>
<path d="M176.019 134.822L172.148 134.774L172.475 132.012H176.019V134.822Z" fill="black"/>
<path d="M190.046 132.012H198.372V135.094L190.046 134.992V132.012Z" fill="black"/>
<path d="M189.121 134.978L176.944 134.836V132.012H189.121V134.978Z" fill="black"/>
<path d="M183.495 135.564H180.271C179.973 135.564 179.687 135.445 179.477 135.235C179.266 135.024 179.148 134.739 179.148 134.441V132.55C179.148 132.252 179.266 131.967 179.477 131.756C179.687 131.546 179.973 131.427 180.271 131.427H183.495C183.793 131.427 184.078 131.546 184.289 131.756C184.499 131.967 184.617 132.252 184.617 132.55V134.441C184.617 134.739 184.499 135.024 184.289 135.235C184.078 135.445 183.793 135.564 183.495 135.564ZM180.271 132.108C180.153 132.108 180.041 132.154 179.958 132.237C179.875 132.32 179.828 132.433 179.828 132.55V134.441C179.828 134.558 179.875 134.671 179.958 134.754C180.041 134.837 180.153 134.883 180.271 134.883H183.495C183.612 134.883 183.725 134.837 183.808 134.754C183.891 134.671 183.937 134.558 183.937 134.441V132.55C183.937 132.433 183.891 132.32 183.808 132.237C183.725 132.154 183.612 132.108 183.495 132.108H180.271Z" fill="white"/>
<path d="M183.672 133.754H182.175C182.085 133.754 181.998 133.718 181.935 133.654C181.871 133.591 181.835 133.504 181.835 133.414C181.837 133.324 181.873 133.239 181.937 133.175C182 133.112 182.086 133.075 182.175 133.074H183.672C183.762 133.074 183.849 133.11 183.912 133.173C183.976 133.237 184.012 133.324 184.012 133.414C184.012 133.504 183.976 133.591 183.912 133.654C183.849 133.718 183.762 133.754 183.672 133.754Z" fill="white"/>
<path d="M207.223 105.836C206.746 106.836 206.182 108.156 205.57 109.768C204.889 111.605 204.1 113.815 203.332 116.332C201.494 122.372 200.112 128.542 199.196 134.788L171.563 131.502C171.563 131.502 173.502 113.53 179.951 99.0468L205.801 103.176C206.092 103.218 206.368 103.327 206.609 103.496C206.849 103.664 207.047 103.887 207.185 104.146C207.324 104.405 207.399 104.693 207.406 104.986C207.412 105.28 207.349 105.571 207.223 105.836Z" fill="#2C2E70"/>
<path opacity="0.6" d="M174.06 117.387L201.44 123.278C201.713 122.169 201.985 121.094 202.27 120.06L175.06 113.258C174.699 114.693 174.366 116.067 174.06 117.387Z" fill="white"/>
<path opacity="0.6" d="M207.223 105.836C206.828 106.666 206.372 107.727 205.862 108.985L178.121 103.543C178.574 102.337 179.048 101.149 179.543 99.9788L187.889 101.305C187.999 102.041 188.334 102.724 188.849 103.261C189.363 103.798 190.03 104.163 190.76 104.305C193.254 104.776 195.833 104.264 197.957 102.877L207.27 104.353C207.367 104.59 207.412 104.844 207.404 105.099C207.396 105.355 207.334 105.606 207.223 105.836Z" fill="white"/>
<path opacity="0.6" d="M176.828 107.271L204.182 113.686C204.59 112.448 204.998 111.305 205.386 110.285L177.665 104.843C177.373 105.632 177.1 106.455 176.828 107.271Z" fill="white"/>
<path opacity="0.6" d="M171.985 128.325L199.624 132.108C199.774 131.203 199.937 130.312 200.107 129.441L172.645 124.346C172.366 125.883 172.155 127.21 171.985 128.325Z" fill="white"/>
<path opacity="0.6" d="M171.794 129.672C171.631 130.836 171.563 131.502 171.563 131.502L199.202 134.788C199.264 134.339 199.338 133.897 199.413 133.427L171.794 129.672Z" fill="white"/>
<path opacity="0.6" d="M176.42 108.577C176.066 109.72 175.735 110.854 175.427 111.979L202.638 118.747C203.014 117.423 203.39 116.169 203.767 114.985L176.42 108.577Z" fill="white"/>
<path opacity="0.6" d="M173.76 118.72C173.427 120.237 173.134 121.686 172.89 123.013L200.365 128.101C200.61 126.904 200.864 125.738 201.127 124.604L173.76 118.72Z" fill="white"/>
<path opacity="0.2" d="M205.57 109.768C204.889 111.605 204.1 113.815 203.332 116.332C201.971 112.843 203.862 108.353 203.862 108.353C204.534 108.685 205.118 109.17 205.57 109.768Z" fill="black"/>
<path d="M205.814 103.176C210.467 104.373 222.216 108.142 225.018 112.849C227.821 117.557 215.42 131.325 215.42 131.325L210.27 128.999C210.27 128.999 216.515 118.292 216.923 117.251C217.25 116.414 208.583 113.72 205.202 112.7C204.812 112.579 204.47 112.337 204.225 112.01C203.981 111.682 203.846 111.285 203.842 110.877C203.842 110.122 203.842 109.122 203.903 108.006C204.012 105.584 205.814 103.176 205.814 103.176Z" fill="#2C2E70"/>
<path opacity="0.6" d="M221.542 123.448L214.549 121.577L212.923 124.428L218.876 127.149C219.726 126.026 220.665 124.761 221.542 123.448Z" fill="white"/>
<path opacity="0.6" d="M225.018 112.849C224.896 112.647 224.762 112.451 224.617 112.264L216.923 117.223L224.794 117.468C225.488 115.645 225.692 113.972 225.018 112.849Z" fill="white"/>
<path opacity="0.6" d="M213.733 115.516C215.372 112.72 217.087 109.809 218.325 107.72C217.127 107.128 215.869 106.577 214.61 106.067L210.379 114.332C211.563 114.72 212.712 115.128 213.733 115.516Z" fill="white"/>
<path opacity="0.6" d="M215.753 116.36L223.692 111.244C222.435 110.105 221.035 109.133 219.529 108.353C218.291 110.448 216.536 113.421 215.012 116.026C215.284 116.142 215.536 116.251 215.753 116.36Z" fill="white"/>
<path opacity="0.6" d="M216.243 118.57L215.243 120.36L222.324 122.251C223.027 121.144 223.663 119.997 224.229 118.815L216.243 118.57Z" fill="white"/>
<path opacity="0.6" d="M209.134 104.128C207.842 103.727 206.699 103.407 205.815 103.176C205.815 103.176 204.012 105.584 203.883 108.006C203.821 109.122 203.815 110.128 203.821 110.883C203.828 111.291 203.962 111.686 204.207 112.012C204.451 112.339 204.792 112.579 205.182 112.7L205.706 112.856L209.134 104.128Z" fill="white"/>
<path opacity="0.6" d="M207.025 113.258L209.066 113.904L213.331 105.577C212.338 105.196 211.359 104.856 210.427 104.543L207.025 113.258Z" fill="white"/>
<path opacity="0.6" d="M212.243 125.611L210.508 128.604L215.726 130.985C216.148 130.502 216.998 129.516 218.018 128.264L212.243 125.611Z" fill="white"/>
<path d="M180.121 102.149L177.665 104.815C177.208 104.697 176.732 104.671 176.265 104.739C175.798 104.807 175.349 104.967 174.944 105.21C173.685 106.054 170.556 108.53 170.74 109.04C170.924 109.55 173.822 113.292 173.822 113.292C173.822 113.292 178.393 108.992 178.733 108.768C179.073 108.543 179.413 106.727 179.413 106.727L181.964 103.475L180.121 102.149Z" fill="#E4897B"/>
<path d="M207.549 94.3189C207.549 94.3189 192.808 94.0809 189.121 94.7203C185.434 95.3598 178.4 102.822 178.4 102.822L181.883 104.863C181.883 104.863 188.277 99.5774 191.509 99.972C193.896 100.264 208.631 103.571 208.631 103.571C208.631 103.571 210.019 97.7203 207.549 94.3189Z" fill="#2C2E70"/>
<path opacity="0.2" d="M207.549 94.3189C207.549 94.3189 192.808 94.0809 189.121 94.7203C185.434 95.3598 178.4 102.822 178.4 102.822L181.883 104.863C181.883 104.863 188.277 99.5774 191.509 99.972C193.896 100.264 208.631 103.571 208.631 103.571C208.631 103.571 210.019 97.7203 207.549 94.3189Z" fill="black"/>
<path d="M189.93 103.224C189.93 103.224 195.338 104.21 197.651 102.292C196.604 101.04 196.434 98.8903 196.651 96.6387C196.824 95.0475 197.127 93.4732 197.556 91.9312C197.685 91.4346 197.828 90.972 197.957 90.5707L191.005 95.2373C191.005 95.3461 191.005 95.4482 191.046 95.5638C191.08 95.8836 191.114 96.2441 191.121 96.523C191.168 97.2953 191.064 98.0695 190.815 98.8019C190.697 99.3117 190.502 99.8005 190.236 100.251C189.791 100.635 189.219 100.838 188.631 100.822C187.869 101.856 189.93 103.224 189.93 103.224Z" fill="#EEC1BB"/>
<path opacity="0.2" d="M190.236 100.251C192.729 99.8285 194.997 98.5513 196.651 96.6387C196.824 95.0475 197.127 93.4732 197.556 91.9312L191.046 95.5638C191.08 95.8836 191.114 96.2441 191.121 96.523C191.168 97.2953 191.064 98.0695 190.815 98.8019C190.697 99.3117 190.502 99.8005 190.236 100.251Z" fill="black"/>
<path d="M199.168 91.2441C199.168 91.2441 200.78 91.8563 201.161 90.9312C201.542 90.006 200.944 88.6931 201.665 88.3666C202.386 88.04 204.025 87.836 203.828 86.9244C203.631 86.0129 202.515 85.3802 203.148 84.7068C203.78 84.0333 205.189 83.0605 204.454 82.4006C203.719 81.7408 203.012 80.6184 203.542 80.1354C204.073 79.6524 203.08 77.2646 201.638 77.5776C200.195 77.8905 200.325 76.6728 200.277 75.6388C200.229 74.6048 197.951 73.9177 197.556 75.013C197.161 76.1082 195.896 74.8905 195.515 73.9926C195.134 73.0946 194.454 72.8361 193.216 73.6252C191.978 74.4143 191.998 76.6116 191.175 75.4143C190.352 74.217 188.801 73.5572 188.148 74.3395C187.495 75.1218 188.019 75.9789 186.869 76.047C185.719 76.115 184.345 78.3326 184.937 78.598C185.529 78.8633 185.502 79.4415 184.794 80.1354C184.087 80.8292 183.298 81.9381 184.345 82.2986C185.393 82.6591 185.406 83.387 185.134 83.7136C184.862 84.0401 185.91 85.4006 187.257 85.1761C188.604 84.9516 199.168 91.2441 199.168 91.2441Z" fill="#263238"/>
<path d="M185.998 79.3599C185.998 79.3599 184.032 85.7272 187.114 88.7476C190.196 91.768 192.012 79.6456 192.012 79.6456L185.998 79.3599Z" fill="#263238"/>
<path d="M196.379 95.4278C195.496 96.3934 194.319 97.0418 193.031 97.2729C191.743 97.504 190.414 97.305 189.25 96.7067C187.726 95.9634 186.544 94.6665 185.944 93.0808C185.859 92.8583 185.786 92.6312 185.726 92.4006C184.617 88.1625 185.121 81.115 189.719 79.1354C190.734 78.6931 191.844 78.5175 192.945 78.6252C194.047 78.733 195.102 79.1205 196.011 79.751C196.921 80.3815 197.654 81.2341 198.141 82.2277C198.628 83.2213 198.853 84.3229 198.794 85.4278C198.638 90.1761 198.733 92.9652 196.379 95.4278Z" fill="#EEC1BB"/>
<path d="M191.631 86.9176C191.665 87.2986 191.447 87.5979 191.189 87.5979C190.93 87.5979 190.726 87.2918 190.719 86.9176C190.713 86.5435 190.91 86.2374 191.162 86.2374C191.413 86.2374 191.624 86.5231 191.631 86.9176Z" fill="#263238"/>
<path d="M187.277 87.0061C187.311 87.387 187.08 87.6863 186.828 87.6863C186.576 87.6863 186.372 87.3802 186.359 87.0061C186.345 86.6319 186.549 86.3258 186.801 86.3258C187.053 86.3258 187.264 86.6387 187.277 87.0061Z" fill="#263238"/>
<path d="M188.665 87.1625C188.229 88.3521 187.632 89.476 186.89 90.5026C187.158 90.6867 187.463 90.8096 187.784 90.8625C188.105 90.9154 188.434 90.8971 188.747 90.8088L188.665 87.1625Z" fill="#D4827D"/>
<path d="M185.645 85.251C185.681 85.2707 185.722 85.2809 185.764 85.2809C185.805 85.2809 185.846 85.2707 185.883 85.251C186.104 85.0738 186.364 84.9508 186.642 84.8918C186.919 84.8327 187.207 84.8393 187.481 84.9109C187.51 84.9236 187.54 84.9302 187.571 84.9305C187.602 84.9308 187.633 84.9246 187.661 84.9124C187.69 84.9002 187.716 84.8822 187.737 84.8596C187.758 84.837 187.774 84.8103 187.785 84.7811C187.795 84.7519 187.799 84.7208 187.797 84.6899C187.795 84.659 187.786 84.6289 187.772 84.6014C187.757 84.574 187.737 84.5499 187.713 84.5305C187.689 84.5112 187.661 84.4971 187.631 84.4891C187.284 84.3847 186.916 84.3666 186.561 84.4366C186.205 84.5065 185.872 84.6623 185.59 84.8905C185.565 84.9068 185.544 84.9281 185.528 84.953C185.511 84.9778 185.5 85.0058 185.495 85.0351C185.49 85.0645 185.491 85.0945 185.498 85.1235C185.505 85.1524 185.518 85.1796 185.536 85.2034C185.57 85.2238 185.606 85.2398 185.645 85.251Z" fill="#263238"/>
<path d="M192.454 85.1625C192.499 85.1611 192.542 85.1443 192.577 85.1149C192.598 85.0946 192.614 85.0703 192.626 85.0434C192.637 85.0165 192.643 84.9876 192.643 84.9585C192.643 84.9293 192.637 84.9004 192.626 84.8735C192.614 84.8466 192.598 84.8223 192.577 84.802C192.306 84.5647 191.983 84.3962 191.633 84.3109C191.284 84.2256 190.919 84.2261 190.57 84.3122C190.513 84.3295 190.465 84.3685 190.437 84.4208C190.409 84.473 190.403 84.5343 190.42 84.5911C190.44 84.6474 190.481 84.694 190.534 84.7217C190.587 84.7494 190.648 84.7562 190.706 84.7408C190.984 84.6825 191.272 84.6897 191.547 84.7617C191.822 84.8337 192.077 84.9686 192.291 85.1557C192.316 85.1677 192.344 85.1744 192.372 85.1756C192.4 85.1768 192.428 85.1723 192.454 85.1625Z" fill="#263238"/>
<path d="M195.196 79.5912L194.76 80.4823C196.311 81.0333 195.951 82.8361 195.61 83.6524C194.889 85.3871 195.815 88.1421 197.134 89.2578C197.134 89.2578 197.195 88.5027 197.815 88.7C198.434 88.8972 198.168 92.8496 196.869 94.7067C196.869 94.7067 198.808 93.0469 199.985 88.9176C201.08 85.1013 201.291 81.9041 200.536 80.3939L195.196 79.5912Z" fill="#263238"/>
<path d="M200.937 89.2782C200.69 89.8151 200.34 90.2977 199.905 90.6982C199.471 91.0988 198.962 91.4092 198.406 91.6115C196.917 92.1489 196.06 90.8428 196.366 89.3734C196.658 88.0741 197.781 86.1898 199.318 86.3054C199.651 86.3369 199.971 86.4496 200.25 86.6337C200.529 86.8177 200.758 87.0675 200.918 87.3611C201.078 87.6547 201.164 87.983 201.167 88.3173C201.17 88.6516 201.091 88.9816 200.937 89.2782Z" fill="#EEC1BB"/>
<path d="M189.713 92.9108C190.134 93.4493 190.516 94.0177 190.855 94.6114C190.971 94.5767 191.084 94.5358 191.196 94.489C192.726 93.9039 193.236 93.1284 193.345 92.4482C193.394 92.1138 193.359 91.7725 193.243 91.455C193.187 91.2718 193.104 91.0977 192.998 90.938C192.213 91.7194 191.269 92.3226 190.23 92.7067C189.917 92.8359 189.713 92.9108 189.713 92.9108Z" fill="#263238"/>
<path d="M190.23 92.6999L190.583 93.1965C192.019 92.6387 192.957 92.0536 193.243 91.4482C193.187 91.265 193.104 91.0909 192.998 90.9312C192.213 91.7126 191.269 92.3158 190.23 92.6999Z" fill="white"/>
<path d="M191.196 94.489C192.726 93.904 193.236 93.1285 193.345 92.4482C192.769 92.6818 192.24 93.0158 191.781 93.4346C191.48 93.7161 191.275 94.085 191.196 94.489Z" fill="#DE5753"/>
<path d="M191.508 77.1626C191.508 77.1626 188.971 77.4211 187.781 78.598C186.59 79.7748 185.883 81.5163 186.359 81.6183C186.835 81.7204 188.093 80.8292 188.461 80.9381C188.828 81.0469 189.019 83.0945 190.23 82.2986C191.44 81.5027 190.719 81.5639 191.74 81.1966C192.76 80.8292 193.468 82.0741 193.896 81.9449C194.214 81.825 194.507 81.6474 194.76 81.4211C194.76 81.4211 193.338 81.1013 193.209 80.6728C193.08 80.2442 191.74 80.1354 191.74 80.1354C191.74 80.1354 193.332 79.4143 193.896 79.8224C194.461 80.2306 194.257 81.2918 195.604 81.1218C196.951 80.9517 199.161 81.9381 199.202 80.2034C199.243 78.4687 194.461 75.7204 191.508 77.1626Z" fill="#263238"/>
<path d="M91.523 105.441C91.523 105.441 85.3326 107.686 86.4142 110.822C87.4958 113.958 94.8903 109.72 94.8903 109.72L91.523 105.441Z" fill="#EBB376"/>
<path opacity="0.2" d="M91.523 105.441C91.523 105.441 85.3326 107.686 86.4142 110.822C87.4958 113.958 94.8903 109.72 94.8903 109.72L91.523 105.441Z" fill="black"/>
<path d="M102.224 98.5298C98.7883 99.2577 90.0469 105.21 90.0469 105.21L93.006 112.305L100.924 109.693L102.224 98.5298Z" fill="#263238"/>
<path d="M115.632 235.889L111.346 238.352L106.203 229.032L110.489 226.563L115.632 235.889Z" fill="#EEC1BB"/>
<path d="M110.822 237.801L115.584 234.774C115.66 234.719 115.753 234.693 115.847 234.7C115.94 234.707 116.028 234.748 116.094 234.814L118.972 237.801C119.093 237.947 119.152 238.135 119.137 238.324C119.122 238.514 119.033 238.689 118.89 238.814L118.768 238.896C117.108 239.91 116.203 240.372 114.135 241.692C112.856 242.495 107.462 245.399 105.468 245.542C103.475 245.685 103.251 243.794 104.06 243.501C108.142 241.978 109.754 240.025 110.278 238.488C110.378 238.205 110.57 237.963 110.822 237.801V237.801Z" fill="#263238"/>
<path opacity="0.2" d="M110.489 226.563L106.203 229.032L108.856 233.835L113.142 231.372L110.489 226.563Z" fill="black"/>
<path d="M98.5229 126.53C98.5229 126.53 84.4958 173.039 85.2645 186.862C86.108 202.019 106.482 233.903 106.482 233.903L114.162 229.052C114.162 229.052 99.7678 197.638 99.2304 186.005C100.026 169.175 117.523 128.298 117.523 128.298L98.5229 126.53Z" fill="#2C2E70"/>
<path opacity="0.2" d="M109.659 142.856C105.414 145.455 103.734 156.522 104.632 162.141C106.924 155.026 109.543 148.012 111.638 142.631C111.318 142.492 110.966 142.439 110.619 142.479C110.271 142.518 109.94 142.648 109.659 142.856V142.856Z" fill="black"/>
<path d="M105.632 234.61L114.686 228.869L113.203 226.318L103.707 232.107L105.632 234.61Z" fill="#2C2E70"/>
<path d="M109.843 239.372C109.571 239.569 109.246 239.678 108.911 239.685C108.804 239.672 108.702 239.631 108.616 239.567C108.53 239.503 108.463 239.417 108.421 239.318C108.39 239.261 108.375 239.198 108.375 239.134C108.375 239.07 108.39 239.007 108.421 238.95C108.761 238.427 110.57 238.345 110.774 238.345C110.795 238.342 110.816 238.347 110.833 238.358C110.851 238.369 110.864 238.386 110.87 238.406C110.883 238.424 110.89 238.445 110.89 238.467C110.89 238.489 110.883 238.511 110.87 238.529C110.557 238.844 110.213 239.126 109.843 239.372V239.372ZM108.741 238.95C108.693 238.976 108.653 239.013 108.625 239.059C108.609 239.08 108.6 239.105 108.6 239.131C108.6 239.157 108.609 239.182 108.625 239.202C108.649 239.273 108.693 239.336 108.752 239.382C108.812 239.428 108.883 239.455 108.958 239.461C109.554 239.357 110.093 239.046 110.482 238.583C109.884 238.599 109.294 238.723 108.741 238.95V238.95Z" fill="#2C2E70"/>
<path d="M110.836 238.556H110.781C110.217 238.61 108.87 238.27 108.7 237.774C108.676 237.691 108.68 237.602 108.712 237.522C108.744 237.442 108.802 237.375 108.877 237.331C108.944 237.274 109.022 237.231 109.106 237.205C109.19 237.18 109.279 237.172 109.366 237.182C110.047 237.243 110.843 238.325 110.87 238.393C110.882 238.409 110.889 238.429 110.889 238.45C110.889 238.471 110.882 238.492 110.87 238.508L110.836 238.556ZM109.053 237.488H109.013C108.89 237.59 108.911 237.651 108.917 237.678C109.019 237.971 109.938 238.284 110.543 238.325C110.305 238.018 109.781 237.433 109.332 237.393C109.234 237.384 109.137 237.408 109.053 237.461V237.488Z" fill="#2C2E70"/>
<path d="M124.972 241.495H120.21L119.815 230.454H124.584L124.972 241.495Z" fill="#EEC1BB"/>
<path d="M119.55 240.944H125.339C125.433 240.944 125.524 240.977 125.597 241.037C125.67 241.096 125.72 241.178 125.74 241.27L126.686 245.515C126.708 245.605 126.711 245.699 126.695 245.791C126.679 245.883 126.645 245.97 126.594 246.048C126.543 246.126 126.476 246.192 126.398 246.243C126.321 246.294 126.233 246.329 126.142 246.345C126.09 246.351 126.037 246.351 125.985 246.345C124.114 246.311 122.747 246.195 120.393 246.195C118.944 246.195 114.577 246.352 112.577 246.352C110.577 246.352 110.312 244.372 111.135 244.188C114.808 243.392 117.57 242.284 118.747 241.222C118.97 241.031 119.257 240.931 119.55 240.944V240.944Z" fill="#263238"/>
<path opacity="0.2" d="M124.584 230.461H119.815L120.019 236.154H124.788L124.584 230.461Z" fill="black"/>
<path d="M105.026 127.441C105.026 127.441 108.904 173.019 110.917 186.828C113.121 201.985 117.829 235.052 117.829 235.052H126.529C126.529 235.052 124.747 203.4 123.924 188.509C122.978 171.502 122.523 128.876 122.523 128.876L105.026 127.441Z" fill="#2C2E70"/>
<path d="M116.781 235.236H127.067V232.161L116.394 231.964L116.781 235.236Z" fill="#2C2E70"/>
<path d="M117.972 241.78C117.647 241.806 117.322 241.72 117.053 241.535C116.967 241.462 116.901 241.368 116.861 241.262C116.821 241.156 116.807 241.042 116.822 240.93C116.818 240.865 116.834 240.799 116.868 240.743C116.902 240.688 116.953 240.643 117.013 240.617C117.543 240.345 119.053 241.297 119.251 241.399C119.27 241.409 119.286 241.425 119.296 241.445C119.306 241.464 119.309 241.487 119.305 241.508C119.302 241.531 119.291 241.552 119.275 241.569C119.26 241.586 119.239 241.598 119.217 241.603C118.809 241.706 118.392 241.766 117.972 241.78V241.78ZM117.291 240.794C117.242 240.78 117.191 240.78 117.142 240.794C117.142 240.794 117.074 240.835 117.074 240.93C117.063 241.004 117.071 241.08 117.098 241.15C117.124 241.22 117.167 241.282 117.223 241.331C117.756 241.578 118.362 241.609 118.917 241.42C118.411 241.113 117.849 240.907 117.264 240.814L117.291 240.794Z" fill="#2C2E70"/>
<path d="M119.189 241.61H119.135C118.645 241.345 117.693 240.297 117.774 239.794C117.792 239.709 117.838 239.633 117.905 239.579C117.972 239.524 118.055 239.494 118.142 239.495C118.227 239.483 118.313 239.49 118.395 239.515C118.477 239.539 118.553 239.581 118.618 239.637C119.169 240.086 119.298 241.461 119.298 241.522C119.299 241.543 119.294 241.564 119.285 241.583C119.275 241.602 119.261 241.618 119.244 241.631L119.189 241.61ZM118.23 239.678H118.176C118.033 239.678 118.019 239.76 118.013 239.794C117.951 240.1 118.557 240.896 119.047 241.263C119.018 240.721 118.823 240.201 118.489 239.773C118.416 239.712 118.325 239.678 118.23 239.678V239.678Z" fill="#2C2E70"/>
<path d="M101.387 134.7L113.598 134.849V131.87H101.387V134.7Z" fill="black"/>
<path d="M114.523 131.87V134.856L122.87 134.958V131.87H114.523Z" fill="black"/>
<path d="M100.462 131.87H96.9107L96.5774 134.638L100.462 134.686V131.87Z" fill="black"/>
<path d="M108.74 131.325H103.938V134.788H108.74V131.325Z" fill="white"/>
<path d="M97.1216 131.448L123.128 133.169C124.55 120.577 128.693 107.625 129.931 103.047C130.017 102.73 129.976 102.392 129.815 102.106C129.655 101.82 129.389 101.608 129.074 101.516C127.788 101.142 126.455 100.836 125.108 100.509C119.036 99.2346 112.879 98.4092 106.686 98.04C105.195 97.9028 103.691 98.067 102.264 98.523C98.3257 109.571 97.4073 123.074 97.1216 131.448Z" fill="#263238"/>
<path opacity="0.6" d="M127.468 111.652C127.223 112.591 126.958 113.577 126.7 114.598C125.077 120.699 123.873 126.904 123.094 133.169L97.1216 131.448C97.3128 123.615 98.1478 115.811 99.6182 108.115C102.217 102.156 108.734 99.5706 108.734 99.5706C108.734 99.5706 109.455 101.108 112.686 101.557C115.917 102.006 120.23 100.999 120.23 100.999C125.264 104.965 126.529 112.244 126.529 112.244L127.468 111.652Z" fill="white"/>
<path opacity="0.2" d="M128.856 106.7C128.237 108.863 127.495 111.557 126.7 114.598C123.856 110.598 126.393 104.788 126.393 104.788C127.379 105.18 128.232 105.843 128.856 106.7V106.7Z" fill="black"/>
<path d="M120.407 99.7135C118.176 101.754 112.713 100.986 112.713 100.986C112.713 100.986 109.312 100.054 109.992 98.9856C112.033 98.659 112.979 97.7203 113.394 96.5162C113.611 95.7728 113.681 94.9939 113.598 94.2237C113.598 94.0332 113.564 93.8428 113.536 93.6591C113.509 93.4754 113.468 93.1829 113.428 92.9448L120.183 87.938C119.938 88.8496 119.679 89.9788 119.502 91.1829C119.026 94.0196 118.876 97.3053 120.019 99.1556C120.129 99.3542 120.259 99.5411 120.407 99.7135Z" fill="#EBB376"/>
<path opacity="0.2" d="M119.999 99.1556C118.452 99.1307 116.962 98.5687 115.785 97.5659C114.607 96.5631 113.814 95.182 113.543 93.6591C113.493 93.4233 113.457 93.1848 113.434 92.9448C115.362 92.0886 117.396 91.496 119.482 91.1829C119.006 94.0196 118.856 97.2781 119.999 99.1556Z" fill="black"/>
<path d="M122.312 77.0266C122.312 77.0266 125.441 82.8157 123.033 86.3395C120.625 89.8632 116.536 78.462 116.536 78.462L122.312 77.0266Z" fill="#263238"/>
<path d="M125.08 89.6183C125.066 89.8464 125.039 90.0736 124.999 90.2986C124.723 91.9465 123.83 93.4276 122.502 94.4414C121.308 95.3627 119.816 95.8109 118.312 95.6999C117.238 95.5997 116.211 95.212 115.339 94.5774C112.618 92.6387 112.169 89.9108 111.081 85.3598C110.818 84.303 110.828 83.1966 111.112 82.145C111.395 81.0935 111.942 80.1315 112.7 79.35C113.459 78.5684 114.404 77.993 115.446 77.6782C116.489 77.3633 117.594 77.3193 118.659 77.5504C123.495 78.5708 125.339 85.3054 125.08 89.6183Z" fill="#EBB376"/>
<path d="M118.305 85.4279C118.339 85.8088 118.618 86.0741 118.87 86.0265C119.121 85.9789 119.257 85.6456 119.189 85.2714C119.121 84.8973 118.87 84.6252 118.625 84.6728C118.38 84.7204 118.237 85.0333 118.305 85.4279Z" fill="#263238"/>
<path d="M122.543 84.6795C122.584 85.0537 122.863 85.319 123.108 85.2782C123.353 85.2374 123.496 84.8904 123.434 84.5163C123.373 84.1421 123.108 83.8768 122.87 83.9177C122.632 83.9585 122.482 84.353 122.543 84.6795Z" fill="#263238"/>
<path d="M121.23 85.1014C121.878 86.1705 122.673 87.1437 123.591 87.9925C123.367 88.2275 123.095 88.4103 122.793 88.5279C122.49 88.6455 122.166 88.695 121.842 88.6728L121.23 85.1014Z" fill="#D58745"/>
<path d="M123.808 82.5912C123.777 82.6175 123.738 82.6347 123.698 82.6407C123.657 82.6467 123.615 82.6413 123.577 82.6252C123.32 82.5141 123.04 82.4648 122.76 82.4813C122.48 82.4979 122.208 82.5798 121.965 82.7204C121.941 82.7374 121.914 82.7495 121.885 82.7559C121.856 82.7624 121.826 82.7631 121.797 82.7581C121.768 82.753 121.74 82.7423 121.715 82.7265C121.69 82.7107 121.669 82.6901 121.652 82.666C121.62 82.6178 121.607 82.5591 121.618 82.502C121.628 82.4449 121.66 82.394 121.706 82.3599V82.3599C122.009 82.1718 122.353 82.0599 122.708 82.0339C123.064 82.0078 123.42 82.0683 123.747 82.2102C123.775 82.22 123.8 82.2353 123.822 82.2551C123.843 82.275 123.861 82.2989 123.873 82.3256C123.885 82.3523 123.891 82.3811 123.892 82.4104C123.893 82.4396 123.887 82.4687 123.876 82.4959V82.4959C123.861 82.5325 123.838 82.565 123.808 82.5912V82.5912Z" fill="#263238"/>
<path d="M117.162 83.8837C117.12 83.8967 117.075 83.8967 117.033 83.8837C116.992 83.8418 116.969 83.7856 116.969 83.7272C116.969 83.6688 116.992 83.6126 117.033 83.5707C117.255 83.2925 117.539 83.071 117.863 82.9243C118.187 82.7776 118.542 82.7101 118.897 82.7272C118.955 82.7341 119.009 82.7636 119.046 82.8094C119.082 82.8551 119.1 82.9136 119.094 82.9721V82.9721C119.086 83.0311 119.055 83.0845 119.008 83.1213C118.961 83.158 118.902 83.1752 118.842 83.1694C118.563 83.1625 118.285 83.2203 118.032 83.3383C117.778 83.4563 117.555 83.6313 117.38 83.8496C117.35 83.8742 117.314 83.8903 117.276 83.8962C117.237 83.9022 117.198 83.8979 117.162 83.8837V83.8837Z" fill="#263238"/>
<path d="M113.448 79.0334L114.128 80.9926C113.829 81.2304 113.629 81.5718 113.568 81.9495C113.508 82.3272 113.591 82.7139 113.802 83.0334C114.836 84.5776 114.482 87.4211 113.407 88.7612C113.407 88.7612 113.203 88.0401 112.625 88.353C112.047 88.666 113.081 92.4346 114.666 93.9924C114.666 93.9924 112.468 92.7544 110.53 88.9857C108.734 85.4959 107.917 82.4347 108.353 80.8225L113.448 79.0334Z" fill="#263238"/>
<path d="M109.74 89.5162C110.438 90.465 111.482 91.1005 112.645 91.2849C114.189 91.5162 114.768 90.0877 114.183 88.7271C113.645 87.5231 112.203 85.9108 110.734 86.319C110.412 86.4071 110.118 86.5748 109.878 86.8067C109.638 87.0385 109.46 87.327 109.361 87.6456C109.262 87.9641 109.245 88.3025 109.311 88.6294C109.378 88.9564 109.525 89.2614 109.74 89.5162V89.5162Z" fill="#EBB376"/>
<path d="M108.291 81.8361C108.291 81.8361 107.23 79.2987 110.944 76.3259C114.659 73.3531 119.727 74.7341 122.121 72.3599C124.516 69.9858 126.203 77.2647 120.434 79.3735C116.509 80.7122 112.428 81.5399 108.291 81.8361Z" fill="#263238"/>
<path d="M121.768 90.0197C121.346 90.5463 120.964 91.1034 120.625 91.6864L120.291 91.5571C118.788 90.9653 118.291 90.1966 118.189 89.5163C118.139 88.9955 118.266 88.4728 118.55 88.0333C119.321 88.8116 120.248 89.4169 121.271 89.8088C121.557 89.9449 121.768 90.0197 121.768 90.0197Z" fill="#263238"/>
<path d="M121.251 89.7951L120.904 90.2781C119.489 89.7135 118.57 89.1285 118.298 88.5231C118.356 88.3448 118.439 88.1754 118.543 88.0197C119.31 88.7963 120.233 89.4015 121.251 89.7951V89.7951Z" fill="white"/>
<path d="M120.285 91.5571C118.781 90.9653 118.285 90.1966 118.183 89.5163C118.75 89.753 119.271 90.0894 119.72 90.5095C120.014 90.7906 120.211 91.1572 120.285 91.5571V91.5571Z" fill="#DE5753"/>
<path d="M86.3938 109.523C88.4346 106.618 90.6183 107.332 103.264 106.074C103.264 106.074 103.986 104.577 104.434 104.482C104.883 104.387 111.673 104.224 111.673 104.224L110.883 110.883C110.883 110.883 106.183 111.441 105.026 111.251C104.543 111.176 103.23 109.802 103.23 109.802C103.23 109.802 90.0469 113.448 88.2646 113.278C86.4823 113.108 85.0333 111.441 86.3938 109.523Z" fill="#EBB376"/>
<path d="M138.869 111.21C138.869 111.21 144.597 115.883 143.434 119.951C142.271 124.019 128.856 131.802 128.856 131.802C128.856 131.802 129.992 133.781 129.931 134.686C129.87 135.591 128.856 140.319 128.856 140.319L123.87 137.876C123.87 137.876 124.319 133.754 124.339 132.652C124.359 131.55 126.142 130.291 126.142 130.291C126.142 130.291 137.543 120.087 137.543 119.176C137.543 118.264 134.094 114.87 134.094 114.87L138.869 111.21Z" fill="#EBB376"/>
<path d="M129.033 101.509C132.836 103.298 140.407 112.244 140.407 112.244L134.761 118.754L126.529 112.244C126.529 112.244 125.72 107.06 126.373 104.761C126.803 103.373 127.757 102.206 129.033 101.509Z" fill="#263238"/>
<path opacity="0.2" d="M105.632 234.61L114.686 228.869L113.203 226.318L103.707 232.107L105.632 234.61Z" fill="black"/>
<path opacity="0.2" d="M116.781 235.236H127.067V232.161L116.394 231.964L116.781 235.236Z" fill="black"/>
<path d="M120.672 112.502C120.672 113.006 124.992 113.686 124.992 113.686C124.992 113.686 128.836 126.455 130.536 126.495C131.563 126.495 135.665 124.21 138.774 122.373C140.312 121.462 141.604 120.666 142.176 120.332L142.461 120.155L142.584 118.407L142.713 116.645L142.924 113.686C140.42 114.366 132.856 120.666 131.747 121.169C130.638 121.672 127.04 112.067 127.04 112.067C127.04 112.067 127.312 111.155 127.04 110.768C126.305 109.693 120.863 108.727 120.693 108.577C120.523 108.428 120.672 111.985 120.672 112.502Z" fill="#E4897B"/>
<path opacity="0.2" d="M138.774 122.373C140.312 121.461 141.604 120.666 142.176 120.332C142.339 119.652 142.475 118.972 142.584 118.407C142.801 117.291 142.924 116.496 142.924 116.496L142.713 116.645C141.876 117.217 138.91 119.509 138.774 122.373Z" fill="black"/>
<path d="M161.271 90.7135C168.713 92.5366 169.345 100.237 166.93 104.999C164.515 109.761 161.277 108.951 160.808 111.768C160.339 114.584 158.699 113.523 158.699 113.523L158.774 112.468C158.774 112.468 157.76 114.121 155.373 113.434C154.163 113.157 153.012 112.669 151.971 111.992L151.053 112.509C151.053 112.509 149.148 111.972 149.842 110.162C150.536 108.353 147.835 102.23 148.359 97.9175C148.883 93.6046 152.441 93.074 157.509 94.0196L161.271 90.7135Z" fill="#263238"/>
<path d="M124.223 241.59L128.114 242.277L129.713 236.971L131.169 232.1L126.679 230.535L125.38 236.386L124.223 241.59Z" fill="#E4897B"/>
<path opacity="0.2" d="M125.359 236.508L129.693 237.08L131.162 232.154L126.679 230.563L125.359 236.508Z" fill="black"/>
<path d="M150.203 243.386H154.155L154.808 237.821L155.393 232.739L150.699 231.957L150.434 238.005L150.203 243.386Z" fill="#E4897B"/>
<path opacity="0.2" d="M150.434 238.052L154.808 237.862L155.393 232.76L150.699 231.971L150.434 238.052Z" fill="black"/>
<path d="M124.992 233.42L131.386 234.549C137.842 218.461 142.434 205.039 145.672 193.896C147.42 187.883 148.876 182.536 149.924 177.794L149.726 195.304V234.76H156.032C171.835 159.488 160.638 142.339 160.638 142.339L141.726 139.189C140.978 142.688 140.446 146.23 140.135 149.795L139.278 156.067L131.89 194.243L124.992 233.42Z" fill="#2C2E70"/>
<g opacity="0.6">
<path opacity="0.6" d="M124.992 233.42L131.386 234.549C137.842 218.461 142.434 205.039 145.672 193.896C147.42 187.883 148.876 182.536 149.924 177.794L149.726 195.304V234.76H156.032C171.835 159.488 160.638 142.339 160.638 142.339L141.726 139.189C140.978 142.688 140.446 146.23 140.135 149.795L139.278 156.067L131.89 194.243L124.992 233.42Z" fill="white"/>
</g>
<path opacity="0.2" d="M145.679 193.876C147.427 187.862 148.788 182.515 149.835 177.774C149.744 172.159 149.336 166.554 148.611 160.985C148.611 160.985 145.842 182.658 145.679 193.876Z" fill="black"/>
<path d="M141.278 137.72L160.597 139.958C160.78 135.838 161.442 131.754 162.57 127.788C162.781 127.053 163.012 126.278 163.25 125.448C163.55 124.495 163.89 123.473 164.271 122.38C164.563 121.536 164.883 120.638 165.237 119.659C165.332 119.38 165.441 119.094 165.55 118.808C165.903 117.849 166.284 116.829 166.706 115.754C164.175 115.037 161.6 114.482 158.999 114.094C156.235 113.66 153.448 113.398 150.652 113.312C147.04 113.312 142.883 113.645 142.883 113.645C142.883 113.645 142.298 113.774 141.924 117.189C140.958 123.989 140.741 130.873 141.278 137.72Z" fill="#2C2E70"/>
<path d="M150.883 114.428C151.065 114.335 151.254 114.256 151.448 114.189C151.876 113.849 152.4 113.033 152.373 111.053C152.359 110.276 152.288 109.501 152.162 108.734L157.672 107.707C157.672 107.707 155.788 111.414 157.359 114.169C157.897 114.407 158.223 114.747 158.162 115.196C157.747 118.38 151.679 119.006 151.679 119.006C151.679 119.006 147.563 116.257 150.883 114.428Z" fill="#E4897B"/>
<path opacity="0.2" d="M152.155 108.734C152.286 109.5 152.359 110.276 152.373 111.053C156.094 111.053 157.672 107.707 157.672 107.707L152.155 108.734Z" fill="black"/>
<path d="M158.23 91.006C158.23 91.006 152.257 88.4074 149.659 93.0468C148.913 94.3694 148.558 95.8768 148.636 97.3933C148.715 98.9097 149.222 100.373 150.101 101.611L158.23 91.006Z" fill="#263238"/>
<path d="M158.019 93.8291C153.495 92.2373 151.216 94.1489 149.209 98.693C146.74 104.373 146.577 108.972 152.672 109.72C160.958 110.734 165.536 96.4754 158.019 93.8291Z" fill="#E4897B"/>
<path d="M152.223 99.4685C151.624 100.02 150.959 100.495 150.244 100.883C150.314 101.115 150.446 101.323 150.624 101.487C150.802 101.651 151.021 101.764 151.257 101.815L152.223 99.4685Z" fill="#DE5753"/>
<path d="M155.101 100.074C154.958 100.448 155.046 100.822 155.291 100.911C155.536 100.999 155.849 100.781 155.971 100.414C156.094 100.047 156.026 99.6726 155.781 99.5773C155.536 99.4821 155.264 99.7066 155.101 100.074Z" fill="#263238"/>
<path d="M155.917 99.6318L155.237 99.0128C155.237 99.0128 155.38 99.8427 155.917 99.6318Z" fill="#263238"/>
<path d="M150.57 98.2644C150.427 98.6318 150.516 99.0059 150.761 99.1011C151.005 99.1964 151.318 98.9719 151.441 98.5978C151.563 98.2236 151.495 97.8563 151.25 97.7678C151.005 97.6794 150.706 97.8971 150.57 98.2644Z" fill="#263238"/>
<path d="M151.366 97.8222L150.686 97.2032C150.686 97.2032 150.822 98.0263 151.366 97.8222Z" fill="#263238"/>
<path d="M157.992 98.5774C157.944 98.5771 157.897 98.5619 157.858 98.5339C157.819 98.5058 157.79 98.4663 157.774 98.4209C157.624 98.1135 157.407 97.8438 157.138 97.6318C156.87 97.4198 156.557 97.271 156.223 97.1964C156.193 97.1902 156.165 97.1781 156.139 97.1608C156.114 97.1436 156.093 97.1216 156.076 97.096C156.059 97.0704 156.048 97.0418 156.042 97.0117C156.036 96.9817 156.037 96.9508 156.043 96.9209C156.049 96.891 156.061 96.8626 156.078 96.8373C156.096 96.8121 156.118 96.7905 156.143 96.7737C156.169 96.757 156.197 96.7454 156.227 96.7398C156.257 96.7341 156.288 96.7344 156.318 96.7406C156.73 96.8308 157.115 97.0154 157.443 97.2798C157.771 97.5443 158.034 97.8813 158.209 98.2644C158.22 98.293 158.225 98.3235 158.224 98.354C158.223 98.3846 158.216 98.4146 158.204 98.4425C158.191 98.4703 158.173 98.4954 158.151 98.5162C158.128 98.537 158.102 98.5532 158.073 98.5638L157.992 98.5774Z" fill="#263238"/>
<path d="M153.06 95.8494C153.034 95.8503 153.007 95.846 152.983 95.8366C152.958 95.8273 152.936 95.8131 152.917 95.795C152.662 95.6325 152.374 95.5287 152.074 95.491C151.774 95.4534 151.47 95.4829 151.182 95.5773C151.153 95.5855 151.123 95.5877 151.093 95.5839C151.063 95.58 151.034 95.5702 151.008 95.555C150.982 95.5397 150.959 95.5194 150.941 95.4952C150.923 95.471 150.911 95.4434 150.903 95.4141C150.895 95.3846 150.893 95.3538 150.897 95.3234C150.9 95.293 150.91 95.2637 150.925 95.2371C150.941 95.2105 150.961 95.1872 150.985 95.1686C151.009 95.1499 151.037 95.1362 151.067 95.1284C151.424 95.0128 151.802 94.9803 152.174 95.0334C152.545 95.0864 152.899 95.2236 153.21 95.4345C153.258 95.4743 153.289 95.5317 153.295 95.5941C153.301 95.6566 153.283 95.719 153.244 95.7678C153.22 95.7936 153.192 95.8143 153.16 95.8283C153.129 95.8424 153.095 95.8496 153.06 95.8494Z" fill="#263238"/>
<path d="M160.277 103.196C160.277 103.196 159.475 98.7338 160.801 95.9787C160.801 95.9787 153.128 89.1761 149.475 98.1012C149.475 98.1012 151.448 89.7135 159.291 92.2713C167.134 94.8291 163.094 106.203 157.883 108.176C157.883 108.162 160.767 105.985 160.277 103.196Z" fill="#263238"/>
<path d="M157.55 90.4142C157.55 90.4142 154.039 88.3734 152.679 89.0536C151.318 89.7339 156.89 99.0263 160.679 100.904C160.679 100.904 160.74 105.727 159.067 107.482C159.067 107.482 164.019 107.224 166.23 100.434C168.441 93.6454 161.992 89.006 157.55 90.4142Z" fill="#263238"/>
<path d="M159.182 103.897C159.41 103.388 159.83 102.991 160.35 102.791C160.87 102.59 161.448 102.604 161.958 102.829C163.318 103.509 162.965 106.591 159.237 106.06C158.713 105.979 158.604 105.394 159.182 103.897Z" fill="#E4897B"/>
<path d="M157.822 100.258C157.772 100.258 157.724 100.241 157.686 100.21C152.863 96.6998 152.679 89.6114 152.679 89.5366C152.679 89.4746 152.703 89.4151 152.746 89.3706C152.789 89.3262 152.848 89.3003 152.91 89.2985C152.972 89.2985 153.032 89.3226 153.076 89.3658C153.121 89.409 153.146 89.4679 153.148 89.5298C153.148 89.5978 153.325 96.4617 157.965 99.8358C158.013 99.8736 158.045 99.9286 158.054 99.9895C158.063 100.05 158.048 100.112 158.012 100.162C157.99 100.192 157.962 100.217 157.928 100.233C157.895 100.25 157.859 100.258 157.822 100.258Z" fill="#263238"/>
<path d="M150.25 103.264C150.368 103.939 150.436 104.621 150.454 105.305L150.808 105.353C152.407 105.55 153.216 105.115 153.631 104.571C153.822 104.299 153.948 103.987 153.999 103.659C154.025 103.472 154.025 103.282 153.999 103.094C152.957 103.412 151.859 103.5 150.781 103.353C150.461 103.298 150.25 103.264 150.25 103.264Z" fill="#263238"/>
<path d="M150.801 103.326L150.876 103.917C152.38 104.101 153.468 104.026 153.999 103.632C154.025 103.444 154.025 103.254 153.999 103.067C152.964 103.382 151.873 103.47 150.801 103.326Z" fill="white"/>
<path d="M150.808 105.326C152.407 105.523 153.216 105.087 153.631 104.543C153.021 104.48 152.404 104.523 151.808 104.672C151.413 104.776 151.062 105.005 150.808 105.326Z" fill="#DE5753"/>
<path d="M160.563 139.672L141.278 138.006V141.312L161.026 143.053L160.563 139.672Z" fill="black"/>
<path d="M146.658 139.454V140.985C146.657 141.284 146.769 141.572 146.97 141.793C147.172 142.013 147.449 142.15 147.747 142.176L150.155 142.393H150.264C150.421 142.394 150.577 142.364 150.723 142.304C150.869 142.244 151.001 142.156 151.112 142.045C151.224 141.933 151.312 141.801 151.372 141.655C151.432 141.51 151.462 141.353 151.461 141.196V139.659C151.462 139.359 151.35 139.069 151.147 138.849C150.944 138.628 150.665 138.492 150.366 138.468L147.958 138.257C147.792 138.243 147.625 138.264 147.468 138.317C147.311 138.371 147.167 138.457 147.044 138.57C146.922 138.682 146.825 138.819 146.758 138.971C146.692 139.124 146.658 139.288 146.658 139.454ZM147.278 140.985V140.482L147.958 140.536C148.065 140.542 148.169 140.506 148.251 140.436C148.332 140.367 148.383 140.268 148.393 140.162C148.398 140.108 148.392 140.054 148.375 140.003C148.359 139.952 148.333 139.904 148.298 139.863C148.263 139.822 148.221 139.788 148.173 139.764C148.125 139.739 148.073 139.724 148.019 139.72L147.339 139.665H147.25V139.454C147.248 139.374 147.263 139.294 147.295 139.22C147.327 139.146 147.374 139.08 147.434 139.026C147.54 138.924 147.682 138.868 147.829 138.869H147.876L150.284 139.074C150.429 139.086 150.564 139.152 150.663 139.259C150.761 139.366 150.815 139.506 150.815 139.652V141.189C150.816 141.27 150.799 141.35 150.766 141.424C150.733 141.498 150.685 141.564 150.624 141.618C150.567 141.675 150.498 141.719 150.421 141.745C150.344 141.771 150.262 141.778 150.182 141.767L147.774 141.557C147.639 141.537 147.515 141.471 147.424 141.369C147.333 141.266 147.281 141.135 147.278 140.999V140.985Z" fill="white"/>
<path d="M121.468 241.78C121.145 241.806 120.823 241.72 120.557 241.535C120.47 241.462 120.402 241.369 120.361 241.263C120.319 241.157 120.305 241.043 120.319 240.93C120.316 240.865 120.333 240.801 120.367 240.745C120.401 240.689 120.45 240.645 120.509 240.617C121.04 240.345 122.55 241.297 122.747 241.399C122.767 241.409 122.783 241.425 122.792 241.445C122.802 241.464 122.805 241.487 122.802 241.508C122.799 241.53 122.789 241.551 122.775 241.568C122.76 241.585 122.741 241.597 122.72 241.603C122.31 241.706 121.891 241.766 121.468 241.78ZM120.788 240.794C120.741 240.78 120.692 240.78 120.645 240.794C120.611 240.794 120.577 240.835 120.57 240.93C120.56 241.004 120.568 241.079 120.594 241.15C120.62 241.22 120.664 241.282 120.72 241.331C121.255 241.577 121.863 241.609 122.421 241.42C121.912 241.112 121.348 240.907 120.761 240.814L120.788 240.794Z" fill="#263238"/>
<path d="M122.686 241.61H122.632C122.142 241.345 121.189 240.297 121.271 239.794C121.288 239.709 121.334 239.633 121.401 239.579C121.468 239.524 121.552 239.494 121.638 239.494C121.723 239.483 121.81 239.49 121.892 239.515C121.974 239.539 122.05 239.581 122.115 239.637C122.666 240.086 122.795 241.46 122.795 241.522C122.795 241.543 122.791 241.564 122.781 241.583C122.772 241.602 122.758 241.618 122.74 241.631L122.686 241.61ZM121.734 239.678H121.679C121.53 239.678 121.516 239.76 121.509 239.794C121.455 240.1 122.06 240.896 122.55 241.263C122.515 240.721 122.318 240.203 121.985 239.773C121.925 239.72 121.848 239.686 121.768 239.678H121.734Z" fill="#263238"/>
<path d="M147.999 241.78C147.676 241.806 147.353 241.72 147.087 241.535C147 241.462 146.933 241.369 146.891 241.263C146.849 241.157 146.835 241.043 146.849 240.93C146.847 240.865 146.864 240.801 146.897 240.745C146.931 240.689 146.981 240.645 147.039 240.617C147.57 240.345 149.08 241.297 149.278 241.399C149.297 241.409 149.313 241.425 149.323 241.445C149.333 241.464 149.336 241.487 149.332 241.508C149.329 241.53 149.32 241.551 149.305 241.568C149.291 241.585 149.272 241.597 149.25 241.603C148.841 241.706 148.421 241.766 147.999 241.78ZM147.318 240.794C147.272 240.78 147.222 240.78 147.175 240.794C147.141 240.794 147.107 240.835 147.101 240.93C147.09 241.004 147.098 241.079 147.125 241.15C147.151 241.22 147.194 241.282 147.25 241.331C147.785 241.577 148.394 241.609 148.951 241.42C148.442 241.112 147.878 240.907 147.291 240.814L147.318 240.794Z" fill="#263238"/>
<path d="M149.216 241.61H149.162C148.672 241.345 147.72 240.297 147.801 239.794C147.819 239.709 147.865 239.633 147.932 239.579C147.999 239.524 148.082 239.494 148.169 239.494C148.254 239.483 148.34 239.49 148.422 239.515C148.504 239.539 148.58 239.581 148.645 239.637C149.196 240.086 149.325 241.46 149.325 241.522C149.326 241.543 149.321 241.564 149.312 241.583C149.302 241.602 149.288 241.618 149.271 241.631L149.216 241.61ZM148.264 239.678H148.209C148.06 239.678 148.046 239.76 148.039 239.794C147.985 240.1 148.59 240.896 149.08 241.263C149.045 240.721 148.848 240.203 148.516 239.773C148.455 239.72 148.379 239.686 148.298 239.678H148.264Z" fill="#263238"/>
<path d="M123.047 240.943H128.836C128.931 240.943 129.023 240.975 129.098 241.034C129.172 241.094 129.223 241.177 129.244 241.27L130.182 245.515C130.204 245.605 130.207 245.699 130.192 245.791C130.176 245.882 130.141 245.97 130.09 246.048C130.039 246.125 129.973 246.192 129.895 246.243C129.817 246.294 129.73 246.329 129.638 246.345C129.586 246.352 129.534 246.352 129.482 246.345C127.611 246.311 126.251 246.195 123.897 246.195C122.448 246.195 118.074 246.352 116.074 246.352C114.074 246.352 113.815 244.372 114.632 244.188C118.305 243.392 121.067 242.284 122.244 241.222C122.466 241.031 122.753 240.931 123.047 240.943Z" fill="#2C2E70"/>
<path d="M149.577 240.943H155.366C155.461 240.943 155.554 240.975 155.628 241.034C155.702 241.094 155.754 241.177 155.774 241.27L156.713 245.515C156.735 245.605 156.738 245.699 156.722 245.791C156.706 245.882 156.672 245.97 156.621 246.048C156.57 246.125 156.503 246.192 156.425 246.243C156.348 246.294 156.26 246.329 156.169 246.345C156.117 246.352 156.064 246.352 156.012 246.345C154.141 246.311 152.781 246.195 150.427 246.195C148.978 246.195 144.604 246.352 142.604 246.352C140.604 246.352 140.346 244.372 141.162 244.188C144.835 243.392 147.597 242.284 148.774 241.222C148.997 241.031 149.284 240.931 149.577 240.943Z" fill="#2C2E70"/>
<path d="M145.971 113.659C146.006 114.354 146.177 115.036 146.475 115.666C146.69 116.148 146.976 116.595 147.325 116.992C148.458 118.238 150.006 119.028 151.679 119.217C153.74 119.588 155.866 119.307 157.76 118.414C158.144 118.228 158.517 118.019 158.876 117.788C159.969 117.095 160.914 116.194 161.658 115.135C161.232 114.961 160.796 114.811 160.352 114.686C160.067 114.604 159.767 114.53 159.454 114.468C156.128 113.852 152.749 113.562 149.366 113.604H148.298C146.876 113.604 145.971 113.659 145.971 113.659Z" fill="#E4897B"/>
<path d="M146.475 115.645C146.69 116.128 146.976 116.575 147.325 116.972C147.359 116.281 147.563 115.609 147.919 115.015C148.275 114.422 148.772 113.926 149.366 113.57H148.298C147.852 113.747 147.454 114.028 147.137 114.388C146.82 114.749 146.593 115.18 146.475 115.645Z" fill="#263238"/>
<path d="M157.747 118.366V118.414C158.131 118.228 158.503 118.019 158.863 117.788C158.887 117.198 159.031 116.62 159.284 116.087C159.538 115.554 159.897 115.077 160.339 114.686C160.053 114.604 159.754 114.53 159.441 114.468C157.618 115.482 157.747 118.366 157.747 118.366Z" fill="#263238"/>
<path opacity="0.2" d="M163.264 125.448C163.563 124.495 163.903 123.473 164.284 122.38C164.577 121.536 164.896 120.638 165.25 119.659C165.077 119.234 164.815 118.852 164.481 118.536C164.481 118.536 163.073 122.448 163.264 125.448Z" fill="black"/>
<path d="M166.726 115.788C169.196 117.006 176.57 128.713 174.468 132.652C172.366 136.591 162.903 140.053 162.903 140.053C162.903 140.053 166.849 142.223 166.713 142.774C166.577 143.325 163.311 145.495 162.903 145.495C161.768 144.629 160.704 143.673 159.72 142.638C159.25 142.108 159.658 139.876 159.658 139.876C162.325 137.706 169.652 132.482 170.101 131.312C170.55 130.142 164.373 122.081 164.373 122.081C164.373 122.081 164.196 118.734 164.937 117.237C165.679 115.74 166.726 115.788 166.726 115.788Z" fill="#E4897B"/>
</svg>
