<svg width="16" height="13" viewBox="0 0 16 13" fill="none" xmlns="http://www.w3.org/2000/svg">
<path fill-rule="evenodd" clip-rule="evenodd" d="M13.7402 2.71897H11.5955V1.40205C11.5955 0.677754 10.9521 0.085144 10.1657 0.085144H5.87633C5.08995 0.085144 4.44654 0.677754 4.44654 1.40205V2.71897H2.30186C1.51548 2.71897 0.87207 3.31157 0.87207 4.03588V11.2789C0.87207 12.0032 1.51548 12.5958 2.30186 12.5958H13.7402C14.5266 12.5958 15.17 12.0032 15.17 11.2789V4.03588C15.17 3.31157 14.5266 2.71897 13.7402 2.71897ZM5.87635 1.40206H10.1657V2.71897H5.87635V1.40206ZM13.7405 11.2789H2.30221V9.96199H13.7405V11.2789ZM13.7405 7.98662H2.30221V4.03589H4.4469V5.3528H5.87668V4.03589H10.166V5.3528H11.5958V4.03589H13.7405V7.98662Z" fill="#BABABA"/>
</svg>
