<svg width="92" height="33" viewBox="0 0 92 33" fill="none" xmlns="http://www.w3.org/2000/svg">
<g opacity="0.5">
<path d="M18.224 4.99894C18.3414 4.37036 18.6265 4.00644 19.18 3.75832C19.4483 3.62598 19.7502 3.54328 20.0353 3.51019C26.5259 2.65003 31.3225 2.2034 36.5216 2.2034C39.4399 2.2034 42.4755 2.35227 46.0143 2.63348C47.0709 2.71619 48.1107 2.89815 49.1338 3.1959C54.3664 4.68465 57.8717 6.4877 62.4838 9.8622C63.205 10.3915 63.8088 11.0697 64.228 11.8803C64.5299 12.4592 64.748 13.0051 64.9828 13.7495C51.3308 12.3435 38.769 11.4502 21.8466 10.987C21.3603 10.9705 20.8571 10.9043 20.3875 10.7389C19.4819 10.4412 18.9955 9.99453 18.6433 9.28324C18.5427 9.0682 18.4756 8.82007 18.4588 8.57195C18.4085 7.86066 18.2576 6.25611 18.2072 5.61099C18.1737 5.39595 18.1905 5.19744 18.224 4.99894ZM36.5216 3.31169C32.4294 3.31169 28.572 3.60944 24.3959 4.08915L25.1338 9.96145C30.6349 10.1269 35.7669 10.3584 40.7984 10.6562L39.356 3.36132C38.3833 3.31169 37.4441 3.31169 36.5216 3.31169ZM63.2218 12.3765C62.8863 11.7314 62.3832 11.169 61.813 10.7389C57.1673 7.34786 53.7627 5.64407 48.8151 4.23803C47.8927 3.97336 46.9199 3.80794 45.9136 3.72523C44.0688 3.57636 42.3916 3.46057 40.7984 3.3944L42.9283 10.772C49.6201 11.1855 56.1945 11.7314 63.2721 12.4427C63.2385 12.4262 63.2385 12.4096 63.2218 12.3765ZM19.3142 5.49519C19.3645 6.12378 19.4986 7.74486 19.5657 8.45616C19.5825 8.58849 19.5993 8.70428 19.6496 8.78699C19.8508 9.18399 20.0856 9.4652 20.7565 9.68024C21.0919 9.79603 21.4777 9.8622 21.8802 9.8622C22.7523 9.87874 23.6244 9.91182 24.4965 9.94491L23.7586 4.17186C22.6014 4.30419 21.4106 4.45307 20.1863 4.61849C19.985 4.65157 19.8173 4.70119 19.6664 4.76736C19.4316 4.88315 19.3812 4.93278 19.3309 5.21399C19.2974 5.28015 19.2974 5.3794 19.3142 5.49519Z" fill="#333333"/>
<path d="M40.2958 7.14814C40.4467 5.99022 41.1008 5.17968 41.6207 5.19622C41.7884 5.19622 42.4761 5.52705 42.4761 5.52705C42.9792 5.77518 43.2811 6.63534 43.1469 7.7271C43.0295 8.66997 42.6102 9.41435 42.1406 9.62939L42.9792 11.3166V11.449L40.7654 11.5151L40.4132 8.96772L40.5977 9.03389C40.3125 8.60381 40.1951 7.90905 40.2958 7.14814Z" fill="#1A1A1A"/>
<path d="M56.6648 13.4177L58.4091 9.3815C58.4929 9.19955 58.711 9.1003 58.9122 9.183C59.0967 9.26571 59.1973 9.48075 59.1135 9.67925L58.5768 10.9199L58.7613 11.0026L59.298 9.74542C59.3315 9.67925 59.3986 9.62963 59.4824 9.62963C59.9856 9.66271 61.6292 9.86121 63.5747 10.1424V13.2192L57.755 13.4177L57.8388 13.2357L57.5873 13.2523L57.386 13.7154C57.3022 13.8974 57.0841 13.9966 56.8829 13.9139C56.6648 13.8147 56.581 13.5996 56.6648 13.4177Z" fill="#262626"/>
</g>
<path d="M66.3423 25.6107C66.3423 26.719 66.4262 27.5957 66.5101 28.6213L82.6442 28.1912C82.879 27.3641 83.0467 26.5205 83.0467 25.6107C83.0467 21.0948 79.3067 17.4391 74.6945 17.4391C70.0824 17.4226 66.3423 21.0948 66.3423 25.6107Z" fill="#46494B"/>
<path d="M7.40722 25.8267C7.40722 26.3726 7.42399 26.8688 7.45753 27.3485L7.5917 27.3651L23.5916 28.4072C23.6755 27.5801 23.709 26.7365 23.709 25.8267C23.709 21.3108 20.0529 17.6551 15.5581 17.6551C11.0634 17.6551 7.40722 21.3108 7.40722 25.8267Z" fill="#46494B"/>
<path d="M74.6929 18.8786C78.5335 18.8786 81.6362 21.9554 81.6362 25.7269C81.6362 29.5149 78.5335 32.5751 74.6929 32.5751C70.8522 32.5751 67.7495 29.5149 67.7495 25.7269C67.7495 21.9554 70.8522 18.8786 74.6929 18.8786ZM74.6929 30.7721C77.5104 30.7721 79.7914 28.5224 79.7914 25.7434C79.7914 22.9644 77.5104 20.7147 74.6929 20.7147C71.8753 20.7147 69.5943 22.9644 69.5943 25.7434C69.5943 28.5059 71.8753 30.7721 74.6929 30.7721Z" fill="url(#paint0_radial)"/>
<path d="M74.794 31.0523C71.8578 31.0523 69.4775 28.7046 69.4775 25.8086C69.4775 22.9126 71.8578 20.5649 74.794 20.5649C77.7303 20.5649 80.1106 22.9126 80.1106 25.8086C80.1106 28.7046 77.7303 31.0523 74.794 31.0523Z" fill="#303030"/>
<path d="M74.7935 29.3336C72.8298 29.3336 71.238 27.7636 71.238 25.8268C71.238 23.89 72.8298 22.32 74.7935 22.32C76.7572 22.32 78.349 23.89 78.349 25.8268C78.349 27.7636 76.7572 29.3336 74.7935 29.3336Z" fill="url(#paint1_radial)"/>
<path d="M70.9865 25.2962C71.0535 24.833 71.2045 24.3864 71.4225 24.0059C71.5399 23.7909 71.7915 23.427 72.0431 23.1623C72.3785 22.8149 72.7642 22.5503 73.1667 22.3683C73.2171 22.3352 73.2841 22.3683 73.3177 22.4179L73.737 23.1127C73.8208 23.2285 73.8041 23.4104 73.7034 23.5097C73.5357 23.6255 73.4015 23.7247 73.2674 23.8405C72.8984 24.1548 72.6301 24.5683 72.4456 24.9984C72.4456 24.9984 72.4456 24.9984 72.4456 25.015C72.3785 25.1969 72.3114 25.3954 72.3114 25.5939C72.2946 25.9248 72.3114 26.2391 72.3953 26.5699C72.4456 26.7518 72.4959 26.9338 72.5462 27.1323C72.563 27.2812 72.4791 27.4301 72.3282 27.4797L71.5735 27.794C71.5231 27.8105 71.4561 27.794 71.4225 27.7443C71.2548 27.4301 71.02 26.7022 71.02 26.6857C70.9361 26.2225 70.9194 25.7593 70.9865 25.2962Z" fill="url(#paint2_linear)"/>
<path d="M74.7936 20.7816C77.6112 20.7816 79.8921 23.0312 79.8921 25.8102C79.8921 28.5892 77.6112 30.8389 74.7936 30.8389C71.976 30.8389 69.6951 28.5892 69.6951 25.8102C69.6951 23.0478 71.976 20.7816 74.7936 20.7816ZM74.7936 29.9291C77.0913 29.9291 78.9529 28.093 78.9529 25.8268C78.9529 23.5606 77.0913 21.7244 74.7936 21.7244C72.4959 21.7244 70.6343 23.5606 70.6343 25.8268C70.6343 28.093 72.4959 29.9291 74.7936 29.9291Z" fill="url(#paint3_radial)"/>
<path d="M73.1164 24.6659L71.2716 23.5576C71.2883 23.541 72.4791 22.3666 72.4959 22.35L73.6363 24.1696C73.9382 24.3847 74.3407 24.2358 74.4414 23.8388L73.9382 21.7711C73.955 21.7711 75.6657 21.7711 75.6824 21.7711L75.1793 23.8553C75.2464 24.2193 75.6321 24.3847 75.9843 24.1696L77.108 22.35C77.1248 22.3666 78.3156 23.541 78.3323 23.5576L76.4875 24.6824C76.2694 24.9802 76.4372 25.3606 76.8229 25.4599L78.9193 24.9636C78.9193 24.9802 78.9193 26.6509 78.9193 26.6674L76.8061 26.1712C76.4372 26.2373 76.2694 26.6178 76.4875 26.9652L78.3323 28.09C78.3156 28.1065 77.1248 29.281 77.108 29.2975L75.9676 27.478C75.6657 27.2629 75.2799 27.4118 75.1625 27.8088L75.6657 29.893C75.6489 29.893 73.9718 29.9096 73.955 29.893L74.4414 27.8088C74.3743 27.4449 73.9885 27.2795 73.6363 27.478L72.4959 29.2975C72.4791 29.281 71.2883 28.1065 71.2716 28.09L73.1164 26.9817C73.3344 26.684 73.1835 26.287 72.781 26.1877L70.6846 26.684C70.6846 26.6674 70.6846 24.9967 70.6846 24.9802L72.781 25.4764C73.1667 25.3937 73.3344 25.0132 73.1164 24.6659Z" fill="url(#paint4_radial)"/>
<path d="M73.4014 24.8654L71.0534 23.1451C71.1876 22.9797 71.9087 22.2849 72.0764 22.136L73.8375 24.4519C74.089 24.6338 74.4077 24.5015 74.4915 24.1707L74.0723 21.3089C74.2903 21.2924 75.3133 21.2924 75.5146 21.3089L75.0953 24.1707C75.1456 24.4684 75.4643 24.6007 75.7662 24.4353L77.5104 22.1195C77.6781 22.2518 78.3993 22.9631 78.5335 23.1285L76.1855 24.8654C76.001 25.1135 76.1351 25.4278 76.4706 25.5105L79.3553 25.1135C79.372 25.3286 79.372 26.3211 79.3553 26.5361L76.4538 26.1226C76.1519 26.1722 76.0177 26.4865 76.1855 26.7842L78.5335 28.5046C78.4161 28.6535 77.6949 29.3648 77.5104 29.5136L75.7494 27.1978C75.4978 27.0158 75.1792 27.1482 75.0953 27.4625L75.5146 30.3242C75.3133 30.3407 74.2903 30.3407 74.0723 30.3242L74.4915 27.4625C74.4412 27.1482 74.1226 27.0158 73.8375 27.1978L72.0764 29.5136C71.9087 29.3978 71.2043 28.67 71.0534 28.5046L73.4014 26.7842C73.5859 26.5361 73.4517 26.2218 73.133 26.1226L70.2316 26.5361C70.2148 26.3211 70.2148 25.312 70.2316 25.1135L73.133 25.5271C73.4517 25.4775 73.5859 25.1632 73.4014 24.8654Z" fill="url(#paint5_radial)"/>
<path d="M73.7359 25.0976L70.8177 22.6825C71.086 22.3517 71.2705 22.1862 71.6059 21.905L74.0545 24.7833C74.2558 24.9156 74.4906 24.8164 74.5577 24.5682L74.2223 20.8298C74.6583 20.7967 74.9267 20.7802 75.3292 20.8298L74.9937 24.5848C75.0273 24.8164 75.2789 24.9156 75.4969 24.7833L77.9455 21.905C78.2977 22.1862 78.4654 22.3517 78.7338 22.6825L75.8155 25.0976C75.6814 25.2961 75.782 25.5277 76.0336 25.5938L79.8239 25.263C79.8742 25.6931 79.8742 25.9412 79.8239 26.3547L76.0168 26.0239C75.782 26.057 75.6814 26.3051 75.8155 26.5202L78.7338 28.9352C78.4822 29.233 78.2977 29.4315 77.9455 29.7127L75.5304 26.8675C75.3292 26.7352 75.0944 26.8345 75.0273 27.0826L75.3627 30.821C74.9434 30.8706 74.6751 30.8541 74.2558 30.821L74.5912 27.0826C74.5577 26.851 74.3061 26.7517 74.0881 26.8675L71.6395 29.7458C71.304 29.4977 71.1363 29.2992 70.8512 28.9683L73.7359 26.5367C73.8701 26.3382 73.7694 26.1066 73.5346 26.0405L69.7443 26.3713C69.694 25.9412 69.7107 25.6765 69.7443 25.2795L73.5346 25.6104C73.7694 25.5607 73.8701 25.3126 73.7359 25.0976Z" fill="url(#paint6_radial)"/>
<path d="M15.4406 30.9702C12.5044 30.9702 10.1241 28.6225 10.1241 25.7264C10.1241 22.8304 12.5044 20.4827 15.4406 20.4827C18.3768 20.4827 20.7571 22.8304 20.7571 25.7264C20.7571 28.6225 18.3768 30.9702 15.4406 30.9702Z" fill="#303030"/>
<path d="M15.4396 18.8786C19.2802 18.8786 22.3829 21.9554 22.3829 25.7269C22.3829 29.5149 19.2802 32.5751 15.4396 32.5751C11.5989 32.5751 8.49619 29.5149 8.49619 25.7269C8.49619 21.9554 11.5989 18.8786 15.4396 18.8786ZM15.4396 30.7721C18.2572 30.7721 20.5381 28.5224 20.5381 25.7434C20.5381 22.9644 18.2572 20.7147 15.4396 20.7147C12.622 20.7147 10.341 22.9644 10.341 25.7434C10.341 28.5059 12.622 30.7721 15.4396 30.7721Z" fill="url(#paint7_radial)"/>
<path d="M15.3491 28.2711C13.969 28.2711 12.8502 27.1676 12.8502 25.8064C12.8502 24.4451 13.969 23.3416 15.3491 23.3416C16.7293 23.3416 17.8481 24.4451 17.8481 25.8064C17.8481 27.1676 16.7293 28.2711 15.3491 28.2711Z" fill="url(#paint8_radial)"/>
<path d="M15.3495 29.3283C13.3858 29.3283 11.794 27.7583 11.794 25.8215C11.794 23.8847 13.3858 22.3147 15.3495 22.3147C17.3132 22.3147 18.9051 23.8847 18.9051 25.8215C18.9051 27.7583 17.3132 29.3283 15.3495 29.3283Z" fill="url(#paint9_radial)"/>
<path d="M11.5424 25.2935C11.6095 24.8303 11.7605 24.3837 11.9785 24.0032C12.0959 23.7882 12.3475 23.4243 12.5991 23.1596C12.9345 22.8122 13.3202 22.5476 13.7228 22.3656C13.7731 22.3325 13.8402 22.3656 13.8737 22.4152L14.293 23.11C14.3769 23.2258 14.3601 23.4077 14.2595 23.507C14.0917 23.6228 13.9576 23.722 13.8234 23.8378C13.4544 24.1521 13.1861 24.5656 13.0016 24.9957C13.0016 24.9957 13.0016 24.9957 13.0016 25.0123C12.9345 25.1942 12.8674 25.3927 12.8674 25.5912C12.8506 25.9221 12.8674 26.2364 12.9513 26.5672C13.0016 26.7491 13.0519 26.9311 13.1022 27.1296C13.119 27.2785 13.0351 27.4274 12.8842 27.477L12.1295 27.7913C12.0791 27.8078 12.0121 27.7913 11.9785 27.7416C11.8108 27.4274 11.576 26.6995 11.576 26.683C11.4921 26.2198 11.4754 25.7566 11.5424 25.2935Z" fill="url(#paint10_linear)"/>
<path d="M15.3497 20.7787C18.1673 20.7787 20.4482 23.0283 20.4482 25.8073C20.4482 28.5863 18.1673 30.836 15.3497 30.836C12.5321 30.836 10.2511 28.5863 10.2511 25.8073C10.2511 23.0449 12.5321 20.7787 15.3497 20.7787ZM15.3497 29.9262C17.6473 29.9262 19.509 28.0901 19.509 25.8239C19.509 23.5577 17.6473 21.7215 15.3497 21.7215C13.052 21.7215 11.1903 23.5577 11.1903 25.8239C11.1903 28.0901 13.052 29.9262 15.3497 29.9262Z" fill="url(#paint11_radial)"/>
<path d="M13.6726 24.6632L11.8277 23.5549C11.8445 23.5383 13.0353 22.3639 13.052 22.3473L14.1925 24.1669C14.4944 24.3819 14.8969 24.2331 14.9975 23.8361L14.4944 21.7684C14.5112 21.7684 16.2218 21.7684 16.2386 21.7684L15.7355 23.8526C15.8026 24.2165 16.1883 24.3819 16.5405 24.1669L17.6642 22.3473C17.681 22.3639 18.8717 23.5383 18.8885 23.5549L17.0436 24.6797C16.8256 24.9774 16.9933 25.3579 17.3791 25.4572L19.4755 24.9609C19.4755 24.9774 19.4755 26.6482 19.4755 26.6647L17.3623 26.1684C16.9933 26.2346 16.8256 26.6151 17.0436 26.9624L18.8885 28.0873C18.8717 28.1038 17.681 29.2783 17.6642 29.2948L16.5237 27.4752C16.2218 27.2602 15.8361 27.4091 15.7187 27.8061L16.2218 29.8903C16.2051 29.8903 14.5279 29.9069 14.5112 29.8903L14.9975 27.8061C14.9304 27.4422 14.5447 27.2767 14.1925 27.4752L13.052 29.2948C13.0353 29.2783 11.8445 28.1038 11.8277 28.0873L13.6726 26.979C13.8906 26.6812 13.7397 26.2842 13.3372 26.185L11.2407 26.6812C11.2407 26.6647 11.2407 24.994 11.2407 24.9774L13.3372 25.4737C13.7229 25.391 13.8906 25.0105 13.6726 24.6632Z" fill="url(#paint12_radial)"/>
<path d="M13.9567 24.8658L11.6087 23.1455C11.7429 22.9801 12.4641 22.2853 12.6318 22.1365L14.3928 24.4523C14.6444 24.6342 14.963 24.5019 15.0469 24.1711L14.6276 21.3094C14.8456 21.2928 15.8687 21.2928 16.0699 21.3094L15.6507 24.1711C15.701 24.4688 16.0196 24.6012 16.3215 24.4357L18.0657 22.1199C18.2335 22.2522 18.9546 22.9635 19.0888 23.129L16.7408 24.8658C16.5563 25.114 16.6905 25.4282 17.0259 25.511L19.9106 25.114C19.9274 25.329 19.9274 26.3215 19.9106 26.5365L17.0091 26.123C16.7073 26.1726 16.5731 26.4869 16.7408 26.7847L19.0888 28.505C18.9714 28.6539 18.2502 29.3652 18.0657 29.514L16.3047 27.1982C16.0532 27.0162 15.7345 27.1486 15.6507 27.4629L16.0699 30.3246C15.8687 30.3411 14.8456 30.3411 14.6276 30.3246L15.0469 27.4629C14.9966 27.1486 14.6779 27.0162 14.3928 27.1982L12.6318 29.514C12.4641 29.3982 11.7597 28.6704 11.6087 28.505L13.9567 26.7847C14.1412 26.5365 14.0071 26.2222 13.6884 26.123L10.7869 26.5365C10.7702 26.3215 10.7702 25.3125 10.7869 25.114L13.6884 25.5275C14.0071 25.4779 14.1412 25.1636 13.9567 24.8658Z" fill="url(#paint13_radial)"/>
<path d="M14.2926 25.0975L11.3744 22.6824C11.6427 22.3516 11.8272 22.1862 12.1626 21.905L14.6112 24.7832C14.8125 24.9156 15.0473 24.8163 15.1144 24.5682L14.779 20.8298C15.215 20.7967 15.4834 20.7801 15.8859 20.8298L15.5504 24.5847C15.584 24.8163 15.8356 24.9156 16.0536 24.7832L18.5022 21.905C18.8544 22.1862 19.0221 22.3516 19.2905 22.6824L16.3722 25.0975C16.2381 25.296 16.3387 25.5276 16.5903 25.5938L20.3806 25.2629C20.4309 25.693 20.4309 25.9411 20.3806 26.3547L16.5735 26.0239C16.3387 26.0569 16.2381 26.3051 16.3722 26.5201L19.2905 28.9352C19.0389 29.2329 18.8544 29.4314 18.5022 29.7127L16.0871 26.8675C15.8859 26.7351 15.6511 26.8344 15.584 27.0825L15.9194 30.8209C15.5001 30.8706 15.2318 30.854 14.8125 30.8209L15.1479 27.0825C15.1144 26.8509 14.8628 26.7517 14.6448 26.8675L12.1962 29.7457C11.8607 29.4976 11.693 29.2991 11.4079 28.9683L14.2926 26.5366C14.4268 26.3381 14.3261 26.1066 14.0913 26.0404L10.301 26.3712C10.2507 25.9411 10.2674 25.6765 10.301 25.2795L14.0913 25.6103C14.3261 25.5607 14.4268 25.3126 14.2926 25.0975Z" fill="url(#paint14_radial)"/>
<path d="M66.5103 10.2417L66.5271 10.2582C67.0638 10.5725 67.6508 10.771 68.2713 10.8206L68.9925 10.8868C68.6738 10.7048 68.372 10.5229 68.0701 10.3409C67.6508 10.3575 67.1812 10.3244 66.5103 10.2417Z" fill="#6B7377"/>
<path opacity="0.4" d="M3.6511 9.82775C4.85864 9.76159 5.6469 9.7285 6.90476 9.39767L13.1605 4.5675L9.92362 4.40208C7.45822 6.354 5.57982 7.97509 3.6511 9.82775Z" fill="#B2B6B9"/>
<path opacity="0.4" d="M52.3049 3.16424C57.7389 5.43045 61.8814 7.53124 66.5271 10.2606C67.0638 10.5749 67.6508 10.7734 68.2713 10.823L68.9925 10.8892C62.4516 6.95229 57.3699 4.47104 52.5565 2.98229L52.3385 2.96574C52.0534 2.96574 52.0366 3.04845 52.3049 3.16424Z" fill="#B2B6B9"/>
<path d="M36.2881 2.35186C30.8542 2.35186 25.8228 2.84811 19.9528 3.57595C19.6676 3.60903 19.4161 3.6752 19.198 3.77445C18.7284 3.98949 18.5272 4.23762 18.4266 4.70078C18.393 4.83312 18.393 4.98199 18.4098 5.16395C18.4601 5.75945 18.5943 7.24821 18.6614 7.92642C18.6781 8.14146 18.7284 8.32342 18.8123 8.47229C19.131 9.08433 19.5838 9.43171 20.3553 9.67984C20.7578 9.81217 21.2106 9.87834 21.7138 9.89488C37.1602 10.2919 49.4705 11.0197 64.0784 12.4092C63.8939 11.946 63.7262 11.5656 63.5081 11.2017C63.1056 10.5069 62.5522 9.89488 61.8813 9.43171C57.1853 6.20608 53.7472 4.60153 48.7157 3.26165C47.743 2.99699 46.7199 2.83157 45.6801 2.74886C42.1246 2.46765 39.1393 2.35186 36.2881 2.35186ZM36.2881 2.02103C39.1896 2.02103 42.2084 2.15336 45.7137 2.41803C46.7535 2.50074 47.7933 2.66615 48.8164 2.94736C54.0155 4.33687 57.4872 6.02412 62.0826 9.16704C62.787 9.64675 63.3907 10.2919 63.81 11.0363C64.1119 11.5656 64.3299 12.0949 64.5647 12.7731C50.9967 11.4663 38.5355 10.6393 21.7138 10.2092C21.2274 10.1926 20.741 10.1265 20.2714 9.97759C19.3825 9.69638 18.8794 9.28284 18.5272 8.62117C18.4266 8.42267 18.3595 8.19108 18.3427 7.9595C18.2924 7.29783 18.1582 5.79254 18.0911 5.19703C18.0744 5.01508 18.0744 4.83312 18.1079 4.65116C18.2253 4.05566 18.5104 3.74136 19.0639 3.49324C19.3322 3.37745 19.6173 3.29474 19.9192 3.26165C26.3427 2.45111 31.1225 2.02103 36.2881 2.02103Z" fill="url(#paint15_linear)" stroke="black" stroke-width="0.367" stroke-miterlimit="10"/>
<path d="M36.9762 2.35089L37.8651 10.4728C38.5527 10.5059 39.2403 10.539 39.928 10.5721L38.3011 2.35089C37.8483 2.35089 37.4122 2.35089 36.9762 2.35089Z" fill="url(#paint16_linear)"/>
<path d="M38.2839 2.36838L39.9108 10.5896C40.6152 10.6227 41.3196 10.6723 42.024 10.7054L39.6256 2.40146C39.1896 2.38492 38.7368 2.36838 38.2839 2.36838Z" fill="url(#paint17_linear)"/>
<path d="M59.7519 8.02582L60.1544 12.0454C61.4458 12.1612 62.7372 12.277 64.0621 12.4094C63.8776 11.9462 63.7099 11.5657 63.5087 11.2018C63.1061 10.5071 62.5527 9.89503 61.8818 9.43186C61.1439 8.91907 60.4395 8.4559 59.7519 8.02582Z" fill="#1A1A1A"/>
<path d="M1.8727 17.0918V13.0887C1.8727 12.1128 2.27522 11.1699 2.97961 10.4751C3.21442 10.2601 3.43244 10.0451 3.65047 9.83002C4.85802 9.76386 5.64626 9.73077 6.90412 9.39994L13.1599 4.56977L9.92298 4.40435L9.47015 3.95773C9.38629 3.87502 9.35275 3.74269 9.40307 3.62689C9.43661 3.54418 9.52047 3.47802 9.60432 3.46148C18.9963 1.82385 25.8391 1.02985 37.5455 0.980225C43.0969 0.980225 47.6922 1.47648 52.5727 2.99831L52.3547 2.98177C52.0528 2.96523 52.036 3.04793 52.3211 3.16373C57.7551 5.42994 61.8976 7.53073 66.5433 10.2601C67.08 10.5744 67.667 10.7729 68.2875 10.8225L69.0087 10.8887L69.0926 10.9052C69.5119 10.9383 69.9144 10.9714 70.3169 11.021C83.9017 12.2947 92.5894 15.6858 91.9688 22.6498C91.952 22.7491 91.8682 22.8152 91.7843 22.8152H91.0967L91.0632 24.8002L91.7843 26.2228C92.0694 26.8018 91.6837 27.48 91.0296 27.5296L83.4489 28.1251L82.7781 28.1747H82.6439C82.8787 27.3477 83.0464 26.504 83.0464 25.5942C83.0464 21.0784 79.3064 17.4227 74.6942 17.4227C70.0821 17.4227 66.3421 21.0784 66.3421 25.5942C66.3421 26.7025 66.4259 27.5792 66.5098 28.6048H66.3924H65.8054L24.3464 28.4063H23.7259L23.5917 28.3898C23.6756 27.5627 23.7091 26.7191 23.7091 25.8093C23.7091 21.2934 20.0529 17.6377 15.5582 17.6377C11.0634 17.6377 7.40726 21.2934 7.40726 25.8093C7.40726 26.3552 7.42403 26.8514 7.45758 27.3311L6.71964 27.2484L3.93559 26.9176C3.43245 26.8514 2.96284 26.6529 2.59387 26.3221L1.41988 25.2469C0.899963 24.8002 0.564529 24.1717 0.514214 23.51C0.346497 20.6317 0.463898 18.6633 1.8727 17.0918ZM18.0739 5.19835C18.1242 5.79385 18.2584 7.2826 18.3255 7.96081C18.3422 8.1924 18.4093 8.42398 18.5099 8.62248C18.8622 9.28415 19.3653 9.71423 20.2542 9.9789C20.7238 10.1278 21.2102 10.1939 21.6965 10.2105C38.5015 10.624 50.9794 11.4676 64.5475 12.7744C64.3127 12.0962 64.0947 11.5669 63.7928 11.0376C63.3735 10.2932 62.7698 9.64806 62.0653 9.16836C57.4868 6.02544 53.9983 4.33819 48.7991 2.94868C47.7929 2.68402 46.753 2.50206 45.6964 2.41935C35.9355 1.67498 29.9481 1.98927 19.902 3.24643C19.6001 3.27952 19.315 3.34568 19.0466 3.47802C18.5099 3.72614 18.2248 4.04044 18.0907 4.63594C18.0739 4.81789 18.0571 5.01639 18.0739 5.19835Z" fill="white"/>
<mask id="mask0" mask-type="alpha" maskUnits="userSpaceOnUse" x="0" y="0" width="92" height="29">
<path d="M1.8727 17.0918V13.0887C1.8727 12.1128 2.27522 11.1699 2.97961 10.4751C3.21442 10.2601 3.43244 10.0451 3.65047 9.83002C4.85802 9.76386 5.64626 9.73077 6.90412 9.39994L13.1599 4.56977L9.92298 4.40435L9.47015 3.95773C9.38629 3.87502 9.35275 3.74269 9.40307 3.62689C9.43661 3.54418 9.52047 3.47802 9.60432 3.46148C18.9963 1.82385 25.8391 1.02985 37.5455 0.980225C43.0969 0.980225 47.6922 1.47648 52.5727 2.99831L52.3547 2.98177C52.0528 2.96523 52.036 3.04793 52.3211 3.16373C57.7551 5.42994 61.8976 7.53073 66.5433 10.2601C67.08 10.5744 67.667 10.7729 68.2875 10.8225L69.0087 10.8887L69.0926 10.9052C69.5119 10.9383 69.9144 10.9714 70.3169 11.021C83.9017 12.2947 92.5894 15.6858 91.9688 22.6498C91.952 22.7491 91.8682 22.8152 91.7843 22.8152H91.0967L91.0632 24.8002L91.7843 26.2228C92.0694 26.8018 91.6837 27.48 91.0296 27.5296L83.4489 28.1251L82.7781 28.1747H82.6439C82.8787 27.3477 83.0464 26.504 83.0464 25.5942C83.0464 21.0784 79.3064 17.4227 74.6942 17.4227C70.0821 17.4227 66.3421 21.0784 66.3421 25.5942C66.3421 26.7025 66.4259 27.5792 66.5098 28.6048H66.3924H65.8054L24.3464 28.4063H23.7259L23.5917 28.3898C23.6756 27.5627 23.7091 26.7191 23.7091 25.8093C23.7091 21.2934 20.0529 17.6377 15.5582 17.6377C11.0634 17.6377 7.40726 21.2934 7.40726 25.8093C7.40726 26.3552 7.42403 26.8514 7.45758 27.3311L6.71964 27.2484L3.93559 26.9176C3.43245 26.8514 2.96284 26.6529 2.59387 26.3221L1.41988 25.2469C0.899963 24.8002 0.564529 24.1717 0.514214 23.51C0.346497 20.6317 0.463898 18.6633 1.8727 17.0918ZM18.0739 5.19835C18.1242 5.79385 18.2584 7.2826 18.3255 7.96081C18.3422 8.1924 18.4093 8.42398 18.5099 8.62248C18.8622 9.28415 19.3653 9.71423 20.2542 9.9789C20.7238 10.1278 21.2102 10.1939 21.6965 10.2105C38.5015 10.624 50.9794 11.4676 64.5475 12.7744C64.3127 12.0962 64.0947 11.5669 63.7928 11.0376C63.3735 10.2932 62.7698 9.64806 62.0653 9.16836C57.4868 6.02544 53.9983 4.33819 48.7991 2.94868C47.7929 2.68402 46.753 2.50206 45.6964 2.41935C35.9355 1.67498 29.9481 1.98927 19.902 3.24643C19.6001 3.27952 19.315 3.34568 19.0466 3.47802C18.5099 3.72614 18.2248 4.04044 18.0907 4.63594C18.0739 4.81789 18.0571 5.01639 18.0739 5.19835Z" fill="#F79E1B"/>
</mask>
<g mask="url(#mask0)">
<path d="M85.065 21.5832L89.9602 24.4679L92.8952 31.9943L-2.45037 28.9341V12.4752L66.846 16.0991C73.2717 16.4351 79.5215 18.3164 85.065 21.5832Z" fill="#9AA0A4" fill-opacity="0.15"/>
<path d="M74.1108 20.3347L92.811 30.5078L95.746 36.2974L-1.94758 34.4779L-2.61844 17.0264L74.1108 20.3347Z" fill="#9AA0A4" fill-opacity="0.15"/>
</g>
<path d="M43.1986 14.6359C43.1604 15.4912 43.873 15.6571 44.6747 15.6954C45.4764 15.7337 46.1636 15.6571 46.2145 14.7891C46.2526 13.9338 45.5782 13.7678 44.7765 13.7295C43.9621 13.6785 43.2368 13.7678 43.1986 14.6359Z" fill="url(#paint18_linear)"/>
<path d="M43.5345 14.5653C43.5078 15.2118 44.0544 15.3282 44.6809 15.367C45.3074 15.3928 45.8406 15.3411 45.8806 14.6817C45.9072 14.0351 45.3874 13.9187 44.7609 13.8929C44.1344 13.8541 43.5745 13.9058 43.5345 14.5653Z" fill="url(#paint19_linear)"/>
<path d="M42.0233 14.3962C42.1005 14.3788 42.6282 14.2226 43.2074 14.2139C43.8381 14.2052 44.0183 14.2573 44.8034 14.2833C45.5886 14.3094 45.7816 14.2747 46.3994 14.3181C46.9658 14.3615 47.4806 14.6091 47.5578 14.6265C46.7985 14.5657 45.8589 14.4871 44.8034 14.4611C43.7609 14.435 42.7827 14.3875 42.0233 14.3962Z" fill="#DCDCDC"/>
<path d="M42.1062 14.8098C41.991 14.626 42.0294 14.3932 42.0294 14.3932C42.0294 14.3932 42.0294 14.3932 42.0422 14.3932C42.7972 14.3687 43.7569 14.3809 44.7935 14.4299C45.83 14.4789 46.7897 14.5524 47.5447 14.6382C47.5575 14.6382 47.5575 14.6382 47.5575 14.6382C47.5575 14.6382 47.5703 14.871 47.4423 15.0426C46.7129 14.92 45.7788 14.822 44.7807 14.773C43.7697 14.7485 42.8484 14.7608 42.1062 14.8098Z" fill="#DCDDDE"/>
<path d="M47.0779 15.3014C46.6291 15.4086 46.0556 15.3627 46.0556 15.3627C46.0556 15.3627 46.0182 14.9949 44.7838 14.9183C43.5495 14.8417 43.4872 15.2094 43.4872 15.2094C43.4872 15.2094 42.9136 15.1941 42.4648 15.0256C42.3276 14.9796 42.2404 14.8724 42.1905 14.7651C42.9136 14.7038 43.8238 14.6885 44.7963 14.7498C45.7688 14.8111 46.7628 14.8884 47.4735 15.0416C47.3987 15.1335 47.2151 15.2707 47.0779 15.3014Z" fill="#C7C9CB"/>
<path d="M22.4012 13.6433C22.3631 14.4985 23.0757 14.6645 23.8774 14.7028C24.679 14.7411 25.3662 14.6645 25.4171 13.7964C25.4553 12.9412 24.7808 12.7752 23.9792 12.7369C23.1648 12.6858 22.4394 12.7752 22.4012 13.6433Z" fill="url(#paint20_linear)"/>
<path d="M22.7371 13.5727C22.7105 14.2192 23.257 14.3356 23.8835 14.3744C24.51 14.4002 25.0432 14.3485 25.0832 13.689C25.1099 13.0425 24.59 12.9261 23.9635 12.9003C23.337 12.8615 22.7771 12.9132 22.7371 13.5727Z" fill="url(#paint21_linear)"/>
<path d="M21.2259 13.4036C21.3031 13.3862 21.8309 13.23 22.4101 13.2213C23.0407 13.2126 23.2209 13.2647 24.0061 13.2907C24.7912 13.3168 24.9843 13.2821 25.6021 13.3255C26.1684 13.3689 26.6833 13.6165 26.7605 13.6339C26.0011 13.5731 25.0615 13.4945 24.0061 13.4684C22.9635 13.4424 21.9853 13.3949 21.2259 13.4036Z" fill="#DCDCDC"/>
<path d="M21.3088 13.8172C21.1937 13.6334 21.2321 13.4006 21.2321 13.4006C21.2321 13.4006 21.2321 13.4006 21.2449 13.4006C21.9999 13.3761 22.9596 13.3883 23.9961 13.4373C25.0326 13.4863 25.9923 13.5599 26.7473 13.6456C26.7601 13.6456 26.7601 13.6456 26.7601 13.6456C26.7601 13.6456 26.7729 13.8784 26.645 14.05C25.9156 13.9275 24.9814 13.8294 23.9833 13.7804C22.9724 13.7559 22.051 13.7682 21.3088 13.8172Z" fill="#DCDDDE"/>
<path d="M26.2806 14.3088C25.8317 14.416 25.2582 14.37 25.2582 14.37C25.2582 14.37 25.2208 14.0023 23.9865 13.9257C22.7521 13.8491 22.6898 14.2168 22.6898 14.2168C22.6898 14.2168 22.1163 14.2015 21.6674 14.033C21.5303 13.987 21.443 13.8798 21.3931 13.7725C22.1163 13.7112 23.0264 13.6959 23.9989 13.7572C24.9714 13.8185 25.9655 13.8958 26.6761 14.049C26.6013 14.1409 26.4177 14.2781 26.2806 14.3088Z" fill="#C7C9CB"/>
<path d="M85.6791 23.3614C85.8804 24.387 86.2326 25.2637 86.9034 26.0577C87.1382 26.3224 87.4569 26.4878 87.8091 26.4878H89.8887C90.1068 26.4878 90.2745 26.2893 90.2242 26.0908C89.8887 24.4697 88.3793 23.5103 85.8301 22.7328C85.6791 22.8486 85.612 23.0637 85.6791 23.3614Z" fill="#B3B3B3"/>
<path d="M90.0733 26.0754C90.1069 26.2739 89.9391 26.4724 89.7379 26.4724H90.5932C90.8113 26.4724 90.979 26.2739 90.9287 26.0754C90.5932 24.3882 88.9999 23.4453 86.2997 22.6513C86.0314 22.5686 85.8134 22.6017 85.6792 22.7175C88.2285 23.4949 89.7379 24.4543 90.0733 26.0754Z" fill="#6B7377"/>
<path d="M89.1177 22.5677C89.8389 23.0143 90.4594 23.7256 91.1135 24.9166L91.0632 24.8173L91.0967 22.8323L89.1177 22.5677Z" fill="#B3B3B3"/>
<path d="M65.654 25.5936C65.654 26.7019 65.7379 27.6117 65.8217 28.6042H66.4087H66.5261C66.4423 27.5786 66.3584 26.7019 66.3584 25.5936C66.3584 21.0777 70.0985 17.422 74.7106 17.422C79.3227 17.422 83.0628 21.0777 83.0628 25.5936C83.0628 26.4869 82.8951 27.347 82.6603 28.1741H82.7944L83.4653 28.1245C83.6665 27.3139 83.8175 26.5034 83.8175 25.6267C83.8175 20.6973 79.742 16.7107 74.7106 16.7107C69.6624 16.7107 65.654 20.6642 65.654 25.5936Z" fill="url(#paint22_linear)" fill-opacity="0.8"/>
<path d="M6.68599 26.1252C6.68599 26.5222 6.70276 26.8861 6.71953 27.25L7.45747 27.3328C7.42393 26.853 7.40716 26.3568 7.40716 25.8109C7.40716 21.295 11.0633 17.6393 15.5581 17.6393C20.0528 17.6393 23.709 21.295 23.709 25.8109C23.709 26.7207 23.6922 27.5643 23.5916 28.3914L23.7258 28.408H24.3463C24.4134 27.614 24.4302 26.8034 24.4302 25.9433C24.4302 20.8815 20.5895 16.9611 15.5413 16.9611C10.5099 16.9611 6.68599 21.0635 6.68599 26.1252Z" fill="url(#paint23_linear)" fill-opacity="0.8"/>
<path d="M3.60064 9.8639C4.74109 9.79774 5.6132 9.76465 6.9046 9.41728H6.92137L13.2442 4.53747L9.92345 4.3886L9.85637 4.43822L13.0765 4.5871L6.88783 9.36765C5.6132 9.69849 4.85849 9.73157 3.68449 9.79774L3.60064 9.8639Z" fill="black" fill-opacity="0.4"/>
<path d="M81.4366 14.5763V14.5101C74.4596 13.7327 69.2605 13.1868 64.5477 12.7402V12.8064C69.2605 13.253 74.4596 13.7989 81.4366 14.5763Z" fill="black" fill-opacity="0.4"/>
<path d="M68.9925 10.9056L68.9087 10.856L68.2713 10.8064C67.6508 10.7402 67.0638 10.5582 66.5439 10.2439C61.7305 7.39876 57.6047 5.33105 52.3217 3.131C52.1708 3.06483 52.1372 3.03175 52.1372 3.03175C52.1372 3.03175 52.1708 3.01521 52.2714 3.01521C52.2882 3.01521 52.6236 3.01521 52.6236 3.01521L52.4391 2.94904H52.3553C52.1205 2.9325 52.0869 2.98212 52.0869 3.01521C52.0701 3.04829 52.1037 3.09792 52.3049 3.19717C57.5879 5.39721 61.7137 7.44839 66.5103 10.2936C67.047 10.6079 67.6508 10.8064 68.2713 10.856L68.9925 10.9056Z" fill="black" fill-opacity="0.4"/>
<path d="M66.3931 27.0335V26.9673L29.1438 26.5538C27.7517 26.5372 26.4771 25.826 25.7559 24.6515C23.3912 20.8138 21.7979 17.7867 19.5337 13.1881C19.0641 12.2452 18.93 11.1535 19.1648 10.1279L19.2989 9.49931L19.2318 9.48277L19.0977 10.1114C18.8629 11.1535 18.997 12.2618 19.4666 13.2212C21.7476 17.8198 23.3241 20.8469 25.6888 24.6846C26.4268 25.8756 27.7182 26.6034 29.127 26.62L66.3931 27.0335Z" fill="black" fill-opacity="0.4"/>
<path d="M63.8437 26.9826C65.8227 20.3163 66.1078 14.7252 64.5649 12.7402L64.5146 12.7733C66.0575 14.7252 65.7724 20.2997 63.7934 26.9495L63.8437 26.9826Z" fill="black" fill-opacity="0.4"/>
<path d="M69.7978 13.3193L69.8649 13.2862L68.6909 10.8877L68.6238 10.8711L69.7978 13.3193Z" fill="black" fill-opacity="0.4"/>
<path d="M40.8169 26.7189C41.3536 20.2181 41.1859 16.8105 40.0119 10.9051L38.2509 2.03874L38.1838 2.05528L39.9448 10.9216C41.1188 16.827 41.2865 20.2181 40.7331 26.7189H40.8169Z" fill="black" fill-opacity="0.4"/>
<path opacity="0.5" d="M79.9278 19.2243L83.4498 16.9912L83.4163 16.9416L79.8775 19.1912L79.9278 19.2243Z" fill="black" fill-opacity="0.4"/>
<path opacity="0.5" d="M10.8801 19.1262L10.9472 19.0766L9.01846 14.5607H8.95137L10.8801 19.1262Z" fill="black" fill-opacity="0.4"/>
<path d="M90.3762 18.9102V18.8771C90.3929 18.5297 90.3929 18.3147 90.3259 18.05C90.2085 17.5703 89.9233 17.1071 89.4873 16.7598C88.0617 15.5688 85.4789 14.9236 81.437 14.5101C81.2357 14.4936 81.1016 14.5266 81.0513 14.6259C81.0009 14.7251 81.0513 14.8575 81.1854 14.9898C82.2253 16.1146 83.1645 16.8921 84.4391 17.6696C84.9422 17.9673 85.4789 18.1989 86.0491 18.3478C87.2231 18.6455 88.9171 18.7778 90.3426 18.9102H90.3762ZM81.437 14.5763C85.4621 14.9733 88.0282 15.6184 89.4537 16.8094C89.873 17.1568 90.1581 17.6034 90.2588 18.0666C90.3259 18.3147 90.3259 18.5297 90.3091 18.844C88.9003 18.7117 87.2231 18.5793 86.0659 18.2816C85.4957 18.1493 84.959 17.9177 84.4726 17.6199C83.2148 16.8425 82.2756 16.065 81.2357 14.9567C81.1183 14.8409 81.0848 14.7251 81.1183 14.659C81.1519 14.5928 81.2693 14.5597 81.437 14.5763Z" fill="black" fill-opacity="0.4"/>
<path d="M89.7055 17.3888H90.2086L90.1583 17.3227H89.6719L89.7055 17.3888Z" fill="black" fill-opacity="0.4"/>
<path d="M81.4311 14.5434C85.3053 14.9239 87.9887 15.5524 89.4646 16.7765C89.8671 17.1074 90.169 17.554 90.2864 18.0502C90.3535 18.3149 90.3535 18.5299 90.3367 18.8773C88.8608 18.7284 87.2005 18.5961 86.0432 18.3149C85.473 18.1826 84.9363 17.951 84.4332 17.6367C83.0579 16.7931 82.1355 15.966 81.1963 14.9569C80.9615 14.7088 81.0621 14.5103 81.4311 14.5434Z" fill="url(#paint24_linear)"/>
<path d="M84.3545 17.5895C84.3881 17.6061 84.4216 17.6226 84.4552 17.6557C84.6396 17.7715 84.8409 17.8873 85.0422 17.97H86.9709C86.9876 17.8376 87.0044 17.7053 87.0212 17.5564C87.038 17.3414 87.0547 17.1264 87.0547 16.8782C87.0547 16.7294 87.0547 16.5805 87.038 16.4316C87.0212 16.1835 87.0044 15.9684 86.9709 15.7865H85.0254H84.3881C84.3881 15.8692 84.3881 15.9519 84.4048 16.0512C84.4216 16.2331 84.4216 16.4151 84.4216 16.597C84.4216 16.8782 84.4048 17.1594 84.3881 17.4241C84.3713 17.4737 84.3713 17.5234 84.3545 17.5895Z" fill="url(#paint25_linear)"/>
<path d="M81.2184 14.9735C81.4699 15.2547 81.7383 15.5194 82.0066 15.7675C82.6775 16.4126 83.4154 16.9916 84.3714 17.5871C84.3714 17.5209 84.3882 17.4713 84.3882 17.4051C84.4049 17.1405 84.4217 16.8758 84.4217 16.5781C84.4217 16.3961 84.4217 16.1976 84.4049 16.0322C84.4049 15.9495 84.4049 15.8502 84.3882 15.7675C84.3882 15.6517 84.3714 15.5525 84.3714 15.4532C84.3546 15.2713 84.3378 15.1059 84.3378 14.9239C83.516 14.775 82.6104 14.6592 81.5873 14.5434H81.2351C81.0339 14.6096 81.0171 14.775 81.2184 14.9735Z" fill="url(#paint26_linear)"/>
<path d="M81.2185 14.975C82.1577 15.984 83.0801 16.7946 84.4554 17.6547C84.9417 17.9525 85.4952 18.1841 86.0654 18.3329C87.2227 18.6141 88.883 18.7465 90.3589 18.8953C90.3589 18.6968 90.3757 18.5314 90.3589 18.3826C89.2352 18.2668 87.86 18.1344 86.9375 17.9028C86.3673 17.7705 85.8306 17.5389 85.3275 17.2246C83.9858 16.3976 83.0633 15.6036 82.1577 14.6276C81.9229 14.5945 81.6881 14.578 81.4533 14.5449C81.0675 14.5118 80.9669 14.7103 81.2185 14.975Z" fill="#B2B2B2"/>
<g style="mix-blend-mode:screen">
<path d="M81.4311 14.5434C85.3053 14.9239 87.9887 15.5524 89.4646 16.7765C89.8671 17.1074 90.169 17.554 90.2864 18.0502C90.3535 18.3149 90.3535 18.5299 90.3367 18.8773C88.8608 18.7284 87.2005 18.5961 86.0432 18.3149C85.473 18.1826 84.9363 17.951 84.4332 17.6367C83.0579 16.7931 82.1355 15.966 81.1963 14.9569C80.9615 14.7088 81.0621 14.5103 81.4311 14.5434Z" fill="url(#paint27_linear)"/>
</g>
<path d="M1.87275 13.0939V14.2353L9.03415 14.5827L7.99432 12.1345C7.64212 11.3075 6.85387 10.7616 5.94821 10.7285C4.50587 10.6623 3.38218 10.7616 2.2585 11.4729C2.00693 11.9526 1.87275 12.515 1.87275 13.0939Z" fill="#A80500"/>
<path d="M1.87304 13.0899V14.2312L2.94641 14.2809C3.66757 13.1229 3.96945 12.1635 4.05331 10.774C3.43277 10.8733 2.84578 11.0883 2.25879 11.4522C2.00722 11.9485 1.87304 12.5109 1.87304 13.0899Z" fill="#EE0000"/>
<path d="M6.92089 13.2553C6.92089 13.371 6.83703 13.4703 6.70286 13.4703L3.13054 13.3214C2.96282 13.3214 2.82865 13.1725 2.82865 13.0071V12.6267C2.82865 12.2958 3.11377 12.0312 3.4492 12.0312L5.52886 11.9319C6.28358 11.965 6.87058 12.5274 6.92089 13.2553Z" fill="#F0F1F2"/>
<path opacity="0.8" d="M18.0662 5.19809C18.1166 5.79359 18.2507 7.28234 18.3178 7.96055C18.3346 8.19213 18.4017 8.42372 18.5023 8.62222C18.8545 9.28389 19.3576 9.71397 20.2465 9.97864C20.7161 10.1275 21.2025 10.1937 21.6889 10.2102C38.4938 10.6238 50.9718 11.4674 64.5399 12.7742C64.3051 12.096 64.087 11.5666 63.7851 11.0373C63.3659 10.2929 62.7621 9.6478 62.0577 9.16809C57.4791 6.02517 53.9906 4.33792 48.7915 2.94842C47.7852 2.68375 46.7454 2.50179 45.6888 2.41909C35.9278 1.67471 29.9404 1.989 19.8943 3.24617C19.5924 3.27925 19.3073 3.34542 19.039 3.47775C18.5023 3.72588 18.2172 4.04017 18.083 4.63567C18.0662 4.81763 18.0495 5.01613 18.0662 5.19809Z" fill="#B2B6B9"/>
<path d="M22.8533 10.2762L23.4906 10.2101L22.5681 2.93173L21.9308 2.9979L22.8533 10.2762Z" fill="#6B7377"/>
<path d="M59.7502 8.02635L60.1527 12.046C61.4441 12.1618 62.7355 12.2776 64.0604 12.4099C63.8759 11.9467 63.7082 11.5663 63.507 11.2024C63.1044 10.5076 62.551 9.89557 61.8801 9.4324C61.1422 8.91961 60.4378 8.45644 59.7502 8.02635Z" fill="#6B7377"/>
<path d="M58.6774 11.8139C58.6774 11.9463 58.7781 12.0621 58.9122 12.0621C59.3315 12.0786 59.7843 12.0621 60.2707 12.029C60.5223 12.0124 60.7739 11.9959 61.0087 11.9628C61.495 11.9132 61.8808 11.5162 61.9143 11.0365C61.9143 11.0199 61.9143 10.9868 61.9143 10.9703C61.9311 10.5568 61.8808 10.2259 61.8137 9.96127C61.7969 9.8951 61.7801 9.84547 61.7634 9.77931C61.7131 9.66352 61.646 9.51464 61.5286 9.36577C61.277 9.00185 60.8745 8.77027 60.4384 8.72064C60.2707 8.7041 60.0862 8.7041 59.885 8.73719C59.6837 8.77027 59.516 8.83643 59.3651 8.91914C59.0464 9.08456 58.8451 9.38231 58.8116 9.72968C58.7781 10.044 58.7445 10.3748 58.7277 10.7056C58.711 11.1026 58.6942 11.4666 58.6774 11.8139Z" fill="url(#paint28_linear)"/>
<path d="M58.6774 11.8139C58.6774 11.9463 58.7781 12.0621 58.9122 12.0621C59.3315 12.0786 59.7843 12.0621 60.2707 12.029C60.5223 12.0124 60.7739 11.9959 61.0087 11.9628C61.495 11.9132 61.8808 11.5162 61.9143 11.0365C61.9143 11.0199 61.9143 10.9868 61.9143 10.9703C61.9311 10.5568 61.8808 10.2259 61.8137 9.96127C61.7969 9.8951 61.7801 9.84547 61.7634 9.77931C61.7131 9.66352 61.646 9.51464 61.5286 9.36577C61.277 9.00185 60.8745 8.77027 60.4384 8.72064C60.2707 8.7041 60.0862 8.7041 59.885 8.73719C59.6837 8.77027 59.516 8.83643 59.3651 8.91914C59.0464 9.08456 58.8451 9.38231 58.8116 9.72968C58.7781 10.044 58.7445 10.3748 58.7277 10.7056C58.711 11.1026 58.6942 11.4666 58.6774 11.8139Z" fill="url(#paint29_linear)"/>
<path d="M36.2871 2.35899C30.8532 2.35899 25.8218 2.85524 19.9518 3.58307C19.6667 3.61616 19.4151 3.68232 19.1971 3.78157C18.7275 3.99662 18.5262 4.24474 18.4256 4.70791C18.392 4.84024 18.392 4.98912 18.4088 5.17108C18.4591 5.76658 18.5933 7.25533 18.6604 7.93354C18.6772 8.14858 18.7275 8.33054 18.8113 8.47942C19.13 9.09146 19.5828 9.43884 20.3543 9.68696C20.7568 9.8193 21.2096 9.88546 21.7128 9.902C37.1593 10.299 49.4695 11.0268 64.0774 12.4163C63.8929 11.9532 63.7252 11.5727 63.5072 11.2088C63.1047 10.514 62.5512 9.902 61.8804 9.43884C57.1844 6.2132 53.7462 4.60866 48.7148 3.26878C47.742 3.00411 46.719 2.8387 45.6791 2.75599C42.1236 2.47478 39.1383 2.35899 36.2871 2.35899ZM36.2871 2.02815C39.1886 2.02815 42.2075 2.16049 45.7127 2.42515C46.7525 2.50786 47.7924 2.67328 48.8154 2.95449C54.0146 4.34399 57.4862 6.03125 62.0816 9.17417C62.786 9.65388 63.3898 10.299 63.8091 11.0434C64.111 11.5727 64.329 12.1021 64.5638 12.7803C50.9957 11.4735 38.5345 10.6464 21.7128 10.2163C21.2264 10.1998 20.74 10.1336 20.2704 9.98471C19.3815 9.7035 18.8784 9.28996 18.5262 8.62829C18.4256 8.42979 18.3585 8.19821 18.3417 7.96662C18.2914 7.30496 18.1572 5.79966 18.0901 5.20416C18.0734 5.0222 18.0734 4.84024 18.1069 4.65828C18.2243 4.06278 18.5094 3.74849 19.0629 3.50036C19.3312 3.38457 19.6163 3.30186 19.9182 3.26878C26.3417 2.45824 31.1215 2.02815 36.2871 2.02815Z" fill="#6B7377"/>
<path d="M36.9754 2.3546L37.8643 10.4766C38.5519 10.5096 39.2395 10.5427 39.9271 10.5758L38.3003 2.3546C37.8475 2.3546 37.4114 2.3546 36.9754 2.3546Z" fill="#6B7377"/>
<path d="M38.283 2.37178L39.9098 10.593C40.6142 10.6261 41.3186 10.6757 42.023 10.7088L39.6247 2.40486C39.1886 2.38832 38.7358 2.37178 38.283 2.37178Z" fill="#6B7377"/>
<defs>
<radialGradient id="paint0_radial" cx="0" cy="0" r="1" gradientUnits="userSpaceOnUse" gradientTransform="translate(74.7264 25.793) rotate(-178.655) scale(7.04594 7.05727)">
<stop offset="0.708877" stop-color="#3D4346"/>
<stop offset="0.78453" stop-color="#6B7377"/>
<stop offset="0.902378" stop-color="#46494B"/>
<stop offset="1" stop-color="#46494B"/>
</radialGradient>
<radialGradient id="paint1_radial" cx="0" cy="0" r="1" gradientUnits="userSpaceOnUse" gradientTransform="translate(74.7977 25.8192) rotate(180) scale(3.55516 3.5047)">
<stop offset="0.5732" stop-color="white"/>
<stop offset="0.7573" stop-color="#818181"/>
<stop offset="1" stop-color="#666666"/>
</radialGradient>
<linearGradient id="paint2_linear" x1="72.3763" y1="27.7879" x2="72.3763" y2="22.3451" gradientUnits="userSpaceOnUse">
<stop stop-color="#46494B"/>
<stop offset="0.5021" stop-color="#691418"/>
<stop offset="1" stop-color="#46494B"/>
</linearGradient>
<radialGradient id="paint3_radial" cx="0" cy="0" r="1" gradientUnits="userSpaceOnUse" gradientTransform="translate(74.7978 25.8175) rotate(180) scale(5.10024 5.03037)">
<stop offset="0.8536" stop-color="#46494B"/>
<stop offset="1" stop-color="#F1F1F1"/>
</radialGradient>
<radialGradient id="paint4_radial" cx="0" cy="0" r="1" gradientUnits="userSpaceOnUse" gradientTransform="translate(74.7988 25.8182) rotate(-178.413) scale(4.13433 4.07778)">
<stop stop-color="#535353"/>
<stop offset="0.5272" stop-color="#515151"/>
<stop offset="1" stop-color="#535353"/>
</radialGradient>
<radialGradient id="paint5_radial" cx="0" cy="0" r="1" gradientUnits="userSpaceOnUse" gradientTransform="translate(74.7924 25.8158) rotate(-158.222) scale(4.48813 4.44369)">
<stop stop-color="#A0A0A0"/>
<stop offset="0.5272" stop-color="#858585"/>
<stop offset="1" stop-color="#A0A0A0"/>
</radialGradient>
<radialGradient id="paint6_radial" cx="0" cy="0" r="1" gradientUnits="userSpaceOnUse" gradientTransform="translate(74.7969 25.8166) rotate(-135.395) scale(5.06609 5.06561)">
<stop stop-color="#F7F7F7"/>
<stop offset="0.5272" stop-color="#BFBFBF"/>
<stop offset="1" stop-color="#F7F7F7"/>
</radialGradient>
<radialGradient id="paint7_radial" cx="0" cy="0" r="1" gradientUnits="userSpaceOnUse" gradientTransform="translate(15.4731 25.793) rotate(-178.655) scale(7.04594 7.05727)">
<stop offset="0.708877" stop-color="#3D4346"/>
<stop offset="0.78453" stop-color="#6B7377"/>
<stop offset="0.902378" stop-color="#46494B"/>
<stop offset="1" stop-color="#46494B"/>
</radialGradient>
<radialGradient id="paint8_radial" cx="0" cy="0" r="1" gradientUnits="userSpaceOnUse" gradientTransform="translate(15.3533 25.8136) rotate(180) scale(2.49432 2.46014)">
<stop offset="0.8368" stop-color="#1A1A1A"/>
<stop offset="1" stop-color="#4D4D4D"/>
</radialGradient>
<radialGradient id="paint9_radial" cx="0" cy="0" r="1" gradientUnits="userSpaceOnUse" gradientTransform="translate(15.3537 25.8139) rotate(180) scale(3.55516 3.5047)">
<stop offset="0.5732" stop-color="white"/>
<stop offset="0.7573" stop-color="#818181"/>
<stop offset="1" stop-color="#666666"/>
</radialGradient>
<linearGradient id="paint10_linear" x1="12.9323" y1="27.7852" x2="12.9323" y2="22.3424" gradientUnits="userSpaceOnUse">
<stop stop-color="#46494B"/>
<stop offset="0.5021" stop-color="#691418"/>
<stop offset="1" stop-color="#46494B"/>
</linearGradient>
<radialGradient id="paint11_radial" cx="0" cy="0" r="1" gradientUnits="userSpaceOnUse" gradientTransform="translate(15.3539 25.8146) rotate(180) scale(5.10024 5.03037)">
<stop offset="0.8536" stop-color="#46494B"/>
<stop offset="1" stop-color="#F1F1F1"/>
</radialGradient>
<radialGradient id="paint12_radial" cx="0" cy="0" r="1" gradientUnits="userSpaceOnUse" gradientTransform="translate(15.355 25.8155) rotate(-178.413) scale(4.13434 4.07779)">
<stop stop-color="#535353"/>
<stop offset="0.5272" stop-color="#515151"/>
<stop offset="1" stop-color="#535353"/>
</radialGradient>
<radialGradient id="paint13_radial" cx="0" cy="0" r="1" gradientUnits="userSpaceOnUse" gradientTransform="translate(15.3478 25.8162) rotate(-158.223) scale(4.48813 4.44368)">
<stop stop-color="#A0A0A0"/>
<stop offset="0.5272" stop-color="#858585"/>
<stop offset="1" stop-color="#A0A0A0"/>
</radialGradient>
<radialGradient id="paint14_radial" cx="0" cy="0" r="1" gradientUnits="userSpaceOnUse" gradientTransform="translate(15.3536 25.8165) rotate(-135.395) scale(5.06609 5.06561)">
<stop stop-color="#F7F7F7"/>
<stop offset="0.5272" stop-color="#BFBFBF"/>
<stop offset="1" stop-color="#F7F7F7"/>
</radialGradient>
<linearGradient id="paint15_linear" x1="51.4202" y1="-1.45713" x2="30.066" y2="20.1936" gradientUnits="userSpaceOnUse">
<stop stop-color="white"/>
<stop offset="0.1088" stop-color="#B2B2B2"/>
<stop offset="0.2176" stop-color="white"/>
<stop offset="0.3598" stop-color="#B2B2B2"/>
<stop offset="0.4435" stop-color="white"/>
<stop offset="0.523" stop-color="#B2B2B2"/>
<stop offset="0.5983" stop-color="white"/>
<stop offset="0.6946" stop-color="#B2B2B2"/>
<stop offset="0.7615" stop-color="white"/>
<stop offset="0.8536" stop-color="#B2B2B2"/>
<stop offset="0.9247" stop-color="white"/>
<stop offset="1" stop-color="#B2B2B2"/>
</linearGradient>
<linearGradient id="paint16_linear" x1="38.4467" y1="10.5821" x2="38.4467" y2="2.34697" gradientUnits="userSpaceOnUse">
<stop stop-color="#1A1A1A"/>
<stop offset="0.2845" stop-color="#4D4D4D"/>
<stop offset="0.7866" stop-color="#1A1A1A"/>
</linearGradient>
<linearGradient id="paint17_linear" x1="40.1645" y1="10.7002" x2="40.1645" y2="2.36495" gradientUnits="userSpaceOnUse">
<stop stop-color="#1A1A1A"/>
<stop offset="0.2845" stop-color="#4D4D4D"/>
<stop offset="0.7866" stop-color="#1A1A1A"/>
</linearGradient>
<linearGradient id="paint18_linear" x1="44.654" y1="15.6461" x2="44.7407" y2="13.8625" gradientUnits="userSpaceOnUse">
<stop stop-color="white"/>
<stop offset="1" stop-color="#969696"/>
</linearGradient>
<linearGradient id="paint19_linear" x1="44.7069" y1="15.7048" x2="44.7069" y2="13.3091" gradientUnits="userSpaceOnUse">
<stop stop-color="#DCDCDC"/>
<stop offset="1" stop-color="#969696"/>
</linearGradient>
<linearGradient id="paint20_linear" x1="23.8567" y1="14.6534" x2="23.9433" y2="12.8699" gradientUnits="userSpaceOnUse">
<stop stop-color="white"/>
<stop offset="1" stop-color="#969696"/>
</linearGradient>
<linearGradient id="paint21_linear" x1="23.9095" y1="14.7122" x2="23.9095" y2="12.3165" gradientUnits="userSpaceOnUse">
<stop stop-color="#DCDCDC"/>
<stop offset="1" stop-color="#969696"/>
</linearGradient>
<linearGradient id="paint22_linear" x1="74.7274" y1="28.6168" x2="74.7274" y2="16.7069" gradientUnits="userSpaceOnUse">
<stop offset="0.1255" stop-color="#6B7377"/>
<stop offset="1" stop-color="#CBCBCB"/>
</linearGradient>
<linearGradient id="paint23_linear" x1="15.5499" y1="28.4201" x2="15.5499" y2="16.9575" gradientUnits="userSpaceOnUse">
<stop offset="0.1255" stop-color="#6B7377"/>
<stop offset="1" stop-color="#CBCBCB"/>
</linearGradient>
<linearGradient id="paint24_linear" x1="90.0116" y1="16.7097" x2="81.0681" y2="16.7097" gradientUnits="userSpaceOnUse">
<stop stop-color="#FAFAFA"/>
<stop offset="1" stop-color="#666666"/>
</linearGradient>
<linearGradient id="paint25_linear" x1="85.7054" y1="17.9673" x2="85.7054" y2="15.7701" gradientUnits="userSpaceOnUse">
<stop stop-color="#4D4D4D"/>
<stop offset="0.1841" stop-color="white"/>
<stop offset="0.4812" stop-color="#808080"/>
<stop offset="0.8201" stop-color="white"/>
<stop offset="1" stop-color="#4D4D4D"/>
</linearGradient>
<linearGradient id="paint26_linear" x1="82.7371" y1="17.588" x2="82.7371" y2="14.5562" gradientUnits="userSpaceOnUse">
<stop stop-color="#4D4D4D"/>
<stop offset="0.1841" stop-color="white"/>
<stop offset="0.4812" stop-color="#808080"/>
<stop offset="0.8201" stop-color="white"/>
<stop offset="1" stop-color="#4D4D4D"/>
</linearGradient>
<linearGradient id="paint27_linear" x1="90.0116" y1="16.7097" x2="81.0681" y2="16.7097" gradientUnits="userSpaceOnUse">
<stop stop-color="#4D4D4D"/>
<stop offset="0.2845"/>
<stop offset="0.4477" stop-color="#4D4D4D"/>
<stop offset="0.6276"/>
<stop offset="0.7866" stop-color="#262626"/>
<stop offset="1"/>
</linearGradient>
<linearGradient id="paint28_linear" x1="58.681" y1="10.3918" x2="61.9333" y2="10.3918" gradientUnits="userSpaceOnUse">
<stop stop-color="#B3B3B3"/>
<stop offset="0.2427" stop-color="white"/>
<stop offset="0.4017" stop-color="white"/>
<stop offset="1" stop-color="#B3B3B3"/>
</linearGradient>
<linearGradient id="paint29_linear" x1="60.3071" y1="12.0626" x2="60.3071" y2="8.72092" gradientUnits="userSpaceOnUse">
<stop stop-color="#B3B3B3"/>
<stop offset="0.2845" stop-color="white"/>
<stop offset="1" stop-color="#B3B3B3"/>
</linearGradient>
</defs>
</svg>
