<svg width="78" height="29" viewBox="0 0 78 29" fill="none" xmlns="http://www.w3.org/2000/svg">
<path d="M25.4124 22.6244L22.2474 22.7955L15.2406 22.1323H12.2949L12.1495 12.473L25.3639 12.9757L25.4124 22.6244Z" fill="#46494B"/>
<path d="M70.5634 23.2266L66.4672 23.3341L59.8107 22.6709H57.0124L56.8741 13.0116L69.4278 13.5143L70.5634 23.2266Z" fill="#46494B"/>
<path d="M63.7896 26.9997C60.7132 26.9997 58.2192 24.169 58.2192 20.6771C58.2192 17.1852 60.7132 14.3545 63.7896 14.3545C66.8661 14.3545 69.36 17.1852 69.36 20.6771C69.36 24.169 66.8661 26.9997 63.7896 26.9997Z" fill="url(#paint0_radial)"/>
<path d="M63.7898 25.3009C61.54 25.3009 59.7162 23.2309 59.7162 20.6773C59.7162 18.1237 61.54 16.0536 63.7898 16.0536C66.0396 16.0536 67.8634 18.1237 67.8634 20.6773C67.8634 23.2309 66.0396 25.3009 63.7898 25.3009Z" fill="url(#paint1_linear)"/>
<path d="M63.7897 24.3119C62.0213 24.3119 60.5877 22.6847 60.5877 20.6775C60.5877 18.6703 62.0213 17.0431 63.7897 17.0431C65.5582 17.0431 66.9918 18.6703 66.9918 20.6775C66.9918 22.6847 65.5582 24.3119 63.7897 24.3119Z" fill="#303030"/>
<path d="M63.7924 23.6042C62.3891 23.6042 61.2514 22.3129 61.2514 20.7201C61.2514 19.1273 62.3891 17.836 63.7924 17.836C65.1957 17.836 66.3334 19.1273 66.3334 20.7201C66.3334 22.3129 65.1957 23.6042 63.7924 23.6042Z" fill="url(#paint2_radial)"/>
<path d="M61.0719 20.2854C61.1198 19.9045 61.2277 19.5372 61.3835 19.2243C61.4674 19.0475 61.6472 18.7482 61.827 18.5305C62.0667 18.2448 62.3424 18.0271 62.63 17.8775C62.666 17.8503 62.7139 17.8775 62.7379 17.9183L63.0376 18.4897C63.0975 18.5849 63.0855 18.7346 63.0136 18.8162C62.8937 18.9114 62.7978 18.993 62.702 19.0883C62.4383 19.3467 62.2465 19.6868 62.1147 20.0406C62.1147 20.0406 62.1147 20.0406 62.1147 20.0542C62.0667 20.2038 62.0188 20.3671 62.0188 20.5303C62.0068 20.8024 62.0188 21.0609 62.0787 21.3329C62.1147 21.4826 62.1506 21.6322 62.1866 21.7955C62.1986 21.9179 62.1386 22.0404 62.0308 22.0812L61.4914 22.3396C61.4554 22.3533 61.4075 22.3396 61.3835 22.2988C61.2637 22.0404 61.0959 21.4418 61.0959 21.4282C61.0359 21.0473 61.024 20.6663 61.0719 20.2854Z" fill="url(#paint3_linear)"/>
<path d="M63.7898 21.6125C63.319 21.6125 62.9372 21.1792 62.9372 20.6448C62.9372 20.1103 63.319 19.677 63.7898 19.677C64.2607 19.677 64.6425 20.1103 64.6425 20.6448C64.6425 21.1792 64.2607 21.6125 63.7898 21.6125Z" fill="#808080"/>
<path d="M63.7897 16.3013C65.9212 16.3013 67.6548 18.2583 67.6548 20.6884C67.6548 23.1185 65.9307 25.0755 63.7897 25.0755C61.6581 25.0755 59.9245 23.1185 59.9245 20.6884C59.9245 18.2583 61.6486 16.3013 63.7897 16.3013ZM63.7897 24.3228C65.5612 24.3228 66.9917 22.6884 66.9917 20.6884C66.9917 18.6776 65.5517 17.054 63.7897 17.054C62.0181 17.054 60.5876 18.6884 60.5876 20.6884C60.5781 22.6884 62.0181 24.3228 63.7897 24.3228Z" fill="url(#paint4_linear)"/>
<path d="M62.9371 21.3334C63.0982 21.2796 63.1835 21.0861 63.1266 20.914C63.0792 20.742 62.9087 20.6452 62.7571 20.699C62.7571 20.699 62.7571 20.699 62.7477 20.699L59.934 21.0538C59.9246 20.9248 59.9151 20.7958 59.9151 20.6775C59.9151 20.4409 59.934 20.2044 59.9625 19.9786L62.4635 20.1829L60.3319 18.6775C60.474 18.3549 60.654 18.0538 60.8624 17.785L62.9561 19.9463C63.0508 20.0968 63.2308 20.1291 63.3634 20.0216C63.4961 19.914 63.5245 19.7097 63.4298 19.5592L62.2645 16.6345C62.5487 16.4947 62.8614 16.3979 63.174 16.3334L63.7708 19.0968L64.3676 16.3334C64.6897 16.3872 64.9929 16.4947 65.2771 16.6345L64.1119 19.5592C64.0171 19.7097 64.0455 19.914 64.1782 20.0216C64.3108 20.1291 64.4908 20.0968 64.5855 19.9463L66.6792 17.785C66.8876 18.0538 67.0676 18.3549 67.2097 18.6775L65.0782 20.1829L67.5792 19.9786C67.6076 20.2044 67.6265 20.4409 67.6265 20.6775C67.6265 20.8065 67.6171 20.9355 67.6076 21.0538L64.7939 20.699C64.7939 20.699 64.7939 20.699 64.7845 20.699C64.6329 20.6452 64.4624 20.742 64.415 20.914C64.3676 21.0861 64.4529 21.2796 64.6045 21.3334C64.6045 21.3334 64.6045 21.3334 64.614 21.3334L67.0771 22.9248C66.916 23.2366 66.7171 23.5162 66.4897 23.7742L64.5666 21.9355L65.5139 24.5807C65.2392 24.742 64.936 24.871 64.6234 24.9463L64.0455 21.7958C64.0455 21.7958 64.0455 21.7958 64.0455 21.785C64.0455 21.6022 63.9129 21.4517 63.7519 21.4517C63.5908 21.4517 63.4582 21.6022 63.4582 21.785C63.4582 21.785 63.4582 21.785 63.4582 21.7958L62.8803 24.9463C62.5677 24.8603 62.2645 24.742 61.9898 24.5807L62.9371 21.9355L61.014 23.7742C60.7867 23.5162 60.5972 23.2366 60.4267 22.9248L62.9371 21.3334Z" fill="url(#paint5_radial)"/>
<path d="M18.734 27C15.6576 27 13.1636 24.1693 13.1636 20.6774C13.1636 17.1856 15.6576 14.3549 18.734 14.3549C21.8105 14.3549 24.3044 17.1856 24.3044 20.6774C24.3044 24.1693 21.8105 27 18.734 27Z" fill="url(#paint6_radial)"/>
<path d="M18.7342 25.3012C16.4844 25.3012 14.6606 23.2312 14.6606 20.6776C14.6606 18.124 16.4844 16.054 18.7342 16.054C20.984 16.054 22.8078 18.124 22.8078 20.6776C22.8078 23.2312 20.984 25.3012 18.7342 25.3012Z" fill="url(#paint7_linear)"/>
<path d="M18.7341 24.3123C16.9657 24.3123 15.5321 22.6851 15.5321 20.6779C15.5321 18.6706 16.9657 17.0435 18.7341 17.0435C20.5026 17.0435 21.9362 18.6706 21.9362 20.6779C21.9362 22.6851 20.5026 24.3123 18.7341 24.3123Z" fill="#303030"/>
<path d="M18.7369 23.6045C17.3335 23.6045 16.1959 22.3133 16.1959 20.7204C16.1959 19.1276 17.3335 17.8364 18.7369 17.8364C20.1402 17.8364 21.2778 19.1276 21.2778 20.7204C21.2778 22.3133 20.1402 23.6045 18.7369 23.6045Z" fill="url(#paint8_radial)"/>
<path d="M16.0163 20.2857C16.0642 19.9048 16.1721 19.5375 16.3279 19.2246C16.4118 19.0478 16.5916 18.7485 16.7714 18.5308C17.0111 18.2451 17.2868 18.0275 17.5744 17.8778C17.6104 17.8506 17.6583 17.8778 17.6823 17.9186L17.982 18.49C18.0419 18.5852 18.0299 18.7349 17.958 18.8165C17.8381 18.9117 17.7422 18.9934 17.6464 19.0886C17.3827 19.3471 17.1909 19.6872 17.0591 20.0409C17.0591 20.0409 17.0591 20.0409 17.0591 20.0545C17.0111 20.2041 16.9632 20.3674 16.9632 20.5306C16.9512 20.8027 16.9632 21.0612 17.0231 21.3333C17.0591 21.4829 17.095 21.6326 17.131 21.7958C17.143 21.9182 17.083 22.0407 16.9752 22.0815L16.4358 22.34C16.3998 22.3536 16.3519 22.34 16.3279 22.2992C16.2081 22.0407 16.0403 21.4421 16.0403 21.4285C15.9803 21.0476 15.9684 20.6667 16.0163 20.2857Z" fill="url(#paint9_linear)"/>
<path d="M18.7342 21.6128C18.2633 21.6128 17.8816 21.1795 17.8816 20.6451C17.8816 20.1106 18.2633 19.6773 18.7342 19.6773C19.2051 19.6773 19.5868 20.1106 19.5868 20.6451C19.5868 21.1795 19.2051 21.6128 18.7342 21.6128Z" fill="#808080"/>
<path d="M18.7341 16.3016C20.8656 16.3016 22.5992 18.2585 22.5992 20.6886C22.5992 23.1187 20.8751 25.0757 18.7341 25.0757C16.6025 25.0757 14.8689 23.1187 14.8689 20.6886C14.8689 18.2585 16.593 16.3016 18.7341 16.3016ZM18.7341 24.323C20.5056 24.323 21.9361 22.6886 21.9361 20.6886C21.9361 18.6779 20.4961 17.0542 18.7341 17.0542C16.9625 17.0542 15.532 18.6886 15.532 20.6886C15.5225 22.6886 16.9625 24.323 18.7341 24.323Z" fill="url(#paint10_linear)"/>
<path d="M17.8815 21.3337C18.0426 21.2799 18.1278 21.0864 18.071 20.9143C18.0236 20.7423 17.8531 20.6455 17.7015 20.6993C17.7015 20.6993 17.7015 20.6993 17.6921 20.6993L14.8784 21.0541C14.869 20.9251 14.8595 20.7961 14.8595 20.6778C14.8595 20.4412 14.8784 20.2047 14.9069 19.9789L17.4079 20.1832L15.2763 18.6778C15.4184 18.3552 15.5984 18.0541 15.8068 17.7853L17.9005 19.9466C17.9952 20.0971 18.1752 20.1294 18.3078 20.0219C18.4405 19.9143 18.4689 19.71 18.3742 19.5595L17.2089 16.6348C17.4931 16.495 17.8057 16.3982 18.1184 16.3337L18.7152 19.0971L19.312 16.3337C19.6341 16.3875 19.9373 16.495 20.2215 16.6348L19.0563 19.5595C18.9615 19.71 18.9899 19.9143 19.1226 20.0219C19.2552 20.1294 19.4352 20.0971 19.5299 19.9466L21.6236 17.7853C21.832 18.0541 22.012 18.3552 22.1541 18.6778L20.0225 20.1832L22.5236 19.9789C22.552 20.2047 22.5709 20.4412 22.5709 20.6778C22.5709 20.8068 22.5614 20.9358 22.552 21.0541L19.7383 20.6993C19.7383 20.6993 19.7383 20.6993 19.7289 20.6993C19.5773 20.6455 19.4068 20.7423 19.3594 20.9143C19.312 21.0864 19.3973 21.2799 19.5489 21.3337C19.5489 21.3337 19.5489 21.3337 19.5583 21.3337L22.0215 22.9251C21.8604 23.2369 21.6615 23.5165 21.4341 23.7746L19.511 21.9358L20.4583 24.581C20.1836 24.7423 19.8804 24.8713 19.5678 24.9466L18.9899 21.7961C18.9899 21.7961 18.9899 21.7961 18.9899 21.7853C18.9899 21.6025 18.8573 21.452 18.6963 21.452C18.5352 21.452 18.4026 21.6025 18.4026 21.7853C18.4026 21.7853 18.4026 21.7853 18.4026 21.7961L17.8247 24.9466C17.5121 24.8606 17.2089 24.7423 16.9342 24.581L17.8815 21.9358L15.9584 23.7746C15.7311 23.5165 15.5416 23.2369 15.3711 22.9251L17.8815 21.3337Z" fill="url(#paint11_radial)"/>
<g opacity="0.5">
<path opacity="0.4" d="M19.643 6.46262L19.6525 6.48412L19.6619 6.50563C19.7851 6.70993 20.0504 7.14003 20.4104 7.74218C21.2156 7.76369 22.8166 7.8067 24.844 7.87121C24.9576 7.87121 25.0808 7.88197 25.1945 7.88197C28.3113 7.97874 32.3375 8.11853 36.0416 8.26906C36.5437 8.29057 37.0364 8.31207 37.529 8.33358C37.9837 8.35508 38.4574 8.37659 38.9311 8.3981C44.9373 8.67766 52.2413 9.14003 54.9886 9.32282C54.3444 8.6239 52.6297 7.26907 50.4508 5.87122C47.5425 4.01101 44.8994 2.78521 43.1941 2.50564C41.3563 2.19381 39.3005 2.00026 37.169 1.91424C36.5343 1.89274 35.8901 1.87123 35.2459 1.87123C35.1322 1.87123 35.028 1.87123 34.9143 1.87123C33.1048 1.87123 31.3049 1.95725 29.5618 2.11854C27.8281 2.27983 26.1418 2.66693 24.664 3.11854C24.5503 3.1508 24.4366 3.19381 24.3229 3.22607C21.983 3.97875 20.2304 4.89273 19.7851 5.33359C19.2546 5.86047 19.5672 6.36584 19.643 6.46262Z" fill="url(#paint12_linear)"/>
<path d="M47.4291 10.9346C47.3628 11.1174 47.4481 11.3325 47.6091 11.4077C47.7702 11.483 47.9597 11.3862 48.026 11.2034L49.4281 7.16043C49.4944 6.97764 49.4091 6.76259 49.2481 6.68732C49.087 6.61205 48.8975 6.70882 48.8312 6.89162L47.4291 10.9346Z" fill="#1A1A1A"/>
<path d="M22.7597 8.28977C22.7597 8.28977 23.6503 7.88116 23.1387 6.64461C22.6271 5.40805 21.2629 5.11773 20.3819 5.47257C19.5009 5.82741 19.7093 6.16074 19.7945 6.59085C19.8703 7.0317 22.7597 8.28977 22.7597 8.28977Z" fill="#1A1A1A"/>
<path d="M37.0363 2.89114C37.0363 2.89114 36.3542 2.39652 35.2363 4.5363C34.1184 6.67608 34.4974 7.05242 35.0279 6.9664C35.5584 6.88038 36.932 6.88038 37.5005 5.99866C38.0689 5.11694 37.9362 3.95566 37.7657 3.50405C37.5952 3.05243 37.0363 2.89114 37.0363 2.89114Z" fill="#1A1A1A"/>
<path d="M40.4565 13.3859C40.4565 13.3859 39.566 11.0849 38.8081 10.5902C38.0502 10.0956 37.4723 9.02036 37.1408 8.17089C36.8092 7.32143 36.6766 7.20316 36.4871 7.20316C36.2976 7.20316 34.9619 7.3967 34.9524 7.56875C34.9429 7.74079 35.3313 9.23541 35.8429 10.2999C36.3545 11.3644 36.9702 12.2354 37.5481 13.3967C38.126 14.558 40.4565 13.3859 40.4565 13.3859Z" fill="#1A1A1A"/>
<path d="M24.7876 12.9672C24.7876 12.9672 23.2529 7.84889 22.1919 6.82739C21.1308 5.80589 19.6151 6.38653 19.6151 6.38653L22.2013 12.9779H24.7876V12.9672Z" fill="#1A1A1A"/>
</g>
<path opacity="0.4" d="M12.6423 6.64562C12.1117 6.90368 11.5812 7.09723 11.1265 7.23702L9.31705 6.77465C10.5865 6.18326 16.4222 3.50584 21.1968 1.89294L22.2673 2.5381C17.6916 4.03272 13.817 6.05422 12.6423 6.64562Z" fill="#B2B6B9"/>
<path opacity="0.4" d="M47.0026 1.56975C47.9878 1.9676 49.0394 2.49448 50.2804 3.20415C53.9751 5.32243 57.5845 7.77403 58.3897 8.33317C58.3802 8.33317 58.3613 8.33317 58.3518 8.33317C56.9497 8.42994 55.8508 8.17188 54.4771 7.2364C53.1982 6.36543 48.6983 3.18265 46.0552 2.13964L47.0026 1.56975Z" fill="#B2B6B9"/>
<path d="M55.358 7.79485C56.1978 8.37108 56.2343 8.24149 57.2053 8.33248L58.4843 8.38624C58.1527 8.17119 58.0106 8.06366 57.7737 7.90237C57.1176 7.9327 56.4078 7.94649 55.358 7.79485Z" fill="#6B7377"/>
<path d="M3.92668 15.2578C4.98772 15.2578 6.2098 14.6771 6.43716 14.4728C6.66453 14.2685 6.55085 14.032 6.55085 14.032C6.55085 14.032 6.39927 13.6879 6.2477 13.3761C6.09612 13.075 5.80244 13.0427 5.80244 13.0427L2.7046 12.8599C2.7046 12.8599 2.73302 12.0858 3.22564 10.4083C3.54774 9.30082 3.84142 8.72017 4.00247 8.45136C5.00667 8.35458 7.55504 8.09652 9.69604 7.88147C10.2266 7.8277 10.8613 7.77394 11.4013 7.6234C12.6234 7.29007 13.8549 6.70943 15.0202 6.12878C19.1885 4.06427 20.2969 7.8492 20.2969 7.8492C23.2337 7.8492 26.5779 8.30083 28.4441 8.11803C31.1441 8.54818 33.323 8.45138 37.6808 8.45138C40.6839 8.946 46.0649 9.33308 52.7437 9.33308L54.7615 8.02125C55.5857 8.75243 58.9867 8.77394 62.9845 9.33308C66.9823 9.89221 71.3496 10.7524 73.5853 11.86C74.5043 12.3116 75.139 12.7954 75.5653 13.2148C75.2432 13.1825 74.8643 13.1288 74.4285 13.032C72.9601 12.6987 70.7243 12.4406 69.8717 12.4836C69.0191 12.5266 69.0286 12.7847 69.3412 13.1073C69.4738 13.247 69.8812 13.7417 70.497 14.3008C71.2928 15.032 72.4201 15.8599 73.7559 16.1718C75.1579 16.4943 76.8537 16.8492 78 17.0857V18.989C78 18.989 74.3527 18.6771 73.5664 18.6449C72.7896 18.6126 72.6854 18.8492 72.3443 19.4191C72.297 19.4943 72.2496 19.5696 72.2022 19.6556C72.0127 19.9782 71.8327 20.3223 71.7285 20.5373L77.8579 20.8384C77.8579 20.8384 77.9526 20.9137 77.9053 21.032L77.3274 21.0105L76.939 21.3653L76.759 21.5373L71.5959 21.2793L70.9138 21.247C70.9138 21.0965 70.9138 20.9352 70.9138 20.7847C70.9138 20.3761 70.8949 19.9782 70.8475 19.6019C70.4023 15.3868 67.5602 12.4406 63.7613 12.4406C60.1898 12.4406 57.5278 15.0427 56.8078 19.0642L25.46 17.9567C24.4273 14.7524 22.0495 12.8599 18.7906 12.7847C18.7338 12.7847 18.6769 12.7847 18.6201 12.7847C15.6928 12.7847 13.2486 14.6341 12.1307 17.4083L1.21726 16.9137L0.970955 15.2793C1.89936 15.2578 3.26353 15.2578 3.92668 15.2578Z" fill="url(#paint13_linear)"/>
<mask id="mask0" mask-type="alpha" maskUnits="userSpaceOnUse" x="0" y="1" width="78" height="21">
<path d="M3.92668 15.2577C4.98772 15.2577 6.20981 14.6771 6.43717 14.4728C6.66454 14.2685 6.55085 14.0319 6.55085 14.0319C6.55085 14.0319 6.39927 13.6878 6.2477 13.376C6.09612 13.0749 5.80244 13.0427 5.80244 13.0427L2.70461 12.8599C2.70461 12.8599 2.73302 12.0857 3.22565 10.4083C3.54774 9.30073 3.84142 8.72009 4.00248 8.45127C5.00667 8.3545 7.55504 8.09644 9.69605 7.88138C10.2266 7.82762 10.8613 7.77386 11.4013 7.62332C12.6234 7.28999 13.8549 6.70934 15.0202 6.1287C19.1885 4.06419 24.2119 1.07568 27.1486 1.07568C30.0854 1.07568 41.2273 1.25848 43.0936 1.07568C45.7935 1.50584 47.403 3.03221 49.9887 4.49961C51.0864 5.1226 51.7124 5.47787 53.0053 6.45613L54.7615 8.02117C55.5857 8.75235 58.9867 8.77385 62.9845 9.33299C66.9823 9.89213 71.3496 10.7523 73.5853 11.8599C74.5043 12.3115 75.139 12.7953 75.5653 13.2147C75.2432 13.1824 74.8643 13.1287 74.4285 13.0319C72.9601 12.6986 70.7244 12.4405 69.8717 12.4835C69.0191 12.5265 69.0286 12.7846 69.3412 13.1072C69.4738 13.247 69.8812 13.7416 70.497 14.3007C71.2928 15.0319 72.4201 15.8599 73.7559 16.1717C75.1579 16.4943 76.8537 16.8491 78 17.0857V18.9889C78 18.9889 74.3527 18.6771 73.5664 18.6448C72.7896 18.6125 72.6854 18.8491 72.3443 19.419C72.297 19.4943 72.2496 19.5695 72.2022 19.6555C72.0127 19.9781 71.8328 20.3222 71.7285 20.5373L77.8579 20.8383C77.8579 20.8383 77.9526 20.9136 77.9053 21.0319L77.3274 21.0104L76.939 21.3652L76.759 21.5373L71.5959 21.2792L70.9138 21.2469C70.9138 21.0964 70.9138 20.9351 70.9138 20.7846C70.9138 20.376 70.8949 19.9781 70.8475 19.6018C70.4023 15.3867 67.5602 12.4405 63.7613 12.4405C60.1898 12.4405 57.5278 15.0427 56.8078 19.0641L25.46 17.9566C24.4273 14.7523 22.0495 12.8599 18.7906 12.7846C18.7338 12.7846 18.6769 12.7846 18.6201 12.7846C15.6928 12.7846 13.2486 14.6341 12.1307 17.4082L1.21727 16.9136L0.970963 15.2792C1.89937 15.2577 3.26354 15.2577 3.92668 15.2577Z" fill="url(#paint14_linear)"/>
</mask>
<g mask="url(#mask0)">
<path d="M81.5052 -0.322769H-2.61946V27.3116H81.5052V-0.322769Z" fill="#4D4D4D"/>
<path d="M67.9454 12.3931L78.6067 17.1504L81.1263 22.0428L-0.724724 20.0536V9.35468L66.3177 12.0095C66.8755 12.0316 67.426 12.1613 67.9454 12.3931Z" fill="#4D4D4D"/>
</g>
<path d="M45.4963 1.93554C42.9858 1.18286 34.3839 0.032321 27.7145 1.1506C26.8145 1.30113 25.9145 1.49468 25.024 1.72049C24.0862 1.95705 23.1578 2.23662 22.2578 2.52694L21.1873 1.88178C22.6272 1.39791 23.9725 1.01081 25.0619 0.806512C30.2629 -0.161227 35.5965 -0.107464 39.7838 0.193611C42.73 0.397911 44.6531 0.612964 47.0026 1.56995L46.0552 2.13984C45.8657 2.05382 45.6763 1.9893 45.4963 1.93554Z" fill="#4D4D4D"/>
<path d="M0.971161 18.7303L11.591 19.3862C12.1783 15.526 15.0393 12.7518 18.6298 12.7518C18.6866 12.7518 18.7435 12.7518 18.8003 12.7518C22.6465 12.8378 25.2612 15.44 25.896 19.7625L56.647 20.5582C56.9217 15.6765 59.7732 12.4077 63.7805 12.4077C67.9204 12.4077 70.9235 15.9238 70.9235 20.7625C70.9235 20.9131 70.9235 21.0744 70.9235 21.2249L70.033 21.1819C70.033 21.0098 70.033 20.8378 70.033 20.6765C70.033 16.655 67.6362 13.3862 63.771 13.3862C60.2469 13.3862 57.7459 16.1819 57.5185 20.5797C57.5185 20.612 57.5185 20.6335 57.509 20.6658C57.4996 20.7733 57.4996 20.8916 57.4901 21.0098H57.4806L56.6091 20.9883L25.9433 20.1926L24.996 20.1711C24.977 20.0206 24.9581 19.8808 24.9297 19.741C24.3044 15.9884 22.0213 13.9023 18.7719 13.8163C15.5035 13.741 13.0878 16.2034 12.5383 19.44C12.5099 19.5797 12.491 19.7195 12.472 19.8593L11.5247 19.8055L0.971161 19.1496L0.876434 18.9131L0.971161 18.7303Z" fill="url(#paint15_linear)"/>
<path d="M12.4808 19.8827C12.4524 20.1516 12.424 20.4204 12.424 20.6892C12.4145 21.044 12.3766 21.6677 12.3577 22.3989H12.2914L2.83681 21.3559L1.57683 19.8935L1.25473 19.872L0.979998 19.1731L0.885227 18.9257L0.979998 18.7107L1.12207 16.2913L13.485 16.7752C12.585 18.2806 12.4808 19.8827 12.4808 19.8827Z" fill="#4D4D4D"/>
<path d="M57.4233 23.1505C57.4233 22.4408 57.4233 19.301 58.0107 17.7957L24.0009 16.8817C25.3745 19.6236 25.185 22.6344 25.185 22.6344L57.4233 23.1505Z" fill="#4C4C4C"/>
<path d="M70.0339 21.1935C70.0339 21.1935 70.1381 19.4624 69.6171 17.8495L77.9537 18.9247L77.7548 21.9892L77.698 22.2043L74.2307 23.2796H70.0908H70.0434C70.0434 22.5914 70.0434 21.8817 70.0339 21.1935Z" fill="#4D4D4D"/>
<path opacity="0.4" d="M12.6423 6.64562C12.1117 6.90368 11.5812 7.09723 11.1265 7.23702L9.31705 6.77465C10.5865 6.18326 16.4222 3.50584 21.1968 1.89294L22.2673 2.5381C17.6916 4.03272 13.817 6.05422 12.6423 6.64562Z" fill="#B2B6B9"/>
<path d="M77.0051 20.9681L77.0998 19.624L73.462 19.3659C73.462 19.3659 72.8273 19.2907 72.5715 19.624C72.3157 19.9573 72.022 20.6025 72.022 20.6025C72.022 20.6025 71.9273 20.753 72.1736 20.753C72.4199 20.753 77.0051 20.9681 77.0051 20.9681Z" fill="#6B7377"/>
<path d="M75.7263 20.7567L75.5179 19.66L73.3864 19.5202C73.3864 19.5202 72.8937 19.4664 72.6948 19.7245C72.4959 19.9825 72.2685 20.4772 72.2685 20.4772C72.2685 20.4772 72.1927 20.5954 72.3916 20.5954C72.5811 20.5954 75.7263 20.7567 75.7263 20.7567Z" fill="#B3B3B3"/>
<path d="M2.86551 13.6453C2.92235 13.9141 2.91288 14.0216 2.84656 14.1399C2.77077 14.2582 2.2592 14.57 2.2592 14.57L1.80448 12.8066L2.71394 12.8603C2.70446 12.8603 2.7992 13.3765 2.86551 13.6453Z" fill="#B6BABC"/>
<path d="M2.97919 7.70897C3.05498 7.71972 3.35813 7.76273 4.20127 7.6337C5.19599 7.48316 9.11802 6.70897 9.11802 6.70897L9.31696 6.76273L11.1264 7.2251C10.1696 7.50467 9.46854 7.54768 9.46854 7.54768L4.13496 8.2466C4.13496 8.2466 4.13496 8.2466 4.12548 8.25735C3.88865 8.12832 3.67076 8.02079 3.50024 7.96703C3.24445 7.88101 3.0834 7.79499 2.97919 7.70897Z" fill="#4D4D4D"/>
<path d="M2.07898 10.5808C2.28739 8.79586 2.96001 7.70984 2.96001 7.70984C2.96001 7.70984 2.96948 7.70984 2.97896 7.70984C3.08316 7.78511 3.24421 7.87113 3.5 7.9679C3.67052 8.02167 3.88841 8.12919 4.12524 8.25823C4.07788 8.32274 3.68946 8.82812 3.22526 10.398C2.73264 12.0862 2.70422 12.8496 2.70422 12.8496L1.79477 12.7958C1.79477 12.8066 1.86109 12.3657 2.07898 10.5808Z" fill="url(#paint16_linear)"/>
<path d="M2.83683 14.14C2.91261 14.0217 2.91262 13.9142 2.85577 13.6454C2.79893 13.3765 2.70419 12.8604 2.70419 12.8604L5.80203 13.0432C5.80203 13.0432 6.09571 13.0647 6.24728 13.3765C6.39886 13.6776 6.55044 14.0325 6.55044 14.0325C6.55044 14.0325 6.66412 14.269 6.43675 14.4733C6.20939 14.6776 4.98731 15.2583 3.92628 15.2583C3.26313 15.2583 1.89895 15.2583 0.980018 15.2583L2.24947 14.5701C2.24947 14.5701 2.77051 14.2583 2.83683 14.14Z" fill="url(#paint17_linear)"/>
<path d="M19.558 5.03221C20.3822 4.22576 24.7874 2.16125 29.5336 1.72039C34.2798 1.27953 39.206 1.44082 43.2512 2.10749C47.2301 2.77415 54.5721 7.94618 55.491 9.34403C55.5005 9.36553 55.5194 9.38704 55.5289 9.40854C55.5573 9.46231 55.5857 9.51607 55.6141 9.56983C55.5478 9.56983 55.4815 9.55908 55.4057 9.55908C55.3962 9.54833 55.3868 9.52682 55.3868 9.51607C55.3584 9.46231 55.311 9.39779 55.2541 9.33327C54.7047 8.65586 52.9237 7.215 50.5458 5.69888C47.6185 3.82791 44.947 2.60211 43.2228 2.31179C40.7028 1.89243 37.8324 1.67738 34.9145 1.67738C33.124 1.67738 31.3051 1.7634 29.5525 1.92469C24.8537 2.36555 20.439 4.44081 19.6717 5.1935C19.0085 5.84941 19.4538 6.52683 19.5011 6.59135L19.5106 6.6021V6.61285C19.5675 6.69887 19.8138 7.10747 20.1927 7.74188C20.2401 7.81715 20.278 7.88166 20.3253 7.95693C20.2401 7.95693 20.1738 7.95693 20.1075 7.94618C20.0601 7.87091 20.0127 7.79564 19.9748 7.73113C19.5959 7.09672 19.3685 6.72038 19.3685 6.72038C19.3685 6.72038 18.7338 5.83866 19.558 5.03221Z" fill="#6B7377"/>
<path d="M19.6719 5.18322C20.4393 4.43053 24.8445 2.35527 29.5528 1.91441C31.3149 1.75312 33.1243 1.6671 34.9148 1.6671C37.8326 1.6671 40.7031 1.88215 43.2231 2.30151C44.9473 2.59183 47.6188 3.82838 50.5461 5.68859C52.9239 7.20472 54.705 8.64558 55.2544 9.32299C55.3113 9.38751 55.3586 9.45203 55.3871 9.50579C55.3965 9.51654 55.406 9.53805 55.406 9.5488C55.3397 9.5488 55.2639 9.53805 55.1881 9.53805C55.1407 9.47353 55.0744 9.39826 54.9986 9.31224C54.3544 8.61332 52.6397 7.25848 50.4608 5.86064C47.5525 4.00043 44.9094 2.77462 43.2041 2.49505C41.3663 2.18323 39.3105 1.98968 37.179 1.90366C36.5443 1.88215 35.9001 1.86065 35.2559 1.86065C35.1422 1.86065 35.038 1.86065 34.9243 1.86065C33.1148 1.86065 31.3149 1.94667 29.5718 2.10796C27.8381 2.26925 26.1518 2.65634 24.6739 3.10796C24.5603 3.14021 24.4466 3.18322 24.3329 3.21548C21.9929 3.96817 20.2403 4.88214 19.7951 5.323C19.2646 5.84988 19.5772 6.35526 19.6435 6.45203L19.653 6.47354L19.6625 6.49504C19.7856 6.69934 20.0509 7.12945 20.4109 7.7316C20.4582 7.80687 20.4961 7.87138 20.5435 7.94665C20.4677 7.94665 20.3919 7.94665 20.3256 7.9359C20.2782 7.86063 20.2309 7.78536 20.193 7.72085C19.814 7.08644 19.5677 6.67784 19.5109 6.59182V6.58107L19.5014 6.57031C19.454 6.51655 19.0088 5.83913 19.6719 5.18322Z" fill="#919AA3"/>
<path d="M24.844 7.87064C24.9577 7.87064 25.0808 7.8814 25.1945 7.8814C28.3113 7.97817 32.3375 8.11796 36.0417 8.26849C36.5438 8.29 37.0364 8.3115 37.529 8.33301C37.9837 8.35451 38.4574 8.37602 38.9311 8.39752C44.9373 8.67709 52.2414 9.13946 54.9887 9.32225C55.0645 9.40828 55.1308 9.48354 55.1782 9.54806C52.393 9.36527 43.8763 8.81688 37.5195 8.54806C31.0397 8.26849 22.9304 8.03193 20.5336 7.96742C20.4862 7.89215 20.4483 7.81688 20.4009 7.75237C21.2156 7.76312 22.8167 7.80613 24.844 7.87064Z" fill="#919AA3"/>
<path d="M20.3255 7.95686C20.3918 7.95686 20.4581 7.95686 20.5434 7.96761C22.9402 8.03213 31.0495 8.26869 37.5294 8.54825C43.8861 8.81707 52.3933 9.36546 55.188 9.54825C55.2638 9.54825 55.3396 9.559 55.4059 9.559C55.4817 9.559 55.548 9.56976 55.6143 9.56976C55.6427 9.63427 55.6712 9.70954 55.709 9.79556C55.6522 9.79556 55.5859 9.78481 55.5196 9.78481C55.4533 9.78481 55.3869 9.77406 55.3206 9.77406C52.6681 9.60202 43.9903 9.04288 37.5389 8.76331C31.1727 8.49449 23.2339 8.25793 20.6855 8.18266C20.6097 8.18266 20.5339 8.18266 20.4676 8.17191C20.3918 8.17191 20.316 8.17191 20.2497 8.16116C20.2024 8.08589 20.155 8.01062 20.1171 7.94611C20.1739 7.94611 20.2497 7.94611 20.3255 7.95686Z" fill="#6B7377"/>
<path d="M62.9941 9.34381C59.0057 8.78467 55.5953 8.76316 54.7711 8.03198L53.7479 7.2793C51.029 5.16102 46.3018 2.2578 43.2987 1.75243C39.1303 1.05351 34.2325 0.913721 29.5147 1.36533C27.6484 1.53738 25.6495 1.98899 23.9632 2.45135C23.9632 2.45135 19.1981 4.08576 15.0297 6.13951C13.8645 6.72016 12.6329 7.3008 11.4109 7.63414C10.8709 7.78467 10.2361 7.83844 9.70562 7.8922C7.56461 8.10725 5.01623 8.36532 4.01204 8.46209C4.0973 8.32231 4.14467 8.26854 4.14467 8.26854L9.47826 7.56962C9.47826 7.56962 10.1793 7.51586 11.1361 7.24704C11.6003 7.10725 12.1214 6.92446 12.6519 6.65564C13.8361 6.075 17.7013 4.04275 22.277 2.54813C24.0296 1.96748 25.8864 1.47286 27.7337 1.17178C34.3841 0.0320024 42.986 1.18254 45.4965 1.93522C45.6765 1.98899 45.8565 2.0535 46.0555 2.12877C48.6986 3.17178 53.2079 6.35457 54.4774 7.22553C55.8605 8.17177 56.9595 8.42983 58.3615 8.33306C58.371 8.33306 58.39 8.33306 58.3994 8.33306C59.7636 8.23628 59.9531 8.17177 59.9531 8.17177C59.9531 8.17177 65.2393 8.88144 69.5592 9.9137C73.8318 10.9352 75.7833 12.5696 76.418 13.2255C76.2191 13.2363 75.9349 13.2363 75.5749 13.204C75.1486 12.7847 74.5139 12.3008 73.5949 11.8492C71.3497 10.7524 66.9824 9.90295 62.9941 9.34381Z" fill="#4D4D4D"/>
<path d="M39.4333 10.7095C39.4049 11.43 39.9354 11.5697 40.5322 11.602C41.1291 11.6343 41.6406 11.5698 41.6785 10.8386C41.707 10.1181 41.2049 9.97836 40.608 9.9461C40.0017 9.90309 39.4617 9.97836 39.4333 10.7095Z" fill="url(#paint18_linear)"/>
<path d="M39.7174 10.72C39.6984 11.2576 40.0869 11.3544 40.5321 11.3867C40.9774 11.4082 41.3563 11.3652 41.3847 10.8168C41.4037 10.2792 41.0342 10.1824 40.589 10.1609C40.1437 10.1286 39.7458 10.1716 39.7174 10.72Z" fill="url(#paint19_linear)"/>
<path d="M38.5411 10.5045C38.598 10.483 38.9864 10.3217 39.4127 10.311C39.8769 10.3002 40.0095 10.3647 40.5874 10.397C41.1653 10.4293 41.3074 10.3862 41.7621 10.44C42.179 10.4938 42.5579 10.6981 42.6147 10.7196C42.0558 10.6443 41.3548 10.569 40.5779 10.5368C39.8106 10.5045 39.1001 10.4938 38.5411 10.5045Z" fill="#DCDCDC"/>
<path d="M38.5902 10.8817C38.5049 10.7204 38.5333 10.5161 38.5333 10.5161C38.5333 10.5161 38.5333 10.5161 38.5428 10.5161C39.1018 10.4946 39.8123 10.5054 40.5796 10.5484C41.347 10.5914 42.0575 10.6559 42.6164 10.7312C42.6259 10.7312 42.6259 10.7312 42.6259 10.7312C42.6259 10.7312 42.6354 10.9355 42.5406 11.086C42.0006 10.9785 41.3091 10.8925 40.5701 10.8495C39.8217 10.828 39.1396 10.8387 38.5902 10.8817Z" fill="#DCDDDE"/>
<path d="M42.311 11.2582C41.97 11.3334 41.5342 11.3012 41.5342 11.3012C41.5342 11.3012 41.5058 11.0431 40.5679 10.9894C39.63 10.9356 39.5826 11.1937 39.5826 11.1937C39.5826 11.1937 39.1469 11.1829 38.8058 11.0646C38.7016 11.0324 38.6353 10.9571 38.5974 10.8818C39.1469 10.8388 39.8384 10.8281 40.5774 10.8711C41.3163 10.9141 42.0079 11.0001 42.5479 11.1076C42.491 11.1722 42.4152 11.2367 42.311 11.2582Z" fill="#4D4D4D"/>
<path d="M23.4231 10.1505C23.4136 10.8709 23.9441 10.9892 24.541 10.9999C25.1378 11.0107 25.6494 10.9354 25.6683 10.1935C25.6778 9.47304 25.1662 9.35476 24.5694 9.344C23.9726 9.33325 23.4421 9.41927 23.4231 10.1505Z" fill="url(#paint20_linear)"/>
<path d="M23.7169 10.1609C23.7074 10.6986 24.1053 10.7846 24.5506 10.7953C24.9958 10.8061 25.3748 10.7416 25.3842 10.1932C25.3937 9.65555 25.0148 9.56953 24.5695 9.55877C24.1242 9.54802 23.7264 9.61254 23.7169 10.1609Z" fill="url(#paint21_linear)"/>
<path d="M22.5311 9.98952C22.588 9.95726 22.9764 9.79597 23.3932 9.77447C23.8574 9.75296 23.9901 9.80673 24.5679 9.81748C25.1553 9.82823 25.2879 9.77447 25.7427 9.82823C26.1595 9.87124 26.5384 10.054 26.5953 10.0863C26.0363 10.0218 25.3258 9.97877 24.5585 9.96802C23.8006 9.93576 23.0901 9.95726 22.5311 9.98952Z" fill="#DCDCDC"/>
<path d="M22.5893 10.3546C22.5041 10.1934 22.523 9.98905 22.523 9.98905C22.523 9.98905 22.523 9.98905 22.5325 9.98905C23.0914 9.95679 23.8019 9.94604 24.5693 9.95679C25.3367 9.9783 26.0472 10.0213 26.6061 10.0751C26.6156 10.0751 26.6156 10.0751 26.6156 10.0751C26.6156 10.0751 26.6345 10.2794 26.5398 10.4407C25.9903 10.3546 25.3082 10.2901 24.5693 10.2686C23.8209 10.2579 23.1388 10.2901 22.5893 10.3546Z" fill="#DCDDDE"/>
<path d="M26.3123 10.6125C25.9713 10.6986 25.5355 10.677 25.5355 10.677C25.5355 10.677 25.5071 10.419 24.5597 10.3975C23.6218 10.376 23.5745 10.634 23.5745 10.634C23.5745 10.634 23.1387 10.634 22.7977 10.5265C22.6934 10.4943 22.6271 10.4297 22.5798 10.3437C23.1292 10.2792 23.8113 10.2469 24.5597 10.2684C25.3081 10.29 25.9902 10.3437 26.5302 10.4405C26.4923 10.5158 26.426 10.5803 26.3123 10.6125Z" fill="#4D4D4D"/>
<path fill-rule="evenodd" clip-rule="evenodd" d="M58.3533 9.62749C58.0339 9.52983 57.672 9.34595 57.3892 9.11165C57.1072 8.87803 56.8975 8.58877 56.8975 8.27945H56.9448C56.9448 8.56153 57.1377 8.83678 57.4171 9.06822C57.6951 9.29856 58.0524 9.48004 58.3673 9.57608L58.369 9.57659L58.3706 9.57739C58.4768 9.62981 58.657 9.68112 58.9001 9.73202C59.1427 9.78279 59.4461 9.83279 59.7976 9.88316C60.4802 9.98098 61.343 10.0801 62.2923 10.1891L62.378 10.1989C64.3435 10.4247 66.6631 10.6936 68.5116 11.081C70.3605 11.4684 71.5608 11.9475 72.2994 12.3303C72.6687 12.5217 72.9226 12.689 73.0844 12.8087C73.1653 12.8685 73.2232 12.9165 73.2609 12.9496C73.2798 12.9662 73.2937 12.979 73.3029 12.9878C73.3075 12.9922 73.3109 12.9956 73.3132 12.9979L73.3159 13.0005L73.3166 13.0012L73.3168 13.0014C73.3168 13.0015 73.3169 13.0015 73.3009 13.0214C73.2849 13.0412 73.2849 13.0412 73.2849 13.0412L73.2848 13.0411L73.2843 13.0406L73.282 13.0383C73.2799 13.0363 73.2768 13.0331 73.2724 13.029C73.2637 13.0207 73.2504 13.0083 73.232 12.9922C73.1952 12.9599 73.1384 12.9128 73.0585 12.8537C72.8988 12.7355 72.647 12.5695 72.2798 12.3792C71.5452 11.9985 70.3487 11.5206 68.503 11.1338C66.6568 10.747 64.3392 10.4783 62.3732 10.2524L62.2872 10.2426C61.3382 10.1336 60.4748 10.0344 59.7917 9.9365C59.4398 9.88607 59.1354 9.83593 58.8915 9.78489C58.6495 9.73422 58.4652 9.6823 58.3533 9.62749Z" fill="#4C4C4C"/>
<path opacity="0.4" fill-rule="evenodd" clip-rule="evenodd" d="M46.9915 1.54686L45.9962 2.14564L46.0475 2.16589C47.3668 2.68652 49.1509 3.74187 50.7662 4.77681C52.0612 5.6066 53.2465 6.42249 53.9952 6.93783C54.1801 7.06509 54.3383 7.17403 54.465 7.26032C55.8427 8.19851 56.9462 8.45787 58.3526 8.36092H58.3898V8.30715H58.3512L58.3504 8.3072C56.953 8.40366 55.8588 8.14682 54.4894 7.21421C54.3629 7.12805 54.2048 7.01923 54.02 6.89205C53.2714 6.37676 52.0852 5.56026 50.7895 4.72999C49.1949 3.70831 47.4326 2.66461 46.1142 2.13547L47.0137 1.59436L46.9915 1.54686Z" fill="#4C4C4C"/>
<path opacity="0.4" fill-rule="evenodd" clip-rule="evenodd" d="M21.2077 1.86911L21.1855 1.91659L22.2043 2.53059C17.9498 3.92606 14.3098 5.77103 12.8964 6.48741C12.7973 6.53763 12.7092 6.5823 12.6326 6.62088C12.1056 6.87723 11.5784 7.06984 11.1257 7.20924L9.32203 6.74833L9.31163 6.80079L11.1268 7.26461L11.1325 7.26287C11.588 7.12285 12.1196 6.92891 12.6514 6.67024L12.6516 6.6701C12.7283 6.6315 12.8165 6.5868 12.9156 6.53656C14.3351 5.81709 17.9983 3.96037 22.2737 2.56385L22.33 2.54545L21.2077 1.86911Z" fill="#4C4C4C"/>
<path fill-rule="evenodd" clip-rule="evenodd" d="M38.0638 10.4869L38.0634 10.4918C38.0629 10.4988 38.0623 10.509 38.0615 10.5219C38.06 10.5477 38.0582 10.5843 38.057 10.6277C38.0547 10.7143 38.0546 10.8285 38.0643 10.9377C38.0692 10.9938 38.0899 11.0922 38.1191 11.2298C38.1205 11.2363 38.1219 11.2429 38.1233 11.2496C38.1522 11.3855 38.1893 11.5597 38.2293 11.7726C38.3132 12.2193 38.4101 12.8364 38.4716 13.6254C38.5852 15.2047 38.5661 16.8475 38.396 18.049C38.3105 18.6478 38.2915 19.2677 38.2939 19.7375C38.2951 19.9725 38.3016 20.1702 38.3078 20.3091C38.3109 20.3786 38.314 20.4334 38.3162 20.4709C38.3174 20.4896 38.3183 20.504 38.319 20.5137L38.3197 20.5248L38.3198 20.5259L38.3172 20.5527C38.3153 20.5716 38.3126 20.599 38.3093 20.6329C38.3026 20.7008 38.2934 20.7949 38.2833 20.8998C38.2632 21.1095 38.2395 21.3623 38.2253 21.5346L38.2724 21.5396C38.2866 21.3678 38.3103 21.1153 38.3304 20.9056C38.3405 20.8008 38.3497 20.7067 38.3563 20.6389C38.3597 20.6049 38.3624 20.5776 38.3642 20.5587L38.3671 20.5295L38.3671 20.5294L38.3436 20.5264L38.3672 20.5241L38.3671 20.5232L38.3669 20.5205L38.3662 20.5096C38.3655 20.5 38.3646 20.4858 38.3635 20.4672C38.3612 20.43 38.3582 20.3755 38.3551 20.3064C38.3489 20.1681 38.3424 19.9713 38.3412 19.7372C38.3389 19.2689 38.3578 18.6523 38.4428 18.0575C38.6137 16.8504 38.6326 15.2029 38.5188 13.621L38.5188 13.6208C38.4571 12.8292 38.3598 12.2098 38.2756 11.7614C38.2355 11.5478 38.1983 11.373 38.1694 11.2371C38.168 11.2303 38.1666 11.2237 38.1652 11.2172C38.1355 11.0775 38.1159 10.9837 38.1114 10.9323C38.1021 10.8264 38.102 10.7148 38.1044 10.6294C38.1056 10.5867 38.1073 10.5507 38.1088 10.5255C38.1095 10.5128 38.1102 10.5029 38.1107 10.4961L38.1112 10.4884L38.1114 10.4864L38.1114 10.4859L38.1114 10.4858L38.1119 10.4799L37.5701 8.75389L37.5255 8.77193L38.0638 10.4869ZM38.3436 20.5264L38.3672 20.5241L38.3674 20.5267L38.3671 20.5294L38.3436 20.5264Z" fill="#4C4C4C"/>
<path fill-rule="evenodd" clip-rule="evenodd" d="M43.2545 2.08108C39.2074 1.4141 34.2794 1.25279 29.5316 1.69379C27.1562 1.91443 24.8665 2.54132 23.0675 3.21387C22.168 3.55015 21.3909 3.89795 20.787 4.21227C20.1838 4.5262 19.7512 4.80775 19.5424 5.01205C19.1234 5.42203 19.0737 5.85408 19.1309 6.1841C19.1593 6.34821 19.214 6.4863 19.2614 6.58326C19.2852 6.63179 19.3072 6.67015 19.3233 6.69647C19.3275 6.70325 19.3313 6.70924 19.3346 6.7144C19.3377 6.71925 19.3404 6.72336 19.3426 6.72672C19.3441 6.72897 19.3454 6.73087 19.3465 6.73243L19.348 6.73466L19.3493 6.73636L19.3495 6.73676L19.3503 6.73812L19.4366 6.88103C19.4938 6.97584 19.5778 7.11503 19.6849 7.29251C19.8991 7.64747 20.2057 8.15562 20.5753 8.76835C21.3143 9.99381 22.3052 11.6376 23.3124 13.311C25.3263 16.6572 27.4046 20.1203 27.6658 20.5946C27.8641 20.9894 28.1899 21.186 28.4642 21.2838C28.6015 21.3328 28.7264 21.3573 28.8171 21.3695C28.8624 21.3757 28.8993 21.3787 28.9248 21.3803C28.9376 21.3811 28.9476 21.3814 28.9544 21.3816C28.9578 21.3817 28.9604 21.3818 28.9622 21.3818L28.9643 21.3818L28.9647 21.3818L28.9649 21.3818H28.965L55.3955 21.9304L55.8429 21.4778L55.8449 21.471L55.8225 21.4625C55.8449 21.471 55.8449 21.471 55.8449 21.471L55.845 21.4707L55.8452 21.47L55.846 21.4672C55.8467 21.4648 55.8477 21.4612 55.849 21.4564C55.8517 21.4467 55.8555 21.4324 55.8604 21.4131C55.8702 21.3746 55.8843 21.3165 55.9013 21.2381C55.9353 21.0811 55.9813 20.8426 56.0294 20.5153C56.1255 19.8608 56.2298 18.8514 56.263 17.4309C56.2962 16.0113 56.3009 14.3301 56.2061 12.8409C56.1587 12.0964 56.0864 11.3992 55.9801 10.8064C55.8739 10.2142 55.7335 9.72379 55.5488 9.39431C55.4555 9.22792 55.256 9.00002 54.973 8.7283C54.6894 8.45595 54.3201 8.13779 53.8851 7.79082C53.0152 7.09685 51.8819 6.2869 50.645 5.49688C48.1722 3.91746 45.2818 2.41519 43.2545 2.08108ZM55.8019 21.4473L55.3779 21.8763L28.9655 21.3281L28.9651 21.3281L28.9646 21.3281L28.9628 21.328C28.9612 21.328 28.9588 21.328 28.9556 21.3279C28.9492 21.3277 28.9396 21.3273 28.9273 21.3266C28.9027 21.3251 28.8669 21.3221 28.8227 21.3162C28.7342 21.3042 28.6123 21.2803 28.4784 21.2325C28.2104 21.1369 27.8969 20.9465 27.7068 20.5675L27.7063 20.5665C27.4454 20.0928 25.3655 16.627 23.3515 13.2807C22.3443 11.6073 21.3534 9.96345 20.6144 8.73798C20.2448 8.12524 19.9382 7.61709 19.724 7.26213C19.6169 7.08464 19.5329 6.94546 19.4757 6.85064L19.3883 6.70597L19.3881 6.70553C19.388 6.70543 19.388 6.70538 19.3684 6.72057L19.388 6.70538L19.3874 6.70444L19.3868 6.70357L19.3864 6.7031L19.3852 6.70138C19.3842 6.69981 19.3825 6.69742 19.3804 6.69423C19.3761 6.68785 19.3699 6.67828 19.3622 6.66576C19.3469 6.64071 19.3257 6.60389 19.3028 6.55715C19.257 6.46358 19.2046 6.33084 19.1773 6.17372C19.1232 5.86127 19.1682 5.44923 19.5734 5.05277C19.7767 4.85384 20.2038 4.57491 20.8067 4.26114C21.4089 3.94778 22.1843 3.60069 23.0824 3.26493C24.8786 2.5934 27.1646 1.9676 29.5354 1.74738C34.2801 1.30667 39.2045 1.46794 43.2477 2.13428C45.2656 2.46684 48.1494 3.96456 50.6218 5.54374C51.8575 6.33301 52.9895 7.14202 53.8579 7.8348C54.2922 8.18121 54.6603 8.49837 54.9424 8.76934C55.2252 9.04092 55.4197 9.26429 55.5088 9.42317C55.6888 9.74423 55.8279 10.2269 55.9337 10.8172C56.0394 11.4068 56.1115 12.1015 56.1588 12.8448C56.2535 14.3314 56.2488 16.0105 56.2156 17.4295C56.1825 18.8477 56.0784 19.8545 55.9827 20.5064C55.9348 20.8324 55.889 21.0696 55.8553 21.2252C55.8384 21.303 55.8245 21.3604 55.8149 21.3982C55.8101 21.4171 55.8063 21.4311 55.8038 21.4404C55.8031 21.4431 55.8024 21.4454 55.8019 21.4473Z" fill="#4C4C4C"/>
<path fill-rule="evenodd" clip-rule="evenodd" d="M6.0383 9.6819L6.03669 9.68007L6.0032 9.71809C6.04169 9.76177 6.06711 9.79097 6.08403 9.82938L6.08506 9.83173L6.08648 9.83381C6.28052 10.1185 6.96482 11.1559 7.60081 12.1224C7.91876 12.6056 8.22457 13.071 8.45089 13.4156C8.56405 13.5879 8.65734 13.73 8.72234 13.829L8.82362 13.9833L8.82374 13.9835L8.82394 13.9838L8.82453 13.9848C8.82522 13.9859 8.82622 13.9875 8.82753 13.9895C8.83015 13.9937 8.83402 13.9996 8.83917 14.0071C8.84946 14.0222 8.86485 14.0435 8.88551 14.0692C8.92682 14.1205 8.98926 14.1893 9.0742 14.2598C9.24419 14.4007 9.50417 14.5481 9.86456 14.5753C10.324 14.613 11.6407 14.7259 12.8426 14.8294C13.4436 14.8811 14.0158 14.9305 14.4379 14.9669L15.1314 15.0269L15.1316 15.0269C15.1316 15.0269 15.1316 15.0269 15.1334 15.0001C15.1352 14.9733 15.1352 14.9733 15.1352 14.9733L15.135 14.9733L14.4414 14.9133C14.0194 14.8769 13.4472 14.8275 12.8462 14.7757C11.6443 14.6723 10.3274 14.5594 9.86789 14.5217L9.86776 14.5217C9.51767 14.4952 9.26609 14.3523 9.10215 14.2163C9.02012 14.1483 8.96 14.082 8.92049 14.0329C8.90074 14.0084 8.88615 13.9881 8.87657 13.9741C8.87178 13.9671 8.86824 13.9617 8.86593 13.9581C8.86478 13.9563 8.86393 13.9549 8.86339 13.954L8.86281 13.9531L8.8627 13.9529M8.8627 13.9529L8.86206 13.9518L8.84389 13.9672C8.86204 13.9518 8.86208 13.9518 8.86206 13.9518L8.86193 13.9517L8.76033 13.7969C8.69533 13.6978 8.60203 13.5557 8.48887 13.3834C8.26254 13.0388 7.95672 12.5734 7.63876 12.0902C7.00443 11.1262 6.32153 10.091 6.12532 9.80293C6.10466 9.75721 6.07427 9.72272 6.0383 9.6819" fill="#4C4C4C"/>
<path fill-rule="evenodd" clip-rule="evenodd" d="M68.5705 14.4035L67.6569 14.7599L67.6723 14.8107L68.5776 14.4575L68.8147 14.4663C68.9643 14.4718 69.1719 14.4795 69.4034 14.4883C69.8664 14.5058 70.4253 14.5273 70.8089 14.5434L70.8107 14.4897C70.4269 14.4735 69.868 14.452 69.4049 14.4345C69.1734 14.4258 68.9659 14.4181 68.8162 14.4125L68.5749 14.4036C68.5749 14.4036 68.5748 14.4036 68.574 14.4305L68.5749 14.4036L68.5705 14.4035Z" fill="#4C4C4C"/>
<path d="M2.44046 10.6027C2.4973 10.4199 2.74361 9.6242 2.80045 9.51667C2.86677 9.40915 3.26466 9.30162 3.6436 9.28012C3.89938 9.25861 4.94147 9.26936 5.58566 9.28012C5.81303 9.47366 5.99302 9.66721 6.09723 9.81775C6.2867 10.0973 6.94037 11.0866 7.55615 12.0328L2.88572 11.8823C2.88572 11.8823 2.57309 11.5919 2.46888 11.2694C2.38362 10.9468 2.39309 10.7855 2.44046 10.6027Z" fill="url(#paint22_linear)"/>
<path fill-rule="evenodd" clip-rule="evenodd" d="M3.64051 9.24478C3.89867 9.22317 4.94197 9.23399 5.58493 9.24472L5.59492 9.24488L5.60292 9.25169C5.83155 9.44632 6.01378 9.64194 6.12021 9.79568L6.1204 9.79596C6.31007 10.0758 6.96389 11.0653 7.57968 12.0116L7.61719 12.0692L2.87318 11.9163L2.86507 11.9087L2.86819 11.9044C2.86506 11.9087 2.86507 11.9087 2.86507 11.9087L2.86477 11.9085L2.86402 11.9078L2.86124 11.9051C2.85882 11.9028 2.8553 11.8994 2.85082 11.8951C2.84185 11.8863 2.82899 11.8734 2.81326 11.857C2.78182 11.8242 2.73884 11.7772 2.69253 11.7198C2.60043 11.6058 2.49301 11.4485 2.43884 11.2808L2.43852 11.2799L2.43825 11.2789C2.39516 11.1158 2.37549 10.9916 2.37302 10.884C2.37055 10.7759 2.38548 10.6861 2.40979 10.5923L2.41029 10.5906C2.4125 10.5834 2.415 10.5754 2.41777 10.5665C2.45051 10.4611 2.52045 10.2361 2.5904 10.019C2.62833 9.90126 2.66632 9.78571 2.69842 9.69277C2.73002 9.60126 2.75707 9.52817 2.77291 9.49821L2.77347 9.49716L2.77409 9.49615C2.79604 9.46055 2.84066 9.43051 2.8936 9.40479C2.94823 9.37823 3.01778 9.3535 3.09631 9.33173C3.25337 9.28819 3.44936 9.25565 3.64051 9.24478ZM5.57401 9.31431C5.79624 9.50442 5.97097 9.69306 6.07178 9.83864C6.25734 10.1124 6.88826 11.0671 7.49273 11.9954L2.8961 11.8472C2.89459 11.8458 2.89287 11.8441 2.89097 11.8422C2.88243 11.8339 2.87005 11.8215 2.85484 11.8056C2.8244 11.7739 2.78272 11.7282 2.73784 11.6727C2.64777 11.5612 2.54701 11.4123 2.49686 11.2578C2.45488 11.0988 2.43674 10.9813 2.43447 10.8822C2.43221 10.7836 2.4456 10.7016 2.46853 10.6129C2.47068 10.606 2.47309 10.5982 2.47575 10.5897C2.5085 10.4843 2.57832 10.2596 2.64813 10.0429C2.686 9.9254 2.7238 9.81044 2.75564 9.71823C2.78749 9.62603 2.81227 9.55995 2.82503 9.53522C2.83667 9.51719 2.86652 9.49384 2.91779 9.46892C2.96825 9.4444 3.03429 9.42074 3.11089 9.39951C3.264 9.35706 3.45627 9.32509 3.64394 9.31444L3.64468 9.3144C3.8974 9.29315 4.92818 9.3036 5.57401 9.31431Z" fill="black"/>
<path fill-rule="evenodd" clip-rule="evenodd" d="M2.6133 11.2256H5.62225V11.1418H2.6133V11.2256Z" fill="#E3000B"/>
<path fill-rule="evenodd" clip-rule="evenodd" d="M2.58471 11.0533L5.53693 11.0536L5.53682 10.9698L2.5846 10.9696L2.58471 11.0533Z" fill="#E3000B"/>
<path fill-rule="evenodd" clip-rule="evenodd" d="M2.58472 10.8929H5.46118L5.46107 10.8092L2.58461 10.8092L2.58472 10.8929Z" fill="#E3000B"/>
<path fill-rule="evenodd" clip-rule="evenodd" d="M2.5851 10.7304L5.37592 10.7304L5.3757 10.6466L2.58488 10.6466L2.5851 10.7304Z" fill="#4D4D4D"/>
<path fill-rule="evenodd" clip-rule="evenodd" d="M2.64535 10.5697L5.30035 10.5697L5.30013 10.486L2.64513 10.486L2.64535 10.5697Z" fill="#4D4D4D"/>
<path fill-rule="evenodd" clip-rule="evenodd" d="M2.72862 10.4081L5.21503 10.4081L5.2147 10.3244L2.72829 10.3244L2.72862 10.4081Z" fill="#4D4D4D"/>
<path fill-rule="evenodd" clip-rule="evenodd" d="M2.77601 10.2465L5.13898 10.2465L5.13865 10.1628L2.77568 10.1628L2.77601 10.2465Z" fill="#E3000B"/>
<path fill-rule="evenodd" clip-rule="evenodd" d="M2.79464 10.0858L5.05328 10.0858L5.05284 10.0021L2.7942 10.0021L2.79464 10.0858Z" fill="#E3000B"/>
<path d="M5.68844 11.3763C5.2716 10.7418 5.00635 10.344 4.90214 10.1935C4.89267 10.1827 4.69372 9.89239 4.29583 9.89239C4.19163 9.89239 4.08742 9.89239 3.98321 9.89239C3.879 9.89239 3.78427 9.89239 3.68006 9.89239C3.15902 9.89239 2.96955 9.90314 2.90324 9.90314C2.87482 9.90314 2.8464 9.91389 2.8085 9.91389C2.85587 9.77411 2.89376 9.65583 2.92218 9.58056C3.04533 9.56981 3.30112 9.56981 3.67059 9.56981C3.76532 9.56981 3.86953 9.56981 3.97374 9.56981C4.07795 9.56981 4.18215 9.56981 4.28636 9.56981C4.81688 9.56981 5.09161 9.94615 5.12003 9.98916C5.24318 10.1612 5.56529 10.6558 6.07685 11.4408L6.24738 11.6988L2.83692 11.6343C2.76113 11.5375 2.69481 11.43 2.63797 11.3117L5.68844 11.3763Z" fill="#E3000B"/>
<g style="mix-blend-mode:screen">
<path d="M2.44046 10.6027C2.4973 10.4199 2.74361 9.6242 2.80045 9.51667C2.86677 9.40915 3.26466 9.30162 3.6436 9.28012C3.89938 9.25861 4.94147 9.26936 5.58566 9.28012C5.81303 9.47366 5.99302 9.66721 6.09723 9.81775C6.2867 10.0973 6.94037 11.0866 7.55615 12.0328L2.88572 11.8823C2.88572 11.8823 2.57309 11.5919 2.46888 11.2694C2.38362 10.9468 2.39309 10.7855 2.44046 10.6027Z" fill="url(#paint23_linear)"/>
</g>
<path d="M76.4078 13.2371C76.4173 13.2478 76.4268 13.2478 76.4268 13.2586C77.0425 13.9037 77.232 14.3983 77.4309 15.0005C77.6299 15.6134 77.6204 16.1188 77.6204 16.1188L77.1183 16.2908C76.9004 16.2585 76.2183 16.1403 75.2331 15.9575C75.4699 15.6887 75.9152 15.151 76.1141 14.7854C76.3794 14.2801 76.351 14.2586 76.351 14.2586C76.351 14.2586 76.1615 13.8069 75.5552 13.2155C75.9341 13.2478 76.2183 13.2478 76.4078 13.2371Z" fill="#B3B3B3"/>
<path d="M76.9378 15.6253L77.4494 15.8296L77.4399 15.9264L76.8905 15.9586L74.6358 15.5716L74.6831 15.2382L76.9378 15.6253Z" fill="url(#paint24_linear)"/>
<path d="M74.6685 15.359L77.4514 15.8287L77.4389 15.9245L74.6559 15.4547L74.6685 15.359Z" fill="#808080"/>
<path d="M76.8159 14.9155L77.3275 15.1198L77.318 15.2165L76.7686 15.238L74.5139 14.8617L74.5613 14.5284L76.8159 14.9155Z" fill="url(#paint25_linear)"/>
<path d="M74.5449 14.6492L77.3278 15.119L77.3153 15.2147L74.5323 14.7449L74.5449 14.6492Z" fill="#808080"/>
<mask id="mask1" mask-type="alpha" maskUnits="userSpaceOnUse" x="69" y="12" width="8" height="4">
<path d="M76.3609 14.2482C76.3609 14.2482 76.3893 14.2697 76.124 14.775C75.9251 15.1514 75.4798 15.6783 75.243 15.9471C74.6935 15.8395 74.0399 15.7213 73.3293 15.5815C72.1073 15.3449 71.1315 14.7643 70.4968 14.2912C69.8905 13.732 69.4831 13.2374 69.341 13.0976C69.0284 12.775 69.0189 12.517 69.8715 12.474C70.7241 12.431 72.9599 12.689 74.4283 13.0223C74.8641 13.1191 75.2525 13.1836 75.5651 13.2051C76.1714 13.8073 76.3609 14.2482 76.3609 14.2482Z" fill="url(#paint26_linear)"/>
</mask>
<g mask="url(#mask1)">
<path d="M73.5189 14.3992C73.0925 14.3992 71.1126 14.3992 70.6863 14.3992C70.5442 14.3992 70.3736 14.2702 70.3358 14.1089C70.2789 13.8186 70.2789 13.5068 70.3358 13.2164C70.3736 13.0551 70.5442 12.9261 70.6863 12.9261C71.1126 12.9261 73.0925 12.9261 73.5189 12.9261C73.661 12.9154 73.661 14.3992 73.5189 14.3992Z" fill="url(#paint27_linear)"/>
<path d="M74.55 15.668L75.071 14.9691L76.3594 15.2056L76.4068 14.797L74.6542 14.4745L74.1426 15.1626C74.1426 15.1626 73.8395 15.1089 73.3279 14.9906C72.3237 14.7648 71.9827 14.3669 71.509 13.8078L71.4616 13.754C70.969 13.1734 70.3153 12.1949 70.0596 11.7971L70.0501 11.7863L69.7564 12.0336L69.7659 12.0444C70.088 12.539 70.7037 13.4637 71.1964 14.0444L71.2437 14.0981C71.7364 14.6895 72.1342 15.1519 73.2521 15.3992C73.8963 15.539 74.55 15.668 74.55 15.668Z" fill="#999999"/>
<path fill-rule="evenodd" clip-rule="evenodd" d="M69.8391 11.9968C69.9581 12.181 70.6979 13.3264 71.2639 13.9903L71.3328 13.9146L71.2638 13.9901C71.2639 13.9902 71.2639 13.9902 71.2639 13.9903C71.2814 14.0109 71.2987 14.0313 71.316 14.0517C71.5445 14.3215 71.757 14.5724 72.0364 14.7834C72.3392 15.0121 72.7165 15.1914 73.2759 15.3118L73.2939 15.2049L73.276 15.3118C73.276 15.3118 73.2759 15.3118 73.2759 15.3118C73.5985 15.3818 73.9258 15.4491 74.1723 15.4989C74.2956 15.5238 74.3988 15.5443 74.4711 15.5586C74.5073 15.5658 74.5357 15.5714 74.5552 15.5752L74.5849 15.581L74.6012 15.4737L74.585 15.581L74.6391 15.5915L75.1513 14.9026L76.3674 15.1189L76.3971 14.9038L75.0743 14.6685L74.5634 15.3558C74.547 15.3526 74.527 15.3487 74.504 15.3441C74.4319 15.3299 74.329 15.3094 74.2059 15.2845C73.9598 15.2349 73.6334 15.1677 73.3119 15.098L73.3118 15.0979C72.7723 14.9818 72.4202 14.8117 72.1427 14.6022C71.8814 14.4049 71.6827 14.1704 71.4512 13.8972C71.435 13.878 71.4185 13.8586 71.4019 13.839L71.4018 13.8389C70.8452 13.186 70.1111 12.0497 69.993 11.8668L69.9892 11.861L69.8345 11.9897L69.8391 11.9968Z" fill="#E5E5E5"/>
<path d="M69.7767 12.1946H69.7862C70.0135 12.5602 70.6009 13.4741 71.0556 14.044C71.3303 14.3774 71.5767 14.6677 71.8893 14.9043C71.4156 14.6784 70.9798 14.4096 70.6767 14.1516C70.2314 13.7752 69.9188 13.3989 69.7388 13.1731C69.5209 12.9043 69.1514 12.4311 69.1325 12.4096C69.1893 12.3881 69.4451 12.2053 69.7767 12.1946Z" fill="url(#paint28_linear)"/>
</g>
<path d="M76.5503 14.2376L77.0619 14.4419L77.0524 14.5386L76.503 14.5709L74.7882 14.2806L75.0061 13.9795L76.5503 14.2376Z" fill="url(#paint29_linear)"/>
<path d="M74.8642 14.1627L77.0526 14.539L77.0621 14.4422L74.9305 14.0874L74.8642 14.1627Z" fill="#808080"/>
<path d="M76.7591 13.6355C76.4559 13.6678 75.6507 13.7001 74.4381 13.442C73.3202 13.2054 70.8666 12.8614 69.2277 12.6248C69.3319 12.5495 69.5308 12.4958 69.8719 12.485C70.7245 12.442 72.9602 12.7001 74.4286 13.0334C75.3665 13.2484 76.0391 13.2592 76.4086 13.2377C76.418 13.2484 76.4275 13.2484 76.4275 13.2592C76.5602 13.3882 76.6644 13.5065 76.7591 13.6355Z" fill="url(#paint30_linear)"/>
<path fill-rule="evenodd" clip-rule="evenodd" d="M69.6473 12.767C71.2797 12.9978 73.4103 13.299 74.4354 13.5123C75.6726 13.7715 76.493 13.7395 76.8112 13.7067L76.7999 13.5666C76.4928 13.5982 75.6838 13.6308 74.4579 13.3739L74.4578 13.3739C73.4289 13.1598 71.2944 12.858 69.6633 12.6275C69.4886 12.6028 69.3198 12.5789 69.1586 12.5561L69.1433 12.6957C69.3043 12.7185 69.473 12.7424 69.6473 12.767Z" fill="#808080"/>
<path opacity="0.5" d="M71.4724 13.3657C70.4872 13.1184 69.7293 12.8818 69.1609 12.6775C69.2272 12.57 69.4356 12.4947 69.8619 12.4732C70.7145 12.4302 72.9503 12.6883 74.4187 13.0216C74.8545 13.1184 75.2429 13.1829 75.5555 13.2044C76.1239 13.7635 76.3228 14.1936 76.3418 14.2366C75.4987 14.1506 73.5187 13.8818 71.4724 13.3657Z" fill="#4D4D4D"/>
<path opacity="0.8" d="M19.6531 6.46289L19.6625 6.4844L19.672 6.5059C19.7952 6.7102 20.0604 7.14031 20.4204 7.74246C21.2257 7.76396 22.8267 7.80697 24.854 7.87149C24.9677 7.87149 25.0909 7.88224 25.2045 7.88224C28.3213 7.97902 32.3476 8.1188 36.0517 8.26934C36.5538 8.29084 37.0464 8.31235 37.539 8.33385C37.9938 8.35536 38.4675 8.37686 38.9411 8.39837C44.9473 8.67794 52.2514 9.1403 54.9987 9.3231C54.3545 8.62418 52.6398 7.26934 50.4609 5.8715C47.5525 4.01128 44.9094 2.78548 43.2042 2.50591C41.3663 2.19409 39.3106 2.00054 37.1791 1.91452C36.5443 1.89301 35.9001 1.87151 35.2559 1.87151C35.1423 1.87151 35.038 1.87151 34.9244 1.87151C33.1149 1.87151 31.315 1.95753 29.5718 2.11882C27.8382 2.28011 26.1519 2.6672 24.674 3.11881C24.5603 3.15107 24.4467 3.19408 24.333 3.22634C21.993 3.97903 20.2404 4.893 19.7952 5.33386C19.2647 5.86074 19.5773 6.36612 19.6531 6.46289Z" fill="#B2B6B9"/>
<path d="M24.6642 3.1192L25.1948 7.88263C25.0716 7.88263 24.9579 7.87188 24.8442 7.87188L24.3327 3.22673C24.4369 3.19447 24.5506 3.15146 24.6642 3.1192Z" fill="#6B7377"/>
<path d="M51.8537 6.55936L52.3179 9.35507L55.4062 9.55937C55.4062 9.55937 55.3589 9.31022 53.9473 8.11851C52.801 7.15075 51.8537 6.55936 51.8537 6.55936Z" fill="#6B7377"/>
<path d="M37.5295 8.3231C37.0463 8.3016 36.5443 8.28009 36.0422 8.25859L35.2464 1.87151C35.8906 1.87151 36.5348 1.89301 37.1695 1.91452L38.9316 8.38762C38.4579 8.36611 37.9842 8.34461 37.5295 8.3231Z" fill="#6B7377"/>
<path d="M53.5853 8.49557L53.339 9.75364L53.1685 10.1945L51.9938 10.1622L51.9559 9.34504L53.5853 8.49557Z" fill="url(#paint31_linear)"/>
<path d="M53.0468 8.33309L50.4226 8.18255C50.4226 8.16105 50.4226 8.12879 50.4321 8.10728C50.5458 6.93524 51.2563 7.01051 51.2563 7.01051C51.2563 7.01051 52.1373 7.01051 52.8384 7.40836C53.492 7.77395 53.6341 8.25782 53.5868 8.5589C53.5773 8.60191 53.5678 8.64492 53.5489 8.69868L53.2931 8.68793C53.2362 8.38685 53.0468 8.33309 53.0468 8.33309Z" fill="url(#paint32_linear)"/>
<path d="M53.3043 8.78554C53.3043 8.74252 53.2948 8.71027 53.2948 8.67801L53.5506 8.68876C53.4369 9.01134 53.039 9.46295 52.0064 9.46295C50.9549 9.4522 50.4243 9.39844 50.4054 8.50597L53.2853 8.67801C53.2948 8.71027 53.2948 8.74252 53.3043 8.78554Z" fill="url(#paint33_linear)"/>
<path d="M50.4129 8.18372L53.037 8.33425C53.037 8.33425 53.2265 8.38802 53.2833 8.67834L50.4034 8.5063C50.4034 8.40952 50.4034 8.302 50.4129 8.18372Z" fill="url(#paint34_linear)"/>
<path d="M38.5618 29C17.2647 29 -7.62939e-06 28.5523 -7.62939e-06 28C-7.62939e-06 27.4477 17.2647 27 38.5618 27C59.8589 27 77.1237 27.4477 77.1237 28C77.1237 28.5523 59.8589 29 38.5618 29Z" fill="url(#paint35_linear)" fill-opacity="0.6"/>
<defs>
<radialGradient id="paint0_radial" cx="0" cy="0" r="1" gradientUnits="userSpaceOnUse" gradientTransform="translate(63.8165 20.7382) rotate(-178.452) scale(5.65321 6.51495)">
<stop offset="0.708877" stop-color="#3D4346"/>
<stop offset="0.78453" stop-color="#6B7377"/>
<stop offset="0.902378" stop-color="#46494B"/>
<stop offset="1" stop-color="#46494B"/>
</radialGradient>
<linearGradient id="paint1_linear" x1="63.786" y1="25.3039" x2="63.786" y2="15.9547" gradientUnits="userSpaceOnUse">
<stop stop-color="#808080"/>
<stop offset="0.9677" stop-color="#E5E5E5"/>
</linearGradient>
<radialGradient id="paint2_radial" cx="0" cy="0" r="1" gradientUnits="userSpaceOnUse" gradientTransform="translate(63.7954 20.7138) rotate(180) scale(2.5407 2.88231)">
<stop offset="0.35311" stop-color="white"/>
<stop offset="0.7573" stop-color="#818181"/>
<stop offset="1" stop-color="#666666"/>
</radialGradient>
<linearGradient id="paint3_linear" x1="62.0651" y1="22.3346" x2="62.0651" y2="17.8584" gradientUnits="userSpaceOnUse">
<stop stop-color="#46494B"/>
<stop offset="0.5021" stop-color="#691418"/>
<stop offset="1" stop-color="#46494B"/>
</linearGradient>
<linearGradient id="paint4_linear" x1="63.7858" y1="16.2977" x2="63.7858" y2="25.0506" gradientUnits="userSpaceOnUse">
<stop stop-color="#808080"/>
<stop offset="0.9677" stop-color="#E5E5E5"/>
</linearGradient>
<radialGradient id="paint5_radial" cx="0" cy="0" r="1" gradientUnits="userSpaceOnUse" gradientTransform="translate(63.7782 20.6323) rotate(-131.963) scale(4.09861 4.07561)">
<stop stop-color="#F7F7F7"/>
<stop offset="0.5272" stop-color="#BFBFBF"/>
<stop offset="1" stop-color="#F7F7F7"/>
</radialGradient>
<radialGradient id="paint6_radial" cx="0" cy="0" r="1" gradientUnits="userSpaceOnUse" gradientTransform="translate(18.7609 20.7385) rotate(-178.452) scale(5.65321 6.51496)">
<stop offset="0.708877" stop-color="#3D4346"/>
<stop offset="0.78453" stop-color="#6B7377"/>
<stop offset="0.902378" stop-color="#46494B"/>
<stop offset="1" stop-color="#46494B"/>
</radialGradient>
<linearGradient id="paint7_linear" x1="18.7304" y1="25.3042" x2="18.7304" y2="15.955" gradientUnits="userSpaceOnUse">
<stop stop-color="#808080"/>
<stop offset="0.9677" stop-color="#E5E5E5"/>
</linearGradient>
<radialGradient id="paint8_radial" cx="0" cy="0" r="1" gradientUnits="userSpaceOnUse" gradientTransform="translate(18.7399 20.7142) rotate(180) scale(2.5407 2.88231)">
<stop offset="0.35311" stop-color="white"/>
<stop offset="0.7573" stop-color="#818181"/>
<stop offset="1" stop-color="#666666"/>
</radialGradient>
<linearGradient id="paint9_linear" x1="17.0095" y1="22.335" x2="17.0095" y2="17.8588" gradientUnits="userSpaceOnUse">
<stop stop-color="#46494B"/>
<stop offset="0.5021" stop-color="#691418"/>
<stop offset="1" stop-color="#46494B"/>
</linearGradient>
<linearGradient id="paint10_linear" x1="18.7302" y1="16.2979" x2="18.7302" y2="25.0509" gradientUnits="userSpaceOnUse">
<stop stop-color="#808080"/>
<stop offset="0.9677" stop-color="#E5E5E5"/>
</linearGradient>
<radialGradient id="paint11_radial" cx="0" cy="0" r="1" gradientUnits="userSpaceOnUse" gradientTransform="translate(18.7226 20.6326) rotate(-131.963) scale(4.09861 4.07561)">
<stop stop-color="#F7F7F7"/>
<stop offset="0.5272" stop-color="#BFBFBF"/>
<stop offset="1" stop-color="#F7F7F7"/>
</radialGradient>
<linearGradient id="paint12_linear" x1="44.9604" y1="-0.538592" x2="30.2518" y2="15.9001" gradientUnits="userSpaceOnUse">
<stop stop-color="#9AA0A4"/>
<stop offset="0.2552" stop-color="#6B7377"/>
<stop offset="0.5356" stop-color="#9AA0A4"/>
<stop offset="0.7615" stop-color="#90979B"/>
<stop offset="1" stop-color="#6B7377"/>
</linearGradient>
<linearGradient id="paint13_linear" x1="39.3982" y1="19.4294" x2="40.3545" y2="0.132025" gradientUnits="userSpaceOnUse">
<stop stop-color="#E9E9E9"/>
<stop offset="0.3118" stop-color="#EFEFEF"/>
<stop offset="0.3649" stop-color="#ECECEC"/>
<stop offset="0.4277" stop-color="#DADADA"/>
<stop offset="0.4355" stop-color="#EDEDED"/>
<stop offset="0.9839" stop-color="#ECECEC"/>
</linearGradient>
<linearGradient id="paint14_linear" x1="39.3982" y1="19.4293" x2="40.3545" y2="0.131938" gradientUnits="userSpaceOnUse">
<stop stop-color="#E9E9E9"/>
<stop offset="0.3118" stop-color="#EFEFEF"/>
<stop offset="0.3649" stop-color="#ECECEC"/>
<stop offset="0.4277" stop-color="#DADADA"/>
<stop offset="0.4355" stop-color="#EDEDED"/>
<stop offset="0.9839" stop-color="#ECECEC"/>
</linearGradient>
<linearGradient id="paint15_linear" x1="35.908" y1="22.366" x2="35.908" y2="10.3947" gradientUnits="userSpaceOnUse">
<stop stop-color="#DCDCDC"/>
<stop offset="1" stop-color="#C5C8CA"/>
</linearGradient>
<linearGradient id="paint16_linear" x1="2.96177" y1="8.67532" x2="2.96177" y2="19.4101" gradientUnits="userSpaceOnUse">
<stop stop-color="#DCDCDC"/>
<stop offset="1" stop-color="#969696"/>
</linearGradient>
<linearGradient id="paint17_linear" x1="3.77962" y1="14.437" x2="3.77962" y2="13.7585" gradientUnits="userSpaceOnUse">
<stop stop-color="white"/>
<stop offset="1" stop-color="#C5C8CA"/>
</linearGradient>
<linearGradient id="paint18_linear" x1="40.5168" y1="11.5604" x2="40.5994" y2="10.0591" gradientUnits="userSpaceOnUse">
<stop stop-color="white"/>
<stop offset="1" stop-color="#969696"/>
</linearGradient>
<linearGradient id="paint19_linear" x1="40.5506" y1="11.6676" x2="40.5506" y2="9.67545" gradientUnits="userSpaceOnUse">
<stop stop-color="#DCDCDC"/>
<stop offset="1" stop-color="#969696"/>
</linearGradient>
<linearGradient id="paint20_linear" x1="24.5324" y1="10.9727" x2="24.5655" y2="9.46905" gradientUnits="userSpaceOnUse">
<stop stop-color="white"/>
<stop offset="1" stop-color="#969696"/>
</linearGradient>
<linearGradient id="paint21_linear" x1="24.546" y1="10.9597" x2="24.546" y2="9.02373" gradientUnits="userSpaceOnUse">
<stop stop-color="#DCDCDC"/>
<stop offset="1" stop-color="#969696"/>
</linearGradient>
<linearGradient id="paint22_linear" x1="6.44792" y1="12.057" x2="2.28141" y2="9.87809" gradientUnits="userSpaceOnUse">
<stop stop-color="#640000"/>
<stop offset="0.1677" stop-color="#9A0005"/>
<stop offset="0.3135" stop-color="#C20008"/>
<stop offset="0.4291" stop-color="#DA000A"/>
<stop offset="0.5" stop-color="#E3000B"/>
<stop offset="0.5709" stop-color="#DA000A"/>
<stop offset="0.6865" stop-color="#C20008"/>
<stop offset="0.8323" stop-color="#9A0005"/>
<stop offset="1" stop-color="#640000"/>
</linearGradient>
<linearGradient id="paint23_linear" x1="6.37601" y1="9.68075" x2="3.37953" y2="12.7406" gradientUnits="userSpaceOnUse">
<stop/>
<stop offset="0.4854" stop-color="#A0A0A0"/>
<stop offset="0.8117"/>
</linearGradient>
<linearGradient id="paint24_linear" x1="77.4461" y1="15.8784" x2="74.6448" y2="15.5113" gradientUnits="userSpaceOnUse">
<stop stop-color="#333333"/>
<stop offset="1" stop-color="#191919"/>
</linearGradient>
<linearGradient id="paint25_linear" x1="77.3233" y1="15.1665" x2="74.522" y2="14.7994" gradientUnits="userSpaceOnUse">
<stop stop-color="#333333"/>
<stop offset="1" stop-color="#191919"/>
</linearGradient>
<linearGradient id="paint26_linear" x1="72.7531" y1="15.9968" x2="72.7531" y2="12.0829" gradientUnits="userSpaceOnUse">
<stop stop-color="#808080"/>
<stop offset="1"/>
</linearGradient>
<linearGradient id="paint27_linear" x1="71.9549" y1="14.3955" x2="71.9549" y2="12.9109" gradientUnits="userSpaceOnUse">
<stop stop-color="#969696"/>
<stop offset="0.00126487" stop-color="#979797"/>
<stop offset="0.0985365" stop-color="#BCBCBC"/>
<stop offset="0.1768" stop-color="#D3D3D3"/>
<stop offset="0.2258" stop-color="#DCDCDC"/>
<stop offset="0.3028" stop-color="#CACACA"/>
<stop offset="0.4102" stop-color="#B6B6B6"/>
<stop offset="0.4839" stop-color="#AFAFAF"/>
<stop offset="0.8172" stop-color="white"/>
<stop offset="0.8548" stop-color="#DADADA"/>
<stop offset="0.8925" stop-color="#BCBCBC"/>
<stop offset="0.9295" stop-color="#A7A7A7"/>
<stop offset="0.9657" stop-color="#9A9A9A"/>
<stop offset="1" stop-color="#969696"/>
</linearGradient>
<linearGradient id="paint28_linear" x1="70.4277" y1="12.1463" x2="70.7011" y2="15.537" gradientUnits="userSpaceOnUse">
<stop stop-color="#969696"/>
<stop offset="0.00126487" stop-color="#979797"/>
<stop offset="0.0985365" stop-color="#BCBCBC"/>
<stop offset="0.1768" stop-color="#D3D3D3"/>
<stop offset="0.2258" stop-color="#DCDCDC"/>
<stop offset="0.3028" stop-color="#CACACA"/>
<stop offset="0.4102" stop-color="#B6B6B6"/>
<stop offset="0.4839" stop-color="#AFAFAF"/>
<stop offset="0.8172" stop-color="white"/>
<stop offset="0.8548" stop-color="#DADADA"/>
<stop offset="0.8925" stop-color="#BCBCBC"/>
<stop offset="0.9295" stop-color="#A7A7A7"/>
<stop offset="0.9657" stop-color="#9A9A9A"/>
<stop offset="1" stop-color="#969696"/>
</linearGradient>
<linearGradient id="paint29_linear" x1="77.0544" y1="14.4909" x2="74.798" y2="14.1952" gradientUnits="userSpaceOnUse">
<stop stop-color="#333333"/>
<stop offset="1" stop-color="#191919"/>
</linearGradient>
<linearGradient id="paint30_linear" x1="76.7566" y1="13.0622" x2="69.2272" y2="13.0622" gradientUnits="userSpaceOnUse">
<stop stop-color="#DCDCDC"/>
<stop offset="1" stop-color="#969696"/>
</linearGradient>
<linearGradient id="paint31_linear" x1="52.7721" y1="10.1969" x2="52.7721" y2="8.48836" gradientUnits="userSpaceOnUse">
<stop stop-color="#B3B3B3"/>
<stop offset="0.2427" stop-color="white"/>
<stop offset="0.4017" stop-color="white"/>
<stop offset="1" stop-color="#B3B3B3"/>
</linearGradient>
<linearGradient id="paint32_linear" x1="52.0183" y1="8.6957" x2="52.0183" y2="7.01514" gradientUnits="userSpaceOnUse">
<stop stop-color="#B3B3B3"/>
<stop offset="0.2845" stop-color="white"/>
<stop offset="1" stop-color="#B3B3B3"/>
</linearGradient>
<linearGradient id="paint33_linear" x1="51.9873" y1="9.46126" x2="51.9873" y2="8.50914" gradientUnits="userSpaceOnUse">
<stop stop-color="#B3B3B3"/>
<stop offset="0.2845" stop-color="white"/>
<stop offset="1" stop-color="#B3B3B3"/>
</linearGradient>
<linearGradient id="paint34_linear" x1="53.2869" y1="8.42838" x2="50.4035" y2="8.42838" gradientUnits="userSpaceOnUse">
<stop stop-color="#EAEAEA"/>
<stop offset="1" stop-color="#BEBEBE"/>
</linearGradient>
<linearGradient id="paint35_linear" x1="38.5618" y1="25.5745" x2="38.5618" y2="29.5" gradientUnits="userSpaceOnUse">
<stop stop-color="#0C0C0C"/>
<stop offset="1" stop-color="white" stop-opacity="0"/>
</linearGradient>
</defs>
</svg>
