<svg width="28" height="41" viewBox="0 0 28 41" fill="none" xmlns="http://www.w3.org/2000/svg">
<g filter="url(#filter0_d)">
<path fill-rule="evenodd" clip-rule="evenodd" d="M10.5211 33.9262L12.4353 34.1897L12.436 34.1852L12.603 34.2083C13.6322 34.4167 16.4389 34.1937 16.4389 34.1937C17.573 33.9334 18.2816 32.665 18.6861 31.5947C19.0493 31.3698 19.3323 30.9598 19.4171 30.4616L19.9186 27.5125C19.986 27.1166 19.9148 26.7377 19.7453 26.4429L19.8187 26.0117L20.0419 24.7009L21.3746 24.3799L21.4507 23.9331L20.1716 23.9383L21.5048 16.104C21.7645 15.8679 21.9586 15.527 22.0263 15.13L23.2526 7.92383C23.3278 7.48208 23.2305 7.06294 23.0177 6.75544C23.0345 5.86488 22.914 4.4825 22.0253 4.26931L16.5654 3.51789L11.106 2.76671C10.187 2.73104 9.61284 4.018 9.33247 4.87204C9.02668 5.10837 8.79445 5.48189 8.71924 5.92383L7.49294 13.1298C7.42539 13.527 7.49698 13.9046 7.66642 14.1995L6.32457 22.0855L5.20668 21.7657L5.13054 22.2123L6.19931 22.8212L5.98058 24.1071L5.89826 24.5446C5.6422 24.782 5.45196 25.1189 5.38501 25.5125L4.88346 28.4616C4.81525 28.8629 4.88895 29.2467 5.0628 29.5432C5.07118 30.699 5.29639 32.2228 6.34578 32.8049C6.34578 32.8049 8.94966 33.7722 10.001 33.8501L10.5218 33.9219L10.5211 33.9262Z" fill="white"/>
</g>
<rect width="2.01683" height="5.1252" rx="1" transform="matrix(-0.147599 0.989047 -0.992831 -0.119528 19.0007 4.56903)" fill="#242E42"/>
<rect width="2.01683" height="4.10016" rx="1" transform="matrix(-0.147599 0.989047 -0.992831 -0.119528 22.0537 4.93659)" fill="#2C2E70"/>
<rect width="1.00842" height="5.1252" rx="0.504208" transform="matrix(-0.147599 0.989047 -0.992831 -0.119528 13.6667 33.3703)" fill="#242E42"/>
<rect width="2.01683" height="4.10016" rx="1" transform="matrix(-0.147599 0.989047 -0.992831 -0.119528 14.9299 4.07894)" fill="#2C2E70"/>
<path fill-rule="evenodd" clip-rule="evenodd" d="M12.0611 26.3881L12.0627 26.38C10.0766 25.9845 8.83221 25.4962 8.06007 25.0102C7.20936 24.4744 6.93153 23.9423 6.86676 23.5442C6.86563 23.5384 6.86569 23.5326 6.86467 23.5273C6.85321 23.452 6.84914 23.3823 6.85103 23.3172C6.85655 23.0485 6.95027 22.881 6.95027 22.881L9.5365 18.659C9.85571 19.3487 12.6826 20.0362 13.7542 20.2752C14.8477 20.4105 17.7526 20.7131 18.3248 20.178L19.0466 24.9717C19.0466 24.9717 19.0672 25.1591 18.9645 25.4109C18.9409 25.4709 18.9098 25.5327 18.8707 25.5981C18.8674 25.6039 18.8636 25.6109 18.8598 25.6171C18.6398 25.9659 18.1684 26.3686 17.1622 26.5842C16.249 26.7782 14.8959 26.8175 12.8895 26.5229L12.8879 26.5309C12.747 26.5071 12.6098 26.4829 12.4747 26.4589C12.3397 26.4362 12.2021 26.4131 12.0611 26.3881Z" fill="#242E42"/>
<path fill-rule="evenodd" clip-rule="evenodd" d="M19.384 13.4444L13.7132 12.4642L10.2847 11.8715L10.0699 11.8345C9.08647 10.7794 9.45618 8.70593 9.84711 7.35599L21.4561 9.36251C21.2808 10.7497 20.7969 12.8037 19.4604 13.4576L19.384 13.4444Z" fill="#242E42"/>
<path fill-rule="evenodd" clip-rule="evenodd" d="M21.8526 13.2274C21.681 14.3774 20.3925 23.0119 20.3925 23.0119C20.3925 23.0119 18.9868 18.5469 19.1577 17.4022C19.3285 16.2574 22.0243 12.0775 21.8526 13.2274Z" fill="#242E42"/>
<path fill-rule="evenodd" clip-rule="evenodd" d="M7.60408 11.5171C7.43247 12.6671 6.14391 21.3016 6.14391 21.3016C6.14391 21.3016 8.83048 17.183 9.00131 16.0383C9.17215 14.8936 7.77569 10.3672 7.60408 11.5171Z" fill="#242E42"/>
<defs>
<filter id="filter0_d" x="0.858154" y="0.765985" width="26.4196" height="39.5313" filterUnits="userSpaceOnUse" color-interpolation-filters="sRGB">
<feFlood flood-opacity="0" result="BackgroundImageFix"/>
<feColorMatrix in="SourceAlpha" type="matrix" values="0 0 0 0 0 0 0 0 0 0 0 0 0 0 0 0 0 0 127 0" result="hardAlpha"/>
<feOffset dy="2"/>
<feGaussianBlur stdDeviation="2"/>
<feColorMatrix type="matrix" values="0 0 0 0 0 0 0 0 0 0 0 0 0 0 0 0 0 0 0.2 0"/>
<feBlend mode="normal" in2="BackgroundImageFix" result="effect1_dropShadow"/>
<feBlend mode="normal" in="SourceGraphic" in2="effect1_dropShadow" result="shape"/>
</filter>
</defs>
</svg>
