<svg width="193" height="64" viewBox="0 0 193 64" fill="none" xmlns="http://www.w3.org/2000/svg">
<path d="M0.0549316 53.0152H3.82317V10.1417L0.0549316 9.63403V53.0152Z" fill="#EC2326"/>
<path d="M6.85474 53.0152H10.3298V10.1417L6.85474 9.63403V53.0152Z" fill="#EC2326"/>
<path d="M23.4722 0.416992H20.4333V11.5858H22.0994C33.5399 11.5858 40.0396 18.9078 40.0396 32.0001C40.0396 45.0924 33.5399 52.4144 22.0994 52.4144H14.4628V52.5574H0.0405273V63.5832H23.4722C42.9713 63.5832 53.9542 52.2356 53.9542 32.0001C53.9542 11.7718 42.9713 0.416992 23.4722 0.416992Z" fill="#EC2326"/>
<path d="M58.6521 47.0939C58.6521 38.3348 63.2212 33.3867 71.0008 33.3867C78.4014 33.3867 82.2054 37.8986 82.2054 45.9499C82.2054 46.3861 82.1482 47.7446 82.0409 48.5598H65.5093C65.5093 52.9644 68.0691 55.2525 72.5238 55.2525C75.6271 55.2525 78.6159 54.3301 80.8468 52.6927L81.5547 57.8624C79.0521 59.8216 75.3553 60.8512 71.1152 60.8512C63.1711 60.8512 58.6521 55.9032 58.6521 47.0939ZM75.2981 44.6485C75.2981 41.059 73.7179 38.9926 70.729 38.9926C67.4113 38.9926 65.7238 41.2235 65.5093 44.6485H75.2981Z" fill="#2C2E70"/>
<path d="M88.4048 20.4445H95.0403V60.1504H88.4048V20.4445Z" fill="#2C2E70"/>
<path d="M101.347 47.0939C101.347 38.3348 105.916 33.3867 113.696 33.3867C121.096 33.3867 124.9 37.8986 124.9 45.9499C124.9 46.3861 124.843 47.7446 124.736 48.5598H108.204C108.204 52.9644 110.764 55.2525 115.219 55.2525C118.322 55.2525 121.311 54.3301 123.542 52.6927L124.25 57.8624C121.747 59.8216 118.05 60.8512 113.81 60.8512C105.866 60.8512 101.347 55.9032 101.347 47.0939ZM117.993 44.6485C117.993 41.059 116.413 38.9926 113.424 38.9926C110.106 38.9926 108.419 41.2235 108.204 44.6485H117.993Z" fill="#2C2E70"/>
<path d="M153.459 34.0945L144.106 60.1504H136.705L127.567 34.0945H134.968L141.003 52.5353L146.601 34.0945H153.459Z" fill="#2C2E70"/>
<path d="M158.299 34.0945H164.935V60.1504H158.299V34.0945Z" fill="#2C2E70"/>
<path d="M193 42.5249V60.1505H187.344L186.858 57.1044C184.684 59.4998 181.638 60.8584 178.485 60.8584C173.859 60.8584 171.034 57.9196 171.034 53.4077C171.034 47.1011 176.583 43.6689 186.322 43.6689V41.7669C186.322 39.7577 184.906 38.6136 181.917 38.6136C179.307 38.6136 176.318 39.4288 173.487 40.7873L172.128 36.161C175.339 34.3663 179.686 33.3867 183.118 33.3867C189.461 33.3867 193 36.7617 193 42.5249ZM186.307 53.6723V47.3657C180.923 47.3657 177.877 49.1032 177.877 52.3137C177.877 54.4374 179.186 55.9032 181.409 55.9032C183.047 55.9032 184.949 55.088 186.307 53.6723Z" fill="#2C2E70"/>
</svg>
