<svg width="26" height="21" viewBox="0 0 26 21" fill="none" xmlns="http://www.w3.org/2000/svg">
<path d="M25.0344 11.8517H21.4853V8.48627H25.0344C25.5677 8.48627 26 8.06018 26 7.53392C26 7.0076 25.5677 6.58125 25.0344 6.58125H21.4853V1.91159C21.4853 1.22994 21.3487 0.729619 21.0796 0.424849C20.8238 0.134914 20.4875 0 20.0218 0C19.5774 0 19.2538 0.133983 19.0029 0.422109C18.7369 0.72719 18.6019 1.22844 18.6019 1.9119V6.58182H11.9258L9.08713 2.34378C8.84419 1.96555 8.61576 1.61126 8.39393 1.27119C8.19422 0.964917 7.99942 0.715559 7.81542 0.529368C7.65254 0.364525 7.46691 0.236952 7.2498 0.138894C7.04495 0.0466253 6.78451 0.000310173 6.4764 0.000310173C6.08341 0.000310173 5.72667 0.106535 5.38508 0.324775C5.04705 0.540637 4.81338 0.807517 4.67067 1.14072C4.5454 1.45738 4.47912 1.9426 4.47912 2.56894V6.58151H0.965212C0.432022 6.58156 0 7.00791 0 7.53417C0 8.06044 0.432022 8.48653 0.965264 8.48653H4.47917V11.8523H0.965264C0.432022 11.8523 0 12.2785 0 12.805C0 13.3311 0.432022 13.757 0.965264 13.757H4.47917V19.0886C4.47917 19.7501 4.62006 20.2453 4.89909 20.56C5.16446 20.8601 5.50092 20.9994 5.95782 20.9994C6.39865 20.9994 6.73249 20.8595 7.00933 20.5588C7.29282 20.2508 7.43621 19.7559 7.43621 19.0886V13.757H13.4774L16.7466 18.703C16.9739 19.0299 17.2086 19.3599 17.4427 19.6835C17.6539 19.974 17.8843 20.2301 18.1274 20.4439C18.3464 20.6373 18.5811 20.7791 18.8251 20.8656C19.0762 20.9548 19.3698 21 19.6956 21C20.5797 21 21.4851 20.733 21.4851 18.7525V13.757H25.0343C25.5676 13.757 25.9999 13.3304 25.9999 12.8043C26 12.2782 25.5677 11.8517 25.0344 11.8517ZM18.6019 8.48622V11.8516H15.4562L13.2023 8.48622H18.6019ZM7.43627 4.61927L8.73348 6.58125H7.43627V4.61927ZM7.43627 11.8517V8.48627H9.99308L12.2179 11.8517H7.43627ZM18.6019 16.549L16.7324 13.757H18.6019V16.549Z" fill="#FEFEFE"/>
</svg>
