<svg width="218" height="130" viewBox="0 0 218 130" fill="none" xmlns="http://www.w3.org/2000/svg">
<path d="M8 9C8 9 17.3891 32.7451 30.6991 34.8383C38.5172 36.0679 43.5466 34.1316 50.4374 30.2594C58.0038 26.0075 62.8224 21.9504 70.1758 25.0263C77.8034 28.2169 70.438 36.2043 77.7421 40.0714C86.6831 44.8052 95.2799 37.9358 104.389 33.5301C116.561 27.6429 121.206 24.9802 131.365 25.0263C137.951 25.0562 141.212 26.8359 146.826 30.2594C160.387 38.5284 177.672 55.6496 163.933 63.6203C162.243 64.6008 160.937 64.4771 159.327 65.5827C151.631 70.8669 156.639 87.2214 165.907 88.4774C170.016 89.0344 172.703 83.1757 176.105 85.5338C178.671 87.3128 176.605 90.7798 178.736 93.0564C180.343 94.7726 184 96 184 96" stroke="#2C2E70" stroke-width="4" stroke-linecap="round" stroke-linejoin="round"/>
<rect x="178" y="86" width="26.64" height="26.64" fill="white" fill-opacity="0.01"/>
<g filter="url(#filter0_d)">
<path d="M197.98 99.32C197.98 102.998 194.998 105.98 191.32 105.98C187.642 105.98 184.66 102.998 184.66 99.32C184.66 95.6418 187.642 92.66 191.32 92.66C194.998 92.66 197.98 95.6418 197.98 99.32Z" fill="white"/>
</g>
<g filter="url(#filter1_d)">
<path fill-rule="evenodd" clip-rule="evenodd" d="M199.312 99.32C199.312 103.734 195.734 107.312 191.32 107.312C186.906 107.312 183.328 103.734 183.328 99.32C183.328 94.9061 186.906 91.328 191.32 91.328C195.734 91.328 199.312 94.9061 199.312 99.32ZM191.32 105.98C194.998 105.98 197.98 102.998 197.98 99.32C197.98 95.6418 194.998 92.66 191.32 92.66C187.642 92.66 184.66 95.6418 184.66 99.32C184.66 102.998 187.642 105.98 191.32 105.98Z" fill="white"/>
</g>
<path fill-rule="evenodd" clip-rule="evenodd" d="M197.818 97.8525C197.149 94.8803 194.494 92.66 191.32 92.66C187.642 92.66 184.66 95.6418 184.66 99.32C184.66 102.998 187.642 105.98 191.32 105.98C194.494 105.98 197.149 103.76 197.818 100.787V97.8525Z" fill="#4B545A"/>
<path fill-rule="evenodd" clip-rule="evenodd" d="M184.712 98.4861C184.863 97.2762 185.338 96.1672 186.049 95.2489C186.548 95.3814 187.075 95.4472 187.644 95.4472C187.712 95.4472 187.779 95.4426 187.846 95.4379C187.896 95.4345 187.947 95.431 187.997 95.4295H188V98.9435C186.509 98.9435 185.156 98.6084 184.712 98.4861Z" fill="white"/>
<path fill-rule="evenodd" clip-rule="evenodd" d="M188.001 102.462V98.9447C189.526 98.9447 191.276 98.4868 191.431 98.4461C191.438 98.4442 191.442 98.4432 191.442 98.4432V101.961C191.442 101.961 189.476 102.462 188.001 102.462Z" fill="white"/>
<path fill-rule="evenodd" clip-rule="evenodd" d="M191.432 105.979C191.395 105.98 191.357 105.98 191.32 105.98C190.78 105.98 190.255 105.916 189.752 105.794C190.629 105.657 191.325 105.475 191.42 105.45C191.428 105.448 191.432 105.447 191.432 105.447V105.979Z" fill="white"/>
<path fill-rule="evenodd" clip-rule="evenodd" d="M191.432 92.6609C191.395 92.6603 191.357 92.66 191.32 92.66C190.107 92.66 188.97 92.9843 187.99 93.551V95.347C189.465 95.347 191.432 94.8455 191.432 94.8455V92.6609Z" fill="white"/>
<path d="M194.881 94.4131C194.833 94.4131 194.791 94.406 194.743 94.406C193.627 94.406 192.521 94.6285 191.443 94.8651V98.4463C191.443 98.4463 192.507 97.9448 194.884 97.9448V94.4131H194.881V94.4131Z" fill="white"/>
<path fill-rule="evenodd" clip-rule="evenodd" d="M187.997 105.093C186.825 104.417 185.878 103.394 185.296 102.165C185.903 102.304 186.848 102.462 187.997 102.462V105.093Z" fill="white"/>
<path d="M191.437 105.432C192.574 105.181 193.656 104.952 194.737 104.952C194.786 104.952 194.831 104.959 194.875 104.959V101.455C192.664 101.455 191.434 101.957 191.434 101.957V105.432H191.437Z" fill="white"/>
<path fill-rule="evenodd" clip-rule="evenodd" d="M197.49 101.832C196.881 101.653 195.969 101.458 194.876 101.458V97.9407C196.234 97.9407 197.26 98.2056 197.823 98.3963V100.762C197.742 101.132 197.63 101.489 197.49 101.832Z" fill="white"/>
<path fill-rule="evenodd" clip-rule="evenodd" d="M195.921 94.5051C195.597 94.4684 195.247 94.446 194.876 94.446V93.6877C195.251 93.9253 195.602 94.1994 195.921 94.5051Z" fill="white"/>
<circle cx="5.552" cy="5.552" r="4.552" fill="#2C2E70" stroke="#FDFDFD" stroke-width="2"/>
<defs>
<filter id="filter0_d" x="164.66" y="76.66" width="53.32" height="53.32" filterUnits="userSpaceOnUse" color-interpolation-filters="sRGB">
<feFlood flood-opacity="0" result="BackgroundImageFix"/>
<feColorMatrix in="SourceAlpha" type="matrix" values="0 0 0 0 0 0 0 0 0 0 0 0 0 0 0 0 0 0 127 0" result="hardAlpha"/>
<feOffset dy="4"/>
<feGaussianBlur stdDeviation="10"/>
<feColorMatrix type="matrix" values="0 0 0 0 0 0 0 0 0 0 0 0 0 0 0 0 0 0 0.3 0"/>
<feBlend mode="normal" in2="BackgroundImageFix" result="effect1_dropShadow"/>
<feBlend mode="normal" in="SourceGraphic" in2="effect1_dropShadow" result="shape"/>
</filter>
<filter id="filter1_d" x="167.328" y="79.328" width="47.984" height="47.984" filterUnits="userSpaceOnUse" color-interpolation-filters="sRGB">
<feFlood flood-opacity="0" result="BackgroundImageFix"/>
<feColorMatrix in="SourceAlpha" type="matrix" values="0 0 0 0 0 0 0 0 0 0 0 0 0 0 0 0 0 0 127 0" result="hardAlpha"/>
<feOffset dy="4"/>
<feGaussianBlur stdDeviation="8"/>
<feColorMatrix type="matrix" values="0 0 0 0 0 0 0 0 0 0 0 0 0 0 0 0 0 0 0.1 0"/>
<feBlend mode="normal" in2="BackgroundImageFix" result="effect1_dropShadow"/>
<feBlend mode="normal" in="SourceGraphic" in2="effect1_dropShadow" result="shape"/>
</filter>
</defs>
</svg>
